<?xml version="1.0" encoding="UTF-8"?><svg id="logo_4c" xmlns="http://www.w3.org/2000/svg" viewBox="0 0 280.66 71.06"><defs><style>.cls-1{fill:#002d5d;}</style></defs><path class="cls-1" d="M278.53,3.14c0-.52-.25-.96-.68-1.19-.33-.17-.64-.21-1.47-.21h-1.2V6.27h.95v-1.71h.61l.95,1.71h1.11l-1.09-1.87c.53-.24,.82-.68,.82-1.26Zm-1.35,.55c-.17,.07-.31,.08-.75,.08h-.31v-1.26h.24c.61,0,.74,.01,.92,.11,.18,.1,.28,.28,.28,.5,0,.28-.15,.49-.38,.57Zm-.41-3.65c-2.21,0-3.97,1.74-3.97,3.93s1.77,3.93,3.93,3.93,3.93-1.76,3.93-3.94-1.76-3.92-3.88-3.92Zm-.05,7.22c-1.78,0-3.22-1.47-3.22-3.29s1.43-3.3,3.27-3.3,3.17,1.49,3.17,3.3-1.43,3.29-3.22,3.29Z"/><polygon class="cls-1" points="0 71.06 115.27 71.06 118.65 57.83 3.41 57.83 0 71.06"/><polygon class="cls-1" points="133.79 57.83 130.49 70.72 130.45 71.06 251.2 71.06 254.58 57.83 133.79 57.83"/><path class="cls-1" d="M257.82,44.81h-8.39l-.41-.42-24.73-25.99c-.24-.26-.54-.59-.86-.96-.31,1.72-.57,2.9-.74,3.61l-5.84,23.77h-13.04l.08-.34L214.82,.04h9.74l.08,.09,24.04,25.11c.73,.73,1.37,1.42,1.95,2.11,.38-2.11,.63-3.37,.83-4.18L257.14,.04h11.68l-.08,.34-10.92,44.44Z"/><polygon class="cls-1" points="121.95 44.81 75.38 44.81 75.46 44.48 86.38 .04 133.21 .04 130.78 9.95 96.62 9.95 94.99 16.58 114.53 16.58 112.09 26.49 92.55 26.49 90.66 34.18 124.57 34.18 121.95 44.81"/><polygon class="cls-1" points="19.38 44.8 6.77 44.8 18.14 0 30.75 0 30.67 .34 19.38 44.8"/><polygon class="cls-1" points="65.26 44.36 47.77 44.36 47.69 44.27 25.53 20.7 25.8 20.52 56.33 .5 73.35 .5 42.24 21.35 65.26 44.36"/><path class="cls-1" d="M191.79,19.74l2.42-9.86c.77-3.15,.52-5.49-.78-7.15-1.44-1.84-4-2.69-8.07-2.69h-37.36l-10.92,44.44-.08,.34h12.5l3.91-15.88h7.64l13.09,15.79,.08,.1h18.03l-15.63-15.88h2.32c7.33,0,11.29-2.83,12.86-9.19Zm-15.53-.72h-20.42l2.21-8.99h21.09c1.99,0,2.32,.29,2.37,.35,0,0,.18,.25-.08,1.3l-1.24,5.05c-.47,1.89-1.17,2.3-3.93,2.3Z"/></svg>