<?xml version="1.0" encoding="UTF-8" standalone="no"?>
<svg
   xmlns:dc="http://purl.org/dc/elements/1.1/"
   xmlns:cc="http://creativecommons.org/ns#"
   xmlns:rdf="http://www.w3.org/1999/02/22-rdf-syntax-ns#"
   xmlns:svg="http://www.w3.org/2000/svg"
   xmlns="http://www.w3.org/2000/svg"
   version="1.1"
   id="Ebene_2"
   x="0px"
   y="0px"
   width="282.667px"
   height="286.583px"
   viewBox="0 0 282.667 286.583"
   enable-background="new 0 0 282.667 286.583"
   xml:space="preserve"><metadata
     id="metadata35"><rdf:RDF><cc:Work
         rdf:about=""><dc:format>image/svg+xml</dc:format><dc:type
           rdf:resource="http://purl.org/dc/dcmitype/StillImage" /><dc:title></dc:title></cc:Work></rdf:RDF></metadata><defs
     id="defs33" /><path
     fill="#EF7D00"
     d="M266.917,27.685c-5.92,0-10.702-4.931-10.702-11.76c0-6.83,4.782-11.76,10.702-11.76  c5.919,0,10.701,4.93,10.701,11.76C277.618,22.754,272.836,27.685,266.917,27.685z M266.917,30.513  c7.801,0,14.151-6.547,14.151-14.589c0-8.042-6.351-14.589-14.151-14.589c-7.802,0-14.151,6.547-14.151,14.589  C252.766,23.966,259.115,30.513,266.917,30.513z M261.468,24.128h2.979v-7.113h1.803l4.155,7.113h3.058l-4.312-7.234  c2.626-0.242,4.194-1.616,4.194-4.445c0-3.476-2.078-4.85-5.92-4.85h-5.958V24.128z M264.447,9.943h2.665  c1.529,0,3.254,0.324,3.254,2.263c0,2.223-1.528,2.465-3.293,2.465h-2.626V9.943z"
     id="path25" /><polygon
     fill="#EF7D00"
     points="0.588,2.189 0.588,233.76 108.006,233.76 108.006,186.334 45.229,186.334 45.229,2.189 "
     id="polygon27" /><polygon
     fill="#EF7D00"
     points="108.936,169.593 68.48,169.593 68.48,2.189 108.936,2.189 205.193,154.248 205.193,3.119   243.789,3.119 243.789,233.765 205.193,233.765 108.471,79.381 "
     id="polygon29" /><g
     transform="translate(-144.50584,-287.79734)"
     id="g4309"><path
       style="fill:#ef7d00;fill-opacity:1"
       id="path4311"
       d="m 145.3,535.8 3.6,0 0,25.2 9.3,0 0,3.1 -12.8,0 0,-28.3 z"
       class="st0" /><path
       style="fill:#ef7d00;fill-opacity:1"
       id="path4313"
       d="m 179.8,553.6 c 0,2.8 -0.2,4.3 -1.1,6.3 -1.2,2.3 -3.6,4.4 -7.7,4.4 -4.1,0 -6.6,-2 -7.7,-4.4 -1,-2 -1.1,-3.5 -1.1,-6.3 l 0,-17.9 3.6,0 0,18.4 c 0,4.4 1.9,7.2 5.3,7.2 3.4,0 5.3,-2.8 5.3,-7.2 l 0,-18.4 3.6,0 0,17.9 z"
       class="st0" /><path
       style="fill:#ef7d00;fill-opacity:1"
       id="path4315"
       d="m 203,563.5 c -1.7,0.5 -3.5,0.9 -5.1,0.9 -8.9,0 -12.7,-6.8 -12.7,-14.5 0,-8.8 5.1,-14.4 12.5,-14.4 2,0 4,0.4 5.3,1 l 0,3.5 c -1.5,-1 -3.3,-1.4 -5.3,-1.4 -4.6,0 -8.8,3.7 -8.8,10.6 0,7.3 2.9,12.1 9.1,12.1 1.8,0 3.6,-0.5 5.1,-1.3 l 0,3.5 z"
       class="st0" /><path
       style="fill:#ef7d00;fill-opacity:1"
       id="path4317"
       d="m 221,535.8 9.2,28.3 -3.7,0 -2.3,-7.4 -10.8,0 -2.3,7.4 -3.6,0 9.5,-28.3 4,0 z m 2.3,17.8 -4.3,-14.1 -0.1,0 -4.5,14.1 8.9,0 z"
       class="st0" /><path
       style="fill:#ef7d00;fill-opacity:1"
       id="path4319"
       d="m 246.6,539.9 c -1.3,-0.8 -3.1,-1.3 -4.8,-1.3 -2.7,0 -4.4,1.8 -4.4,4.2 0,1.8 0.7,3 4.8,5.3 4.4,2.5 5.8,5 5.8,8.2 0,4.5 -2.8,8 -8.2,8 -2.3,0 -4.4,-0.5 -5.9,-1.2 l 0,-3.7 c 1.6,1 3.7,1.8 5.4,1.8 3.2,0 5,-2.1 5,-4.5 0,-2.2 -0.6,-3.4 -4.4,-5.8 -5.1,-3.1 -6.2,-4.8 -6.2,-8.5 0,-4.7 3.6,-7.1 7.9,-7.1 1.9,0 3.8,0.4 5.1,0.9 l 0,3.7 z"
       class="st0" /><path
       style="fill:#ef7d00;fill-opacity:1"
       id="path4321"
       d="m 253.7,551.2 8.7,0 0,2.9 -8.7,0 0,-2.9 z"
       class="st0" /><path
       style="fill:#ef7d00;fill-opacity:1"
       id="path4323"
       d="m 268.5,535.8 4.4,0 10.7,23.3 0.1,0 0,-23.3 3.4,0 0,28.2 -4.4,0 -10.7,-23.1 -0.1,0 0,23.1 -3.4,0 0,-28.2 z"
       class="st0" /><path
       style="fill:#ef7d00;fill-opacity:1"
       id="path4325"
       d="m 312.3,553.6 c 0,2.8 -0.2,4.3 -1.1,6.3 -1.2,2.3 -3.6,4.4 -7.7,4.4 -4.1,0 -6.6,-2 -7.7,-4.4 -1,-2 -1.1,-3.5 -1.1,-6.3 l 0,-17.9 3.6,0 0,18.4 c 0,4.4 1.9,7.2 5.3,7.2 3.4,0 5.3,-2.8 5.3,-7.2 l 0,-18.4 3.6,0 0,17.9 z"
       class="st0" /><path
       style="fill:#ef7d00;fill-opacity:1"
       id="path4327"
       d="m 319.8,535.8 13.2,0 0,3.1 -9.6,0 0,9 9.2,0 0,3.1 -9.2,0 0,10 10.1,0 0,3.1 -13.7,0 0,-28.3 z"
       class="st0" /><path
       style="fill:#ef7d00;fill-opacity:1"
       id="path4329"
       d="m 339.9,535.8 3.6,0 0,25.2 9.3,0 0,3.1 -12.8,0 0,-28.3 z"
       class="st0" /><path
       style="fill:#ef7d00;fill-opacity:1"
       id="path4331"
       d="m 357.7,535.8 3.6,0 0,25.2 9.3,0 0,3.1 -12.8,0 0,-28.3 z"
       class="st0" /><path
       style="fill:#ef7d00;fill-opacity:1"
       id="path4333"
       d="m 375.4,535.8 13.2,0 0,3.1 -9.6,0 0,9 9.2,0 0,3.1 -9.2,0 0,10 10.1,0 0,3.1 -13.7,0 0,-28.3 z"
       class="st0" /></g></svg>