<?xml version="1.0" encoding="utf-8"?>
<!-- Generator: Adobe Illustrator 24.0.3, SVG Export Plug-In . SVG Version: 6.00 Build 0)  -->
<svg version="1.1" id="Ebene_1" xmlns="http://www.w3.org/2000/svg" xmlns:xlink="http://www.w3.org/1999/xlink" x="0px" y="0px"
	 viewBox="0 0 114 35.8" style="enable-background:new 0 0 114 35.8;" xml:space="preserve">
<style type="text/css">
	.st0{fill:#929292;}
</style>
<g>
	<path d="M19.7,7.7C19.7,3.4,16.3,0,12,0C10.4,0,0,0,0,0v5.5h10.8c1.3,0,2.3,1,2.3,2.3c0,1.3-1,2.3-2.3,2.3H0v10.6h7.2v-5.4H12
		C16.3,15.4,19.7,11.9,19.7,7.7"/>
	<polygon points="21.1,0 28.2,0 28.2,7.4 35.3,7.4 35.3,0 42.5,0 42.5,20.8 35.3,20.8 35.3,13.2 28.2,13.2 28.2,20.8 21.1,20.8 
		21.1,0 	"/>
	<polygon points="96.1,0 114,0 114,5.2 103.1,5.2 103.1,8.2 113,8.2 113,12.6 103.3,12.6 103.3,15.5 114,15.5 114,20.8 96.1,20.8 
		96.1,0 	"/>
	<polygon points="75.5,0.5 81.4,0.5 84.6,9.8 84.7,9.8 88.2,0 95,0 87.5,20.8 81.6,20.8 78.4,11.5 78.4,11.5 75.3,20.8 69.3,20.8 
		64.9,8.8 68.5,0.6 72.1,9.9 72.1,9.9 75.5,0.5 	"/>
	<polygon points="43.6,0 51.8,0 53.2,3.6 49.4,12.4 43.6,0 	"/>
	<polygon class="st0" points="58.1,0 65.5,0 58.8,15 58.8,20.8 51,20.8 51,16 58.1,0 	"/>
	<path d="M5.8,33.3v-0.4c0-2-1.1-3.1-2.7-3.1c-1.7,0-3.1,1.2-3.1,3c0,1.8,1.4,3,3.1,3c0.9,0,1.7-0.3,2.4-1.1l-1-0.8
		c-0.4,0.4-0.8,0.8-1.5,0.8c-0.8,0-1.4-0.5-1.5-1.4H5.8L5.8,33.3z M1.4,32.2c0.1-0.8,0.6-1.4,1.5-1.4c0.9,0,1.4,0.5,1.4,1.4H1.4
		L1.4,32.2z M6.3,35.7H8l1.5-2l1.5,2h1.7l-2.3-3.1l1.9-2.6h-1.6l-1.2,1.7L8.3,30H6.6l2,2.6L6.3,35.7L6.3,35.7z M18.4,30.7
		c-0.5-0.6-1.3-0.9-2.1-0.9c-1.7,0-3.1,1.2-3.1,3c0,1.8,1.4,3,3.1,3c0.5,0,1.5-0.2,2.1-0.8l-1-1c-0.3,0.3-0.7,0.5-1.1,0.5
		c-1,0-1.7-0.8-1.7-1.7c0-0.9,0.6-1.7,1.7-1.7c0.4,0,0.8,0.2,1.1,0.6L18.4,30.7L18.4,30.7z M24.7,33.3v-0.4c0-2-1.1-3.1-2.7-3.1
		c-1.7,0-3.1,1.2-3.1,3c0,1.8,1.4,3,3.1,3c0.9,0,1.7-0.3,2.4-1.1l-1-0.8c-0.4,0.4-0.8,0.8-1.5,0.8c-0.8,0-1.4-0.5-1.5-1.4H24.7
		L24.7,33.3z M20.3,32.2c0.1-0.8,0.6-1.4,1.5-1.4c0.9,0,1.4,0.5,1.5,1.4H20.3L20.3,32.2z M26,35.7h1.4v-9H26V35.7L26,35.7z
		 M29.1,35.7h1.4v-9h-1.4V35.7L29.1,35.7z M37.7,33.3v-0.4c0-2-1.1-3.1-2.7-3.1c-1.7,0-3.1,1.2-3.1,3c0,1.8,1.4,3,3.1,3
		c0.9,0,1.7-0.3,2.4-1.1l-1-0.8c-0.4,0.4-0.8,0.8-1.5,0.8c-0.8,0-1.4-0.5-1.5-1.4H37.7L37.7,33.3z M33.3,32.2
		c0.1-0.8,0.6-1.4,1.5-1.4c0.9,0,1.4,0.5,1.5,1.4H33.3L33.3,32.2z M39,35.7h1.4v-3.1c0-0.8,0.4-1.4,1.3-1.4c1,0,1,1,1,1.7v2.9h1.4
		v-3.6c0-1.2-0.5-2.2-2.1-2.2c-1,0-1.5,0.5-1.7,1.1h0V30H39V35.7L39,35.7z M50.7,30.7c-0.5-0.6-1.3-0.9-2.1-0.9
		c-1.7,0-3.1,1.2-3.1,3c0,1.8,1.4,3,3.1,3c0.5,0,1.5-0.2,2.1-0.8l-1-1c-0.3,0.3-0.7,0.5-1.1,0.5c-1,0-1.7-0.8-1.7-1.7
		c0-0.9,0.6-1.7,1.7-1.7c0.4,0,0.7,0.2,1.1,0.6L50.7,30.7L50.7,30.7z M57,33.3v-0.4c0-2-1.1-3.1-2.7-3.1c-1.7,0-3.1,1.2-3.1,3
		c0,1.8,1.4,3,3.1,3c0.9,0,1.7-0.3,2.4-1.1l-1-0.8c-0.4,0.4-0.8,0.8-1.5,0.8c-0.8,0-1.4-0.5-1.5-1.4H57L57,33.3z M52.7,32.2
		c0.1-0.8,0.6-1.4,1.5-1.4c0.9,0,1.4,0.5,1.4,1.4H52.7L52.7,32.2z M61.9,35.7h1.4V30h-1.4V35.7L61.9,35.7z M61.7,28
		c0,0.4,0.4,0.9,0.9,0.9c0.5,0,0.9-0.4,0.9-0.9c0-0.5-0.4-0.9-0.9-0.9C62.1,27.2,61.7,27.6,61.7,28 M65,35.7h1.4v-3.1
		c0-0.8,0.4-1.4,1.3-1.4c1,0,1,1,1,1.7v2.9h1.4v-3.6c0-1.2-0.5-2.2-2.1-2.2c-1,0-1.5,0.5-1.7,1.1h0V30H65V35.7L65,35.7z M79.3,30.7
		c-0.5-0.6-1.3-0.9-2-0.9c-1.2,0-2.3,0.6-2.3,1.8c0,2.2,3.1,1.2,3.1,2.4c0,0.5-0.5,0.7-0.9,0.7c-0.6,0-1-0.3-1.4-0.7l-0.9,0.9
		c0.6,0.7,1.3,0.9,2.2,0.9c1.2,0,2.5-0.5,2.5-1.8c0-2.2-3.1-1.4-3.1-2.4c0-0.4,0.5-0.6,0.8-0.6c0.5,0,0.8,0.2,1.1,0.6L79.3,30.7
		L79.3,30.7z M85.5,30.7c-0.5-0.6-1.3-0.9-2.1-0.9c-1.7,0-3.1,1.2-3.1,3c0,1.8,1.4,3,3.1,3c0.5,0,1.5-0.2,2.1-0.8l-0.9-1
		c-0.3,0.3-0.7,0.5-1.1,0.5c-1,0-1.7-0.8-1.7-1.7c0-0.9,0.6-1.7,1.7-1.7c0.4,0,0.7,0.2,1.1,0.6L85.5,30.7L85.5,30.7z M86.3,35.7h1.4
		V30h-1.4V35.7L86.3,35.7z M86.1,28c0,0.4,0.4,0.9,0.9,0.9S88,28.5,88,28c0-0.5-0.4-0.9-0.9-0.9S86.1,27.6,86.1,28 M94.9,33.3v-0.4
		c0-2-1.1-3.1-2.7-3.1c-1.7,0-3.1,1.2-3.1,3c0,1.8,1.4,3,3.1,3c0.9,0,1.7-0.3,2.4-1.1l-1-0.8c-0.4,0.4-0.8,0.8-1.5,0.8
		c-0.8,0-1.4-0.5-1.5-1.4H94.9L94.9,33.3z M90.5,32.2c0.1-0.8,0.6-1.4,1.5-1.4c0.9,0,1.4,0.5,1.5,1.4H90.5L90.5,32.2z M96.1,35.7
		h1.4v-3.1c0-0.8,0.4-1.4,1.3-1.4c1,0,1,1,1,1.7v2.9h1.4v-3.6c0-1.2-0.5-2.2-2.1-2.2c-0.9,0-1.5,0.5-1.7,1.1h0V30h-1.4V35.7
		L96.1,35.7z M107.7,30.7c-0.5-0.6-1.3-0.9-2.1-0.9c-1.7,0-3.1,1.2-3.1,3c0,1.8,1.4,3,3.1,3c0.5,0,1.5-0.2,2.1-0.8l-1-1
		c-0.3,0.3-0.7,0.5-1.1,0.5c-1,0-1.7-0.8-1.7-1.7c0-0.9,0.6-1.7,1.7-1.7c0.4,0,0.7,0.2,1.1,0.6L107.7,30.7L107.7,30.7z M114,33.3
		v-0.4c0-2-1.1-3.1-2.7-3.1c-1.7,0-3.1,1.2-3.1,3c0,1.8,1.4,3,3.1,3c0.9,0,1.7-0.3,2.4-1.1l-1-0.8c-0.4,0.4-0.8,0.8-1.5,0.8
		c-0.8,0-1.4-0.5-1.5-1.4H114L114,33.3z M109.7,32.2c0.1-0.8,0.6-1.4,1.5-1.4c0.9,0,1.4,0.5,1.5,1.4H109.7L109.7,32.2z"/>
</g>
</svg>
