<svg id="Layer_1" data-name="Layer 1" xmlns="http://www.w3.org/2000/svg" viewBox="0 0 1507 418.83"><path d="M559.8,367.17V55.72h89.12v48.42S684.67,67,720.35,56.44c30.07-8.9,79.62-3.84,98.84,2.8A400.84,400.84,0,0,0,792.7,94.82a250.56,250.56,0,0,0-22.23,40.5c-21.18.11-44.27,3.1-62.59,13-22,11.88-48.64,40-48.64,40v178.8Z"/><path d="M964.34,373.62c-28.05,0-53.31-4.33-75.07-12.85s-39.91-20.11-54.39-34.57a148.54,148.54,0,0,1-33.22-50.1,159.5,159.5,0,0,1-11.42-59.82c0-30,6.71-57.92,19.93-82.91,13.11-24.76,32.69-45,58.2-60s57.86-22.77,96-22.77,70.42,7.59,96,22.55,45.1,34.79,58.19,59c13.2,24.42,19.89,51.41,19.89,80.21,0,5.94-.31,12.08-.91,18.24q-.37,3.68-.78,7.07H896.52l.93,12.36c1,13.75,5.24,25.26,12.52,34.24a61.7,61.7,0,0,0,26.85,19.13A90.13,90.13,0,0,0,968.21,309c14.13,0,27.7-3,47.62-19.35l106.23.11c-15.38,23-24.82,34.29-34,42.16-15,12.79-33,23-53.49,30.48S990.35,373.62,964.34,373.62Zm-1.93-259.07c-12.08,0-23,2.46-32.59,7.3a62.28,62.28,0,0,0-23.65,20.74c-5.95,8.74-9.74,19.41-11.25,31.69l-1.58,12.9h138.14l-1.59-12.9c-1.51-12.27-5.29-22.93-11.25-31.69A62.52,62.52,0,0,0,995,121.85C985.43,117,974.47,114.55,962.41,114.55Z"/><polygon points="1239.62 367.17 1133.4 55.72 1234.14 55.72 1303.5 293.38 1373.6 55.72 1462.77 55.72 1356.55 367.17 1239.62 367.17"/><path d="M245.92,209.52H288A64.5,64.5,0,1,0,223.52,275H387.93a174.4,174.4,0,0,1-11.59,23.84H223.52a88.33,88.33,0,1,1,88.35-88.35h42a130.4,130.4,0,1,0-130.39,130.4H342.44a178.06,178.06,0,1,1,56.42-108H223.52a22.44,22.44,0,1,1,22.4-23.41Z"/></svg>