<?xml version="1.0" encoding="utf-8"?>
<!-- Generator: Adobe Illustrator 21.0.0, SVG Export Plug-In . SVG Version: 6.00 Build 0)  -->
<svg version="1.1" id="Ebene_1" xmlns="http://www.w3.org/2000/svg" xmlns:xlink="http://www.w3.org/1999/xlink" x="0px" y="0px"
	 viewBox="0 0 566.9 216.2" style="enable-background:new 0 0 566.9 216.2;" xml:space="preserve">
<style type="text/css">
	.st0{clip-path:url(#SVGID_2_);fill:#A8A8A7;}
	.st1{clip-path:url(#SVGID_4_);fill:#A8A8A7;}
	.st2{clip-path:url(#SVGID_6_);fill:#878787;}
	.st3{fill:#878787;}
	.st4{fill:#4A4A49;}
	.st5{clip-path:url(#SVGID_8_);fill:#EDEDED;}
	.st6{clip-path:url(#SVGID_10_);fill:#EDEDED;}
	.st7{clip-path:url(#SVGID_12_);fill:#4A4A49;}
	.st8{clip-path:url(#SVGID_14_);fill:#4A4A49;}
	.st9{clip-path:url(#SVGID_16_);fill:#4A4A49;}
	.st10{clip-path:url(#SVGID_18_);fill:#4A4A49;}
	.st11{clip-path:url(#SVGID_20_);fill:#4A4A49;}
	.st12{clip-path:url(#SVGID_22_);fill:#4A4A49;}
</style>
<g>
	<g>
		<defs>
			<rect id="SVGID_1_" x="4.7" y="3" width="548.4" height="209.5"/>
		</defs>
		<clipPath id="SVGID_2_">
			<use xlink:href="#SVGID_1_"  style="overflow:visible;"/>
		</clipPath>
		<path class="st0" d="M105.1,69c-0.3,0-0.3-0.1-0.5,0.3h-0.5c0.1,0.1,0.3,0.3,0.4,0.4h1C105.5,69.3,105.5,69,105.1,69 M200.3,89.8
			v-0.3c-0.7,0-0.3-0.2-0.3-0.6c0-0.2-0.2-0.2-0.2-0.4c-0.3,0.1-0.7,1.1-0.7,1.3c0,0.2,0.2,0.4,0.5,0.4
			C199.9,90.3,200.3,90.1,200.3,89.8 M196.7,88.6c-0.1,0-0.1,0.1-0.1,0.3c0,0.3,1.2,1,1.4,1c0.1,0,0.4-0.2,0.4-0.4v-0.2h-0.9
			C197,89.1,196.8,89,196.7,88.6 M198.6,85.4c-0.7-0.5-1.3-1.2-2.2-0.9c0.4,0.3,1.3,1.1,1.8,1.1C198.4,85.6,198.5,85.6,198.6,85.4
			 M115.4,73.5V74c0.2,0.2,0.4,0.2,0.7,0.5c0.5-0.5,0.7-0.7,1.2-1.1V73h-0.4C116.4,73,116,73.3,115.4,73.5 M135.8,80.2
			c0-0.2-0.2-0.3-0.2-0.5c0-0.4,0.1-0.6,0-0.8c-0.1,0.2-0.2,0.5-0.4,0.5s0.2-0.4,0.2-0.4c-0.3,0-0.4-0.3-0.7-0.3V79
			c0.1,0.2,0.3,0.7,0.4,0.7c0.2,0,0.3,0.4,0.5,0.5c0,0.1-0.1,0.2-0.1,0.4c0,0.3,0.2,0.7,0.4,0.7c0.3,0-0.3-0.6-0.3-0.7
			C135.6,80.4,135.8,80.3,135.8,80.2 M140.5,85.3c0.5,0.4,1.6,1.4,2.3,1.4h0.3v-0.3c-0.8-1-1.6-1.9-2.9-2.4
			c-0.2-0.1-0.5-0.5-0.9-0.5c-0.2,0-0.3,0.1-0.4,0.2h0.1c0,0,0.3,0.1,0.5,0.2c0,0.1-0.2,0.3-0.3,0.3c0.1,0.5,1,0.8,1.6,0.8
			C140.7,85,140.6,85,140.5,85.3 M181.4,80.5h0.2c0-0.5-0.5-0.6-1.1-0.6c0,0.1,0,0.2,0,0.3C180.7,80.3,181.2,80.5,181.4,80.5
			 M204.2,82.4c0-0.1-0.1-0.4-0.2-0.4c-0.5,0-0.7,0.6-0.9,1.1c-0.5,0.9-0.8,2.6-1.7,3.1c0,0.1,0.2,0.2,0.3,0.2v0.2
			c0,0-0.6,0.6-0.6,0.7s0.2,0.4,0.3,0.4c0.4,0,0.5-0.2,1-0.2c0.3,0,0.5,0.3,0.9,0.3c0.2,0,0.4-0.1,0.6-0.2c0.2,0.4,0.6,0.1,0.9,0.1
			c-0.1,0.2-0.3,0.2-0.3,0.6c0,0.1,0.1,0,0.2,0c0.4,0,0.7-0.6,0.9-1c0.3,0.3,0.1,1,0.3,1c0.1,0,0.2,0.1,0.3,0.1
			c0,0.1,0.1,0.5,0.3,0.5c0.3,0,0.5-0.5,0.5-0.9s-0.2-0.3-0.2-0.8c-0.2,0.1-0.1,0.2-0.4,0.2c0-0.3-0.2-0.4-0.2-0.6s0.3-0.2,0.3-0.6
			c-0.1,0-0.3,0-0.3,0.1c0-0.6,0-0.9,0-1.2c-0.2,0.1-0.6,0.1-0.9,0l-0.4,0.2V85h-0.6v-0.3l0.2-0.2c-0.1-0.2-0.3-0.2-0.5-0.2
			s-0.2,0.2-0.5,0.3v-0.3C203.5,83.6,204.2,83.2,204.2,82.4 M205.5,52.8h0.7c0.5,0,1.2-0.1,1.3-0.8c-0.8-0.3-1.1-1.3-1.9-1.3
			c-0.3,0-0.7,0.2-0.7,0.8C204.9,52,205.2,52.8,205.5,52.8 M234.2,51.2c-0.7-0.3-3.5-0.1-3.5-1.2c0.2,0,0.7-0.2,0.7-0.5
			s-0.3-0.4-0.3-0.9c0.2,0.1,0.3,0,0.5,0c1.3,0,1,1.9,2.5,1.9c0.3,0,0.9,0,0.9-0.5c0-2.2-2-2.8-3.2-4.2v-0.6c0.1,0,0.2,0,0.4,0
			c0.2,0.7,1.2,1.7,1.7,1.7c0.4,0,0.5-0.6,0.5-1.1c0-1-1.4-0.7-1.7-1.7h0.5c0.3,0.4,0.6,0.6,0.9,0.9c0.3-0.8,1.5-0.3,1.7-1.4
			c-0.2-0.1-0.3-0.3-0.3-0.6c0.6-0.1,1.2-0.4,1.4-1c-0.4-0.2-1.3-0.1-1.3-0.8c0-0.5,0.5-0.5,1-0.5c-0.2-0.2,0-0.5,0-0.8
			c0-0.6-0.5-0.8-0.5-1.6c-0.4,0-1,0-1-0.6c0-0.3,0.3-0.6,0.6-0.6c0.6,0,2.2,0.3,2.2-0.6s-1.2-0.7-1.4-1.3c0.2,0,0.4-0.1,0.6-0.2
			c-0.3-0.3-0.8-0.7-1.3-0.7c-0.3,0-0.6,0.2-0.9,0c0.2-0.4,0.2-1.3,0.5-1.6c0.6-0.5,1.3-0.8,1.3-1.6c0-0.1,0-0.1,0-0.6
			c0.6-0.2,1.4-0.3,1.4-0.9c0-0.4,0.2,0,0-0.5c0.6-0.2,1.4-0.2,1.4-1.2c-0.3,0.2-0.3,0.2-0.7,0c1.4,0,2.1-1.1,3.1-1.5
			c0.2-0.1,0.8-0.4,0.8-0.9s-1.5-1.3-1.9-1.3c-0.3,0-0.5,0-0.6,0.5h-1.5c-0.5,0.3-0.6,0.5-1.2,0.8c-0.1,0-0.7-0.1-0.7-0.1h-2.1
			c-0.5,0.5-2.1,2.9-2.9,3.2c0.1-0.4,2.1-2.9,2.1-3.3c0-0.6-0.2-1.1-0.8-1.1c-1,0-2.9,2.2-3.7,2.2c-0.3,0,1.1-1.6,1.2-1.9
			c-0.6-0.3-5.8,0.5-6.4,0l6.9-0.5c0.9-0.4,3-0.2,3.2-1.5c-0.8-0.2-1.9,0-2.7-0.4c-1.5-0.8-2.9-2.2-4.7-2.2h-4.6
			c-1.6,0-2.8,1.1-4.3,1.1c-0.5,0-0.8-0.1-1.3,0v0.5h-0.6c-0.7-0.3-1.2-0.3-2-0.3c-1,0-1.8,0.3-2.7,0.8c0.2,0.3,0.4,0.3,0.6,0.6
			c-0.3,0.1-1.3-0.1-1.3,0.5c0,0.7,1.3,1.2,1.8,1.5h-1.4c-0.8-0.5-1.5-1.3-2.8-1.3c-0.3,0-0.8,0-0.8,0.5c0,0.3,0.2,0.5,0.3,0.8h-0.5
			c-0.6-0.3-1.2-0.2-1.5-0.9l-0.3,0.4c0,0.3,0.2,0.5,0.2,0.8c-0.6,0-0.8-1.1-1.3-1.1c-0.9,0-1.5,0.6-2.4,0.9c-1.2,0-1.7,0.4-2.9,0.6
			c-1,0.2-0.2,1.9-1.3,1.9c-0.3,0-0.6-0.1-0.8-0.3c-0.6,0.8-2,1.7-3.1,2.1c-0.2,0-0.6,0.2-0.6,0.6c0,0.7,1.8,0.7,2.4,0.8
			c0,0.9-0.3,1.6-0.9,2c-0.7,0.5-1.8-0.1-2.7,0.3c-0.6,0.2-0.9,0.6-1.5,0.9c-0.7,0.3-1.8-0.2-1.8,1c0,0.6,3,1.6,3.2,1.6h1.1
			c0.2,0,0.3-0.2,0.3-0.4h1.3c-0.1,0.4-0.1,0.6-0.4,0.8h-1.8c-0.2,0.3-0.3,0.3-0.6,0.3h-0.8c-0.3,0-0.9,0.2-0.9,0.8
			c0.6,0.3,0.4,0,1.1,0c0.4,0,0.8,0.4,1.3,0.6c-0.1,0.3-0.3,0.4-0.6,0.6c0.4,0.6,1.4,0.9,2,0.9c0.3,0,0.2,0.1,0.4-0.1
			c-0.1,0-0.2-0.2-0.3-0.3c0.2-0.1,0.3-0.1,0.6-0.1c0.4,0,0.7,0.3,0.9,0.3c0.4,0,0.6-0.5,1-0.5h0.9c3.5,0,5.7,3.3,6.6,6.5v0.6
			c0.3,0,0.8,0.1,0.8,0.6c0,0.9-0.7,0.8-0.7,1.6c0,0.6,0.3,0.6,0.8,0.6c0.4,0,0.5-0.6,0.8-0.6c1,0,1.3,1.8,2.3,2.2
			c0,0.2,0,0.6-0.3,0.6c-0.8,0-1.2-0.6-1.9-0.6c-0.3,0-0.3-0.1-0.6,0c0.1,1.1,2.4,1.2,3.4,1.6c-0.3,1.1-0.8,1.4-0.9,2.6
			c-0.4-0.2-0.4-0.2-0.9,0.1V55c-0.6,0.6-0.8,1.4-1.3,2.1V58c0.2-0.2,0.4-0.2,0.6,0c-0.1,0.4-0.3,0.6-0.3,0.9c0,1,0.9,1.4,1,2.2
			c0.1,0.4,0.2,1.1,0.3,1.2c0.5,0.3,0.7-0.6,1.2,0.1c-0.2,0.3-0.5,0.2-0.5,0.7c0,1.1,1.2,2.8,1.8,3.4c0.1,0.1,0,0.6,0.2,0.8
			c0.5,0.5,0.8,0.2,1,1.1c0.4,0,0.9-0.5,1.3-0.5c0.8,0,0.7,1.7,1.5,1.7c0.2,0,0.3-0.2,0.6-0.3c0.1,0.2,0.2,0.4,0.4,0.4
			c0.8,0,0.5-2,1.2-2.4c-0.1-0.4,0-1.4,0-2.1c0-1.1,1.5-0.7,1.5-2c0-0.4-0.4-0.6-0.4-0.9c0-0.2,0.1-0.3,0.2-0.5
			c0-0.1-0.1-0.3-0.1-0.4c0-1.2,1.7-0.9,2.4-1.7c0.3-0.3,0.2-0.7,0.6-0.9V59h0.5c0.7-0.6,1.7-0.4,2.4-1.1c0.5-0.6,0.5-1.3,1.1-1.9
			l0.8-0.7c0-0.3,0.3-0.4,0.6-0.6h1.5c1.2-0.6,2.1-0.5,3.2-0.9c0.9-0.3,1.2-1.4,2.3-1.8C233.4,51.7,233.7,51.6,234.2,51.2
			 M172.6,25.6h0.9c-0.4,0.2-0.6,0.3-0.9,0.6c0.1,0,0.4,0.3,0.6,0.3c0.6,0,0.6-0.7,1.3-0.7c0.3,0,0.3,0,0.6,0.1
			c-0.8,0.3-1.6,0.2-2,1.2c0.3,0,0.9,0,1.5,0c-0.4,0-0.6,0.2-0.9,0.4c0.2,0.3,1.1,0.8,1.7,0.8c0.3,0,0.5-0.2,0.7-0.4h0.4
			c-0.2,0.5,0.6,0.8,1.3,0.8c0.3,0,0.4-0.4,0.6-0.4c0.3,0,0.5,0.3,1.1,0.3c1,0,1.7-0.3,2.4-0.9h0.5c-0.4,0.6-0.9,0.8-1.5,1.1h-1.6
			c-0.1,0.1-0.2,0.2-0.2,0.4s1,1,1.2,1.2c-0.9,0.1-1.2-1-2-1.3c-0.6-0.2-1.3-0.1-1.7-0.1c-0.2,0-0.3-0.1-0.5,0
			c0.1,0.3,0.1,0.5,0.5,0.5c-0.3,0-0.8-0.1-0.8,0.3c0,0.7,2.1,0.7,2.1,1.9c0,1.1-0.9,0.7-1.7,1c-0.5,0.2-0.7,0.6-0.9,1.2v0.5h0.5
			c0.1-0.1,0.1-0.1,0.3-0.3h0.5c0,0.9,1,1.4,1.4,1.9h-0.6c-0.6-0.4-0.9-1.1-2-1.1c-0.3,0-0.8-0.2-0.8,0.4c0,0.7,0.7,0.8,1,1.1
			c-0.7,0.6-2.3,0-2.3,1.5c0,0.1,0.1,0.3,0.3,0.3s0.3-0.2,0.4-0.4c1.1,0.4,2,0.8,3,0.8c0.5,0,0.7-0.4,0.9-0.4h2.4
			c0.6,0,0.3,0.6,1,0.6s2.5-0.7,2.5-1.3c0-0.3-0.4-0.3-0.5-0.3h-0.8c0-1.3,1.3-0.6,1.3-1.8c0-0.2-0.2-0.3-0.2-0.6h1.6
			c0.5-0.5,0.8-1.4,1.4-1.7c-0.2-0.5-0.5-0.7-0.9-0.9c0.6,0.1,1,0.2,0.9-0.7H186c0.5-0.5,1.3-0.6,2-0.8c0.5-0.2,1.2,0.3,1.6-0.1
			c0.9-0.8,1.7-2.3,2.9-2.8c1.1-0.5,2.9-1,3.6-1.9c-0.8,0-2,0.3-2.4-0.1c1.7-1,3.2-0.3,4.5-1.4c0.2-0.2,0.8-0.1,0.8-0.6
			c0-0.7-1.7-0.5-2-0.9c-0.2-0.2-0.2-0.5-0.5-0.6c-0.2-0.1-0.3-0.2-0.6-0.3l-2.5,0.9c0.3-0.1,0.3-0.2,0.6-0.4
			c-0.6-0.8-3.3-0.6-4.1-0.6H189c-0.3,0-0.5-0.3-0.9-0.3s-0.6,0.6-1,0.6c-0.5,0-0.6-0.5-1.2-0.5c-0.2,0-0.3,0.1-0.4,0.3h-3.6
			c-0.3,0-0.6,0.1-0.7,0.5c-0.4,0.4-0.1,0.1-0.6,0.1c-0.9,0-1.3,0.8-1.6,1.7c-0.3-0.1-1.5-0.8-2.1-0.8c-0.7,0-0.3,0.8-1.3,0.8
			c0,0.2-0.1,0.3-0.3,0.3h-0.7c-0.9,0-3,0.4-3.2,1.4h0.7C172.2,25.8,172.4,25.7,172.6,25.6 M178.4,59.1c0,0.3,0.2,0.6,0.6,0.6
			C178.8,59.3,178.8,58.8,178.4,59.1 M183.6,63.7c0.3,0.3,0.4,0.3,0.7,0C184,63.5,184,63.2,183.6,63.7 M190.4,49.4
			c0.1-0.6-0.7-0.8-1-0.8h-0.8c-1,0-1.3-1.3-2-1.9c-0.4-0.3-1.8-0.6-2.4-0.6c-0.6,0-0.7,0.9-1.3,0.9c-0.3,0-0.4-0.4-0.7-0.4
			s-0.4,0.4-0.6,0.4c-0.2,0,0-0.6,0-0.8c0-0.8-0.4-2.2-1.3-2.2c-1.3,0-3.4,0.5-3.4,1.9c0,0.4,0.3,0.6,0.3,1c0,0.3-0.4,0.8-0.6,0.8
			c-0.4,0-0.3-0.3-0.3-0.6c0,0-0.1-0.4,0-0.7c-0.2,0-0.3-0.2-0.3-0.4c0-1.1,1-1.2,1.4-2l-1-0.4c-1.1,0-1.9,0.6-2.5,1.4
			c-0.1,0.2,0,0.8-0.2,1.1c-0.5,0.4-0.6,0.6-0.6,1.7c0,0.3,0.5,1,0.5,1s1.4,0.2,1.7,0.4v0.5c-0.5-0.1-1-0.3-1.4-0.1
			c0.1,0.5,0.5,0.6,0.7,1.1h1.5c0.2,0.3,0.7,0.8,0.9,0.8c1.4,0,3.8-0.1,4.8,0c0,0.3-0.2,0.9,0.3,0.9c0.6,0,1.1-1.4,1.5-1.4
			c0.3,0,2,1.7,2.3,2.1c-0.2,0-0.8,0.1-0.8,0.5c0,0.1,0.1,0.5,0.3,0.5c0.4,0,0.6-0.5,1-0.5c0.7,0,2.7,1.9,2.7,2.8
			c0,0.5-0.7,1.4-0.9,1.7c-0.2,0.3-0.8-0.1-0.8,0.6c0,0.3,0.4,0.7,0.6,0.8c-0.4,0.3-1.1,0.5-1.4,0.5h-1.4c-0.4,0-1.3,0.6-1.3,1
			c0,0.5,1,1.1,1.4,1.1s0.6-0.6,0.9-0.6c0.3,0,0.2,0.3,0.5,0.3s0.5-0.3,0.6-0.6c0.9,0.6,1.4,1.4,2.5,1.9c-0.5,1.2,1.4,1.2,2.1,1.7
			c0.8,0.6,1.4,0.3,2.3,0.9c0.1,0,0.2,0.5,0.3,0.5s0.3-0.2,0.3-0.5c0-1.1-1.8-1.8-2.3-2.6h0.5c0.3,0.5,2.4,1.4,2.9,1.5
			c0.1-0.4,0.5-1.1,0.5-1.5s-0.6-0.6-0.6-0.9c0-0.1,0-0.1,0-0.8h-0.5c-0.1-0.6-0.3-0.2-0.9-0.5c-0.3-0.1-0.6-0.9-0.7-1.4h-0.4v-0.6
			c0.1,0.1,0.3,0.1,0.5,0v-0.5c-0.3,0.1-0.3,0.1-0.6-0.1c0,0,0.4-0.4,0.6-0.4c1.5,0,1.6,2.6,3.1,2.6c0.3,0,0.4-0.6,0.4-1.1
			c0.6,0,0.7-0.3,0.7-0.5s0-0.1,0-0.5c0.4,0,0.9-0.2,0.9-0.6c0-0.6-0.3-0.9-0.9-0.9c-0.2,0-0.4,0-0.6-0.2c-0.3-0.7-0.4-0.2-1.1-0.2
			c-0.5,0-0.6-0.6-0.7-1.3c-0.7-0.1-1.5-0.5-1.6-1.3c-0.4,0-0.6-0.1-0.9-0.3c0.3-0.6,0.5-0.6,1-0.9c-0.1-0.2-0.3-0.3-0.5-0.3
			c-0.3,0-0.4,0-0.9-0.1c0.3-0.5,0.7-0.4,1.1-0.5c-0.2-0.5-0.4-0.9-0.9-0.9h-0.5v-0.6C191.7,50.4,191.2,49.8,190.4,49.4 M183.6,52.9
			c-0.4,0-1.1,0.9-0.7,0.9C183.2,53.8,183.5,53.4,183.6,52.9 M188,55.7c-0.1-0.1-0.3-0.6-0.6-0.6c-0.1,0-0.4,0.3-0.4,0.4
			c0,0.2,0.2,0.3,0.4,0.3C187.7,55.8,187.6,55.8,188,55.7 M182.2,66.5c0.3,0,0.4-0.5,0.6-0.8c-0.3-0.5-1-0.4-1,0.3L182.2,66.5
			 M183,46.2c0.5,0,0.8-0.4,1.2-0.4c0.3,0,0.5,0.3,0.9,0.3c0.3,0,0.5-0.3,0.6-0.6c-0.6-0.3-1.3-1.2-2.1-1.2c-0.7,0-0.9-0.3-1.6-0.3
			c-0.3,0-0.5,0.2-0.5,0.6s0.3,0.6,0.6,0.8C181.8,46,182.3,46.2,183,46.2 M179.6,64.4c0,0.2-0.4,0.6-0.7,0.9v0.5
			c0.5-0.1,1.3-0.8,1.6-1.3C180.1,64.3,180.2,64.3,179.6,64.4 M186.6,56c0-1.2-2-1.5-2,0c0,0.4,0.3,0.8,0.8,0.8
			C185.9,56.8,186.6,56.5,186.6,56 M180.7,62.2c-0.2-0.2-0.1-0.4-0.2-0.7c-0.6-0.9-1.6-0.5-2.2-1.5c-0.1,0.1-0.2,0.2-0.3,0.3
			c-0.2-0.4-0.3-0.5-0.5-1.1c-0.9,0.1-1,1.6-1,2.3v0.6c0,0.2-0.2,0.3-0.3,0.5s-0.4,0.1-0.5,0.8c0.3,0,0.9-0.2,1.4,0
			c-0.1,0.4-0.2,0.8,0.2,0.8c0.2,0,0.2-0.1,0.3-0.3c0.4,0.2,1.5-0.6,1.5-1.4c0.2,0.1,1.2,0.9,1.2,0.9h0.9c0.4,0,0.7-0.2,1-0.4
			C181.7,62.5,181.2,62.7,180.7,62.2 M169.1,29.7c-0.3,0-0.8-0.2-0.9-0.4h-0.5c0.1,1.1,0.8,1.2,1.8,1.2c-0.2,0.3-0.4,0.3-0.7,0.5
			c0,0.2,0,0.4,0.3,0.4s0.3-0.2,0.7-0.3c0.1,0.2,0.1,0.5,0.4,0.5c0.4,0,0.5-0.3,0.9-0.3c0.5,0,0.8,0.2,1.3,0.3
			c-0.4,0.1-2.4,0-2.4,0.8c0,0.6,0.9,0.9,1.4,0.9c-0.1,0.1-0.2,0.2-0.4,0.3c0.1,0.5,0.8,0.7,1.3,0.7s0.8-0.2,0.8-0.9
			c0.3,0.2,0.9,0.7,1.1,0.7v-0.5h0.6c-0.1-0.3-0.2-0.4-0.4-0.8c0.2-0.2,0.2-0.4,0.4-0.6c0.1,0.4,0.1,0.8,0.5,0.8s0.9-1.1,1.5-1.2
			c0.3,0,0.6,0,0.7-0.2c0.1-0.2,0-0.3,0-0.6c-0.4,0-1.2-0.5-1.5-0.5c-0.1,0-0.5,0.3-0.5,0c0-0.2,0.2-0.3,0.2-0.6s-0.4-0.3-0.4-0.6
			c0-0.5,0-0.6-0.4-0.6h-0.3l0.2,0.3v0.5h-0.4c-0.3-0.3-0.1-0.8-0.6-1.1c-0.5-0.2-0.8,0.2-1.3-0.1c-0.5-0.2-0.4-1.3-1-1.6
			s-1.2-0.3-2-0.4c0,0.5,0.6,0.6,0.9,0.8h-0.5c-0.6-0.2-0.8,0.1-1.2,0.3c0,0,0.3,0.6,0.4,0.6c0.2,0,0.6-0.2,0.9,0
			c-0.1,0.1-0.2,0.4-0.3,0.4c-0.3,0-0.4-0.3-0.9-0.3c-0.3,0-0.7,0-0.7,0.4s1,0.7,1.4,0.8C169.4,29.4,169.3,29.7,169.1,29.7
			 M165.1,30.5h0.5v-0.8c-0.2,0-0.7,0-1.1,0C164.6,30.2,165,30.3,165.1,30.5 M166.7,34.3c-0.1,0-0.3,0.2-0.3,0.4
			c0,0.5,1.1,0.3,2.2,0c-0.1-0.4,0-0.7,0-0.9c0-0.8-1.1,0-1.1-0.9c-0.3,0-1-0.3-1.1-0.6c-0.3,0-0.7,0.2-0.7,0.6
			C165.7,33.6,166.3,33.8,166.7,34.3 M170,35.6v-0.5c-0.3,0.1-0.1,0-0.4,0c-0.6,0-1.7,0.1-2,0.5c0,0,1.8,0.4,2,0.4
			S170,35.8,170,35.6 M169.9,41.1c0-0.5-0.8-1.2-1.3-1.2c-0.7,0-0.6,0.9-0.9,0.9c-0.1,0-0.4,0.2-0.4,0.6c0,0,1.8,1,2.1,1
			C169.8,42.3,169.9,41.7,169.9,41.1 M174,41.8h0.4c-0.1,0.6,0.9,0.8,1.6,0.6h2.5c0.3-0.2,0.3-0.4,0.8-0.5c0.1,0.3,0.2,0.6,0.6,0.6
			c1.1,0,2.5,0,2.6-1.3c0,0-0.2,0-0.4,0c0-0.1,0.1-0.3,0.2-0.4c0.1,0,0.2,0,0.3-0.1c-0.4-1-1.3-1.1-2.5-1.1c-1.6,0-2.2,0.9-3.9,0.9
			c-0.8,0-1.4-0.2-2.2-0.5c-0.1,0.1-0.5,0.3-0.5-0.2c0-0.1,0.2-0.1,0.2-0.2c-0.4-0.4-1.2,0.1-1.4-0.9h1.3c-0.3-0.5-1.7-0.3-1.5-1.1
			h-0.6c-0.1,0.2-0.3,0.3-0.6,0.3c-1.1,0-1.3-1.3-2.7-1.3c-0.4,0-0.9,0-0.9,0.6c0,0.3,1.9,1.3,2.3,1.3c0.3,0,0.4-0.2,0.6-0.4
			c0.5,0.6,0.7,1.2,1.3,1.9c-0.1,0.1-0.4,0.3-0.4,0.6c0,0.8,1.6,1.7,2.3,1.7C173.4,42.5,173.8,42,174,41.8 M162.2,34.5
			c-0.1,0-0.9,0.6-0.3,0.6c0.5,0,0.9,0,1-0.3C162.6,34.7,162.5,34.5,162.2,34.5 M159.5,32.2c0,0.2-0.1,0.3-0.2,0.4
			c0.3,0.2,0.4,0,1.1,0c-0.1,0.1-0.1,0.3,0,0.5c-0.4,0.2-0.7,0.1-0.9,0.5c0.3,0.3,0.4,0.3,0.8,0.3c0.5,0,0.9-0.2,1,0.2
			c0.6-0.1,0.9,0.1,1.5,0.1c0.7,0,0.7,0.9,1.4,0.9c0.3,0,0.6-0.1,0.6-0.5s-0.6-0.7-0.9-1c0.1-0.1,0.2-0.3,0.3-0.4
			c-0.2-0.2-0.5-0.9-0.9-0.9c-0.2,0-0.3,0.3-0.5,0.3c-0.3,0-0.3-0.9-0.9-0.9c-0.3,0-0.4,0.3-0.6,0.3c-0.4,0-0.5-0.7-1.2-0.7
			c-0.4,0-0.6,0.2-1,0.3C159,32.1,159.1,32.2,159.5,32.2 M159.5,41.2c0.3,0,0.3,0,0.6,0c0.2,0,0.5,0,0.5-0.5c0-0.3-0.2-0.4-0.2-0.6
			C160,40.4,159.7,40.6,159.5,41.2 M159.7,36.6c0.2,0,0.4-0.2,0.4-0.5c-0.7-0.3-0.7-1.1-1.5-1.1C158.6,35.6,159.4,36.6,159.7,36.6
			 M169.6,43.1c-0.7,0-0.9,0.5-0.9,0.6s-0.1,0.3,0,0.4H168v0.6c0.2,0.8,0,1.2,0.5,1.8c0,0.2,0,0.6,0,1.1h0.6
			c0.4-0.5,0.6-0.6,0.7-1.2h-0.4c0.2-0.8,0.2-0.3,0.9-0.3c0.9,0,1.4-0.8,1.8-1.5c0,0,0.6-0.5,0.6-0.6c0-0.2,0-0.3,0-0.5
			C171.6,43.6,170.7,43.1,169.6,43.1 M165.4,53.2c-0.1,0-0.7-0.1-0.7,0.2c0,0.1,2.3,1.1,2.7,1.1c0.3,0,0.5-0.4,0.8-0.6
			c-0.2-0.5-1.5-1.9-2-1.9C165.6,52,165.7,53.1,165.4,53.2 M160.5,37.7h-0.4c0,0.2,0,0.3,0.1,0.4V38v0.7c0.3,0.2,0.5,0.5,0.8,0.4
			l0.1,0.4h0.5c0,0.2,0.2,0.5,0.4,0.5c0.6,0,1.7-0.4,2.3-0.4c0.1,0,0.3,0,0.4,0.1c-0.2,0.2-0.8,0.2-0.8,0.6c0,0.1,0,0.3,0,0.4
			c-0.1,0.1-0.2,0.2-0.2,0.4c0,0.3,0.8,0.2,1,0.2c0.1,0,0.8,0,1.3-0.2c-0.1-1.1,0.3-1.5,0.3-2.4c0-0.6-0.1-0.9-0.6-0.9
			c-0.3,0-0.4,0.3-0.6,0.3c-0.6,0-0.9-0.4-1.4-0.4c-0.2,0-0.3-0.1-0.6,0c0.1,0.5,0.6,0.5,1.1,0.5V39c-0.8,0-1-0.8-1.7-0.8v0.5
			c0.1,0.2,0.4,0.5,0.6,0.6C161.9,39.7,161.4,37.7,160.5,37.7 M166.7,46.3c0-0.4,0.1,0,0.1-0.6c0-0.4-0.9-0.1-1.2,0
			c0.2-0.3,1-0.6,1-1.4c0-0.2-0.2-0.4-0.3-0.4H165c-0.7,0-1.4-0.1-1.9,0.5c0,0.1-0.2,0.2-0.2,0.3c0,0.5,0.6,0.4,1,0.5v1h-0.5
			c-0.5,0-1-0.5-1.4-0.5v0.6c0.9,1.1,1.9,0.9,2.8,2c0.2,0.2,0.3,0.6,0.7,0.6c0.3,0,0.3-0.5,0.6-0.6c1-0.5,1.1,0.1,1.3-2
			C167.2,46.5,166.8,46.4,166.7,46.3 M151,35.5c0.2,0,0.3-0.2,0.4-0.5c-0.2-0.1-1.1-1.1-1.1-0.1C150.4,35.1,150.8,35.5,151,35.5
			 M154.5,34.3c-0.7,0-2.6,0.1-2.6,0.9c0,0.3,0.5,1,1,1c0.7,0,1.7-0.3,1.7-1.1h-0.9c0.5,0,1-0.1,1.4-0.5
			C155,34.5,154.8,34.3,154.5,34.3 M153.2,34.1h1.4c0.4,0,0.6-0.2,0.8-0.4c-0.1-0.5-0.7-0.9-1.3-0.9c-0.4,0-2.3,0.8-2.3,1.3
			c0.3,0,0.4-0.3,0.6-0.3C152.8,33.8,152.9,34.1,153.2,34.1 M144.3,39.1c0.3,0,0.5,0.2,0.9,0c0.1,0.2,0.3,0.6,0.5,0.6
			c0.3,0,0.6-0.4,0.7-0.8c0.5,0.1,1-0.5,1.1-1.2c0.3,0.2,0.3,1.1,0.8,1.1l1.4-1.2c0-0.3-0.2-0.4-0.3-0.8c0.2-0.1,0.4-0.3,0.4-0.6
			c0-0.7-1.9-0.1-1.9-0.1c-0.3,0-0.3-0.1-0.6-0.1c-0.9,0-1,1-1.6,1.4c-0.5,0.4-1,0.5-1.5,0.8c-0.1,0.1-0.7,0.6-0.7,0.7
			s0.3,0.3,0.3,0.6C144,39.3,144.1,39.1,144.3,39.1 M151,37.7h0.7v-0.5h-1.1C150.6,37.5,150.8,37.7,151,37.7 M146.6,39.9
			c0,0.3,0.3,0.5,0.5,0.5c0.4,0,0.9-0.8,0.9-1.3C147.7,39,146.6,39.3,146.6,39.9 M150.4,39.2c0.2,0,0.4,0.1,0.5,0.1
			C150.7,39.3,150.5,39.3,150.4,39.2 M149.8,38.1c0.6-0.1,0.8,0,1,0c0.1,0,0.5,0.1,0.5,0.6h0.7c0.9,0,1.6,1.4,3,1.4
			c0.4,0,0.6-0.2,0.7-0.5c-0.3,0-0.5,0-0.6-0.1c0-0.1,0.2-0.2,0.3-0.2v-0.5c-0.2,0-0.8-0.2-0.8-0.6c0-0.6,0.8-0.9,1.1-1.2
			c0.2,0.2,0.4,0.3,0.6,0.3c0,0.3,0,0.4,0,0.5c0,0.6,0.6,1.4,1.2,1.4c0.3,0,0.4-0.5,0.8-0.5c0.4,0,0.7,0.5,0.7,0.9
			c0,0.5-0.8,1.7-1,1.8c-0.2,0.1-2-0.2-2-0.1s-2,0.6-2.1,0.6c-0.6,0.3-1.3,0.6-2,0.6c-0.4,0-0.9-0.3-0.9-0.6c0-0.6,0.5-0.5,0.9-0.5
			c-0.2-0.3-0.5-0.5-0.5-0.9c-0.2,0-0.3,0.3-0.3,0.5c-0.5,0.1-0.9,0.3-1.3,0.3c-0.4,0-0.9-0.3-1.1-0.3c-0.3,0-0.5-0.3-0.5-0.6
			c0-0.4,0.1-0.3,0-0.6c0.3-0.1,0.5-0.4,0.8-0.4c0.1,0,0.2,0,0.3,0c-0.1-0.1-0.2-0.1-0.3-0.2v-0.6c0.3,0,0.5,0,0.5,0s0.1,0,0.2,0
			c-0.1,0-0.2-0.1-0.3-0.2c0.1-0.2,0.4-0.4,0.6-0.4h0.1C149.9,38.4,149.8,38.3,149.8,38.1 M142.3,48.4c0.1,0.2,0.3,0.8,0.5,0.8
			s0.3,0.4,0.5,0.4c0.3,0,2.4-0.9,2.4-1.2c0-0.9,1.4-2.5,2.4-2.8c0.3-0.1,2-0.4,2-0.8c0-0.9-1.5-1.6-2.2-1.6c-0.4,0-0.8,0.5-1.1,0.1
			c-0.7-0.1-1-0.5-1.7-0.8c-0.6-0.2-0.9,0.3-1.3,0.3c-0.8,0-1.1-0.4-1.9,0c0,0.4,0.5,1,0.5,1.3c0,1.4-1.6,2.4-1.6,3.7
			C140.8,48.1,142.1,48,142.3,48.4 M162.2,52.1c0.6,0,0.7,0.1,1.3-0.3c-0.6-0.6-3.2-1.4-3.2-2.6c0-1-0.9-1.9-0.9-3.2
			c0-0.3,0.7-0.7,0.7-1.2c0-0.6-0.5-0.8-1.1-0.8c-0.5,0-0.9,0.3-0.9,0.6c0,0.1,0,0.3,0,0.4c-0.5,0.3-0.3,0-0.9,0
			c-0.3,0-0.6,0.2-0.6,0.5s0.5,2.1,0.7,2.6c-0.2,0.1-0.2,0.3-0.4,0.3c-0.6,0-0.3-0.9-0.5-1.4c-0.2-0.4-0.6-0.9-1-1.1h-0.7
			c0.1,0.2,0.1,0.3,0.2,0.7c-0.3,0.1-0.6,0.2-0.9,0.3c-0.2-0.7-0.5-1.1-1.4-1.1c-0.5,0-0.7,0.5-1,0.7c-0.1-0.2-0.1-1.3-0.5-1.3
			c-1.1,0-4,1.4-4,3.2c0,0.2,0.6,0.8,0.9,0.8c0.4,0,0.6-0.1,1.1,0c-0.3,0.3-1.3,0-1.3,0.8c0,1.1,1.7,0.7,2.4,0.7h1.7
			c0.3,0,0.6,0.2,0.8,0.4c-0.4,0-0.6,0.1-1,0.1c-1.3,0-2.3,0.2-3.1,0.9c0.2,0.5,0.8,1.3,1.5,1.3c0.4,0,1.4-0.1,1.7,0.2
			c0.4,0.3,0,0.9,0.6,0.9h2.8c0.7-0.6,1.5-0.3,2.3-0.8c0.5-0.3,0.3-0.7,0.8-0.7c0.9,0,1.4,1.1,2.6,1.1c0.8,0,1.5,0,1.8-0.7
			c-0.1-0.1-0.3-0.2-0.3-0.5c-0.1,0-0.5,0-0.5-0.3C161.7,52.2,161.9,52.1,162.2,52.1 M133,73.8c-0.1,0-0.3,0.1-0.3,0
			c-0.2-0.6,0-0.6,0-1.6c-0.4,0.3-0.2,0-0.7,0c-0.1,0-0.4,0.1-0.4,0.4c0,0.6,0.4,1.1,0.9,1.1c0,0.6,0.1,1.1,0.5,1.5
			C133.3,74.9,132.9,74.3,133,73.8 M135.3,77.6c0.2,0,0.3-0.1,0.3-0.4c0-0.8-0.9-0.9-0.8-2C134.1,75,134,75,134,76
			c0.4-0.3,0.2-0.1,0.7,0c-0.1,0.2,0,0.5,0,0.8C134.6,76.8,135,77.6,135.3,77.6 M188.6,120.2v-0.3c-0.1,0.2-0.4,0.4-0.6,0.3v0.2h0.1
			C188.2,120.4,188.4,120.4,188.6,120.2 M184.7,114.2c0,0.1,0.1,0.3,0.2,0.3L184.7,114.2z M183.8,113.7c-0.2,0-0.4,0.2-0.4,0.3
			c0.2,0,0.5,0,0.8,0C184.1,113.9,184,113.7,183.8,113.7 M183.8,115.9c0,0.3,0,0.7,0.3,0.7c0.1,0,0.2-0.1,0.2-0.2
			c0-0.3-0.1-0.5-0.3-0.5C183.9,115.9,183.8,115.9,183.8,115.9 M136.4,75c-0.1-0.1-0.4-0.1-0.5-0.2C136,74.9,136.2,74.9,136.4,75
			 M135.7,74.7l0.1,0.1C135.8,74.7,135.8,74.7,135.7,74.7c-0.3-0.4-0.5-1-0.6-1.4c-0.1-0.3-0.3-0.4-0.4-0.5c0.1,0.1,0.3,0.2,0.4,0.5
			C135.2,73.7,135.4,74.2,135.7,74.7 M134,71.5c-0.5-0.7-0.9-1.1-1.5-1.9C133.1,70.4,133.5,70.9,134,71.5 M131.6,70
			c-0.2,0.3-0.3,0.7-0.6,0.7s-0.5-0.2-0.8-0.4c0.2,0.2,0.5,0.4,0.8,0.4C131.3,70.8,131.4,70.3,131.6,70 M173.7,86.9
			c-0.3,0-1.6,1.1-2.4,2.2h0.5c0.2-0.1,0.3-0.2,0.6-0.3c0.1,0.3,0.2,0.4,0.5,0.4c0.5,0,0.6-0.5,0.9-0.5c0.3,0,0.9-0.7,1.4-0.8
			c0,0.5-0.2,0.6-0.3,0.9h0.6c0,0.3,0.3,0.5,0.5,0.5c0.4,0,0.5-0.4,0.9-0.4c0.8,0,1.1,0.5,1.8,0.5v0.5c-0.5,0.2-1.2,0-1.4,0
			c-0.7,0-2,1.1-2,1.8c0.3-0.2,0.4-0.5,0.8-0.5c-0.5,0.8-0.8,2.8-0.8,3.7c0,0.4,0.4,0.8,0.7,0.8c0.5,0,0.6-1.1,0.6-1.6v-1.2
			c0-0.5,0-1.6,0.3-1.6c1.1-0.1,0.6-1,1.1-1c0.3,0,1.4,0.7,1.4,1.1c0,0.5-0.3,0.9-0.3,1.4c0.4,0,0.3-0.2,0.6-0.3
			c0.1,0.6,0.1,0.9,0.4,1.2l0,0c0.4,0,0.7-1.8,0.9-2.4c0.1,0.2,0.5,0.6,0.9,0.6c0.2,0,0.3-0.2,0.3-0.5c0-0.6-0.5-0.9-0.9-1.2h-0.8
			c-0.8-0.6-1.8-0.4-2.5-1.3c-0.3-0.3-0.1-0.7-0.3-1.1c-0.1-0.2-1.4-1.4-1.6-1.4h-0.3c0,0.1,0,0.4,0,0.5c-0.1-0.2-0.4-0.8-0.8-0.8
			c-0.3,0-0.2,0.6-0.5,0.8C174.3,86.9,174,86.9,173.7,86.9 M181.5,94.6c-0.4,0-0.9,0-1.2,0.3c-0.1,0.2-0.2,0.4-0.4,0.4
			s-0.4-0.3-0.5-0.5c0,0.4,0.1,0.9,0.4,0.9c0.6,0,1.7-0.6,2.4-1C182.1,94.9,181.9,94.6,181.5,94.6 M182.3,94.8
			c0.2-0.1,0.4-0.2,0.5-0.3l0,0C182.7,94.6,182.5,94.7,182.3,94.8 M182.4,93.5c0,0.1,0.1,0.2,0.2,0.3
			C182.5,93.7,182.5,93.6,182.4,93.5c0.3,0.1,0.3,0,0.4,0c0.9,0,2.9,0.4,2.9-1.1c0,0,0,0,0.1-0.1l-0.1,0.1c-0.8,0-2.3,0.5-3,0.7
			C182.7,93.2,182.4,93.3,182.4,93.5 M223.1,150.7c0,2.8-1.3,3.5-2.1,5.1c-0.2,0.3-0.3,0.4-0.5,0.8c-0.3,0.6-0.7,0.6-1,1
			c-0.5,0.6,0,1.8,0,2.7c0,0.7-0.2,1.3-0.2,1.8c0,0.2-0.1,0.3-0.2,0.4c-0.1,0.2-0.4,0.6-0.4,0.9c0,0.4-0.1,1.1-0.2,1.3
			c-0.5,0.9-0.6,1.2-1.1,2c-0.1,0.2-0.1,0.7-0.2,0.8c-0.2,0.5-0.9,1-1.4,1c-0.6,0-1.1,0-1.5,0.2c-0.2,0.1-0.2,0.3-0.3,0.4
			c-0.8,0.9-1.5,0.4-2.1,1.4c-0.3,0.5-0.7,0.5-0.9,0.8c-0.4,0.5-0.3,1-0.3,1.7v1.8c-0.6,0.4-0.9,1-1.3,1.8l0,0
			c-0.2,0.5-0.2,0.8-0.4,1.2c-0.6,1-1.2,1.1-1.7,2.1c-0.6,1.1-0.9,3-2.3,3c-0.5,0-1.2-0.4-1.4-0.4c-0.4,0-0.8-0.5-1.3-0.5
			c-0.1,0-0.3,0.1-0.3,0.2c0,0.3,0.5,0.5,0.6,0.6c0.3,0.3,0.3,0.7,0.4,1.2c0.1,0.4,0.6,0.4,0.6,0.8c0,0.5,0,0.7-0.2,1
			c-0.3,0.5-0.5,0.8-0.8,1.2c-0.5,0.6-1.2,0.5-2,0.8c-0.5,0.2-1.5-0.2-1.8,0.1c-0.4,0.5-0.1,1.6-0.3,2.1v0.4c0,0.2-0.5,0.5-0.7,0.5
			c-0.7,0-0.8-0.5-1.4-0.5c-0.2,0-0.3,0.3-0.3,0.5c0,0.5,0.4,1.5,0.7,1.5c0.2,0,0.3-0.2,0.4-0.3c0.1,0.1,0.3,0.2,0.3,0.4
			s-0.3,0.5-0.3,0.5c-0.4,0-0.5-0.3-0.8-0.3c0,0.4,0.2,0.5,0.3,0.6c-0.6,0.7-0.6,1.4-0.8,2.3c-0.1,0.4-0.6,0.5-0.9,0.5
			c-0.5,0.2-0.9,0.7-0.9,1.3c0,1.5,1.4,0.9,1.4,2.1c0,1.1-0.8,1.2-1.2,1.7c-0.3,0.3-0.2,0.8-0.3,1.3c-0.2,0.5-0.7,0.3-1,0.6
			c-0.4,0.5-0.5,1-0.5,1.7c0,0.4,0.3,0.8,0.5,0.9c0.6,0.4,0.5,2.1,0.9,2.6c0.7,0.8,1.5,1.2,2.4,1.7c-0.1,0.2-0.3,0.1-0.5,0.1
			c-0.5,0-1.3,0.7-1.5,0.7H194c-0.1,0-0.2,0.2-0.3,0.2h-0.9c-0.7,0-0.5-1-1-1.2s-1.2-0.2-1.2-0.9H190c-0.3,0-0.3-0.3-0.3-0.5
			c-0.9,0-1.1-0.5-1.5-1c-0.1-0.1-0.3-0.3-0.3-0.4c0-0.3,0.6-0.3,0.6-0.6c-0.1,0-0.2-0.1-0.3-0.2c0.1-0.2,0.2-0.4,0.2-0.6
			c0-0.9-0.9-0.8-0.9-1.6v-0.5c0-0.8-0.5-2.2-0.5-2.8c0-0.7,0.7-0.9,0.7-1.5c0-0.3-0.4-0.9-0.4-1.3v-0.4l0,0c0-0.2,0.1-0.4,0.3-0.4
			c0.6,0,0.3,0.7,0.8,0.7l1-5.6v-0.6c-0.1,0-0.2,0-0.3,0c-0.2,0.1-0.3,0.4-0.5,0.4c-0.3,0-0.4-0.9-0.4-1.3c0-0.7,0.2-1,0.3-1.7
			c0.2,0,0.3-0.1,0.3-0.2c0-0.2-0.2-0.4-0.2-0.4c-0.1,0-0.2-1.1-0.2-1.3c0-0.9,0.4-1.7,0.7-2.3c0.1-0.3,0.2-0.8,0.3-1.1
			c0.1-0.1,0.3-0.1,0.3-0.3c0.2-0.9,0.2-1.5,0.4-2.4v-2.8c-0.2-0.7,0.2-1.2,0.2-1.8c0-1.4,0.7-2.4,0.7-3.7v-0.3
			c0-0.3,0.2-0.9,0.2-1.3v-1.7c0-0.5,0.3-1.6,0.3-2.2c0-0.4-0.2-2.6-0.3-3c-0.3-0.9-0.8-1.5-1.4-1.8c-0.5-0.3-0.8-0.2-1.2-0.6
			c-0.4-0.5-0.6-0.6-1-0.8c-0.9-0.3-1.3-0.9-1.9-1.6c-0.3-0.3-0.1-0.7-0.1-1.2c0-0.6-0.5-0.9-0.6-1.4c-0.3-0.9-0.9-1.6-1.1-2.4
			c-0.2-0.9-0.4-1.4-0.7-2.1c-0.1-0.2-0.3-0.2-0.4-0.3c-0.2-0.3-0.3-0.8-0.4-1.1c-0.1-0.2-0.3-0.1-0.5-0.3c-0.3-0.4-0.8-1.2-0.8-1.8
			c0-0.5,0.2-1,0.3-1.1c0.3-0.6,0.9-0.7,1-1.3c-0.3-0.2-0.2,0-0.5,0c-0.4,0-0.5-0.8-0.5-1.3c0-0.9,0.8-0.7,0.7-2.4
			c0.9,0,1.1-1,1.3-1.6c0.3-0.8,1.2-0.6,1.4-1.6c-0.2-0.1-0.3-0.3-0.3-0.4l0.1-0.3v-0.2c0-0.3-0.2-0.5-0.2-0.8c0-0.5,0.2-0.6,0.2-1
			c0-0.8-0.6-0.7-0.6-1.4c0-0.1,0-0.2,0.1-0.2H184c-0.1-0.1-0.4-0.2-0.4-0.3c0-0.2,0.1-0.2,0.2-0.4c-0.3-0.2-0.4-0.7-0.8-0.7
			c-0.2,0-1.1,0.8-1.1,1s0.2,0.3,0.3,0.3c-0.1,0.4-0.2,0.6-0.5,0.6c-0.5,0-0.8-0.7-1.1-1c-0.2-0.3-0.7,0-0.9,0
			c-0.1,0-0.2-0.1-0.2-0.2c-0.4-0.1-0.4-0.5-0.6-0.8c-0.1-0.2-1.2-1-1.2-1c-0.1,0.1-0.1,0.3,0,0.3h-0.3c-0.5-0.4-0.2-0.9-0.3-1.5
			c-0.1-0.4-0.3-0.5-0.4-0.6c-0.5-0.6-1-0.9-1.2-1.9h-0.2c-0.2,0-0.4,0.2-0.6,0.2c-0.6,0-0.9-0.4-1.3-0.6c-0.6-0.3-1-0.1-1.7-0.5
			c-1-0.6-1.1-1.4-2-1.9h-0.2c-0.3-0.2-0.4-0.3-0.7-0.3c-0.6,0-0.7,0.8-1.2,0.8c-0.3,0-0.5-0.3-0.6-0.3c-0.3-0.2-0.5-0.1-0.7-0.1
			c-0.4,0-1.5-0.9-1.8-1.1c-0.3-0.2-0.6,0-0.9-0.1c-0.4-0.1-0.5-0.6-1-0.9c-0.4-0.2-0.6-0.2-1-0.4c-0.2-0.1-0.3-0.2-0.3-0.3
			c-0.4-0.5-1.4-0.7-1.4-1.2c-0.3,0-0.5-0.4-0.5-0.8c0-0.4,0.3-0.6,0.3-1.1s-0.3-0.6-0.3-0.9c-0.4-1.4-1.4-2.5-2.1-3.3
			c-0.3-0.4-0.8-0.5-1.1-0.9c-0.3-0.3,0-0.7-0.2-1.1c-0.3-0.7-1.3-0.8-1.3-1.7c-0.3-0.1-0.3-0.1-0.3,0c-0.4-0.5-0.7-0.9-1.1-1.3
			c-0.3-0.3-0.2-1-0.5-1.3s-0.2-1.2-0.5-1.3c-0.5-0.3-1-0.3-1.5-0.8c-0.1,0.1-0.1,0.4-0.1,0.5c0,0.8,0.3,1.3,0.6,1.9
			c0.2,0.6,0.6,0.6,0.9,0.9c0.4,0.5,0.5,0.9,0.7,1.5c0.2,0.9,0.9,1.3,1.1,2.1c0.3,0.9,0.4,1.9,1,2.3c0.3-0.3,0.6,0.3,0.6,0.6
			c0,0.2-0.1,0.6-0.2,0.6c-0.1,0-0.5-0.6-0.5-0.8c-0.6,0-0.9-0.9-1.2-1.2c-0.2-0.2-0.2-0.2-0.3-0.3v-1c-0.3-0.4-0.6-0.8-0.9-1.2
			c-0.4-0.5-1.1-0.4-1.4-1c0.2,0,0.9,0.1,0.6-0.3c-0.5-0.8-1-1.6-1.5-2c-0.4-0.3-0.4-1.3-0.5-1.8c-0.3-0.7-0.6-0.9-0.8-1.8v-0.3h0.1
			c-0.5-1.1-2.1-1.9-3.2-2.5c-0.3-0.1-0.2-0.5-0.3-0.8c-0.4-1.3-1.3-1.8-1.2-3.3c-0.7-0.1-1.4-1.8-1.9-2.9c-0.2-0.3,0.1-0.6,0.3-0.7
			c-0.3-0.8,0-2.2-0.3-3.2c-0.3-0.9,0.5-3.1,0.5-4.2c0-0.8-0.8-1.2-0.8-2c0-0.2,0.3-0.3,0.5-0.3c0.5,0,0.8,0.3,0.9,0.6
			c0.2-0.2,0.4-0.7,0.4-1c0-0.4-0.3-0.5-0.4-0.9l0,0c-0.1-0.1-0.3-0.2-0.3-0.2c-0.3-0.4-1.1-0.5-1.2-0.8c-0.3-1-1.4-0.5-1.5-1.2
			c-1.1,0-1.1-1-1.4-1.9c0-0.1-0.9-0.7-0.9-0.7c-0.4-0.3,0-0.8-0.3-1.1c-0.2-0.2-0.4-0.2-0.7-0.3c-0.4-0.2-0.3-1.2-0.3-1.7
			c0-0.2-0.2-0.3-0.2-0.5c0-0.3,0.4-0.3,0.4-0.8c0-0.7-0.4-0.9-0.7-1.2c0.3,0.3,0.7,0.5,0.7,1.2c0,0.4-0.4,0.5-0.4,0.8
			c-0.2,0-0.2,0-0.3,0c-0.5,0-1.3-0.7-1.3-1.1v-0.6c0-0.6-0.4-0.6-0.9-0.6c-0.4,0-0.6-0.3-0.6-0.6c0-0.3,0.5-0.3,0.5-0.6v-0.5
			c-0.6,0-0.4,0.5-0.9,0.5c-0.1,0-0.5-0.3-0.5-0.6c0-0.5,0.2-0.6,0.3-0.8c-0.2-0.2-0.4-0.5-0.6-0.3c-0.5,0-0.7-0.3-0.9-0.6
			c-0.1,0.3-0.2,0.7-0.5,0.7c-0.7,0-1.1-1.1-1.5-1.4c-0.8-0.7-1.9-0.7-2.8-1.3H125c-1-0.4-2.4-0.6-3-1.9c-0.4,0.2-1,0.4-1.3,0.6
			c0.1,0.3,0.2,0.4,0.3,0.5c-0.4,0.8-2.4,2.1-3.2,2.1c-0.1,0-0.3-0.1-0.3-0.3c0-0.2,0.2-0.3,0.3-0.3c-0.2-0.3,0-0.3,0-0.5
			c0-0.8,0.5-1.5,1.4-1.8c0-0.1,0-0.3,0-0.4H119c-0.8,0-2.8,2.1-2.8,3.3V71c0,0.9-0.7,1.2-1.4,1.5c-0.4,0.2-0.5,0.6-0.8,0.9
			c-0.5,0.7-1.5,1.1-2,1.7s-1.6,1-2.5,1.1c-1.1,0.2-1.8,1.8-3.1,1.4c0.4-0.7,1-0.4,1.5-0.8c0.4-0.3,0.7-1,1-1.2
			c0.5-0.4,1.1,0,1.5-0.6c0.5-0.8,1.8-1.5,2.5-2.1s0.7-1.7,1.5-2.3h-0.5c-0.5,0.2-0.7,0.5-1.2,0.5c-0.4,0-0.5-0.2-0.9-0.3
			c-0.1,0.3-0.2,0.4-0.2,0.7c-0.8-0.3-1-0.6-1.5-1.1c-0.1,0.2,0,0.4,0,0.6h-0.4c-0.2,0-0.3,0.3-0.5,0.3s-0.3-0.6-0.3-0.9v-0.8
			c0-0.1,0-0.6-0.3-0.6s-0.5,0.6-0.6,0.6c-0.4,0-1.9-1.4-2.1-1.7c0.2,0,0.3-0.1,0.5-0.1c-0.3-0.8-1.3-1-1.3-1.6
			c0-1.1,1.7-2.1,2.4-2.1c0.3,0,2.4-1,2.4-1.5c0-0.3-0.5-0.8-0.5-0.9c0.3-0.2,0.3-0.2,0.5,0v-0.6c-0.3,0-0.3,0-0.5,0
			c-0.5,0-0.7,0.6-1.4,0.6c-0.6,0-0.9-0.4-1.3-0.3H105c0-0.6-0.4-0.7-0.4-1.1c0-0.1,0.1-0.3,0.1-0.4c-0.5,0-0.8-0.2-0.9-0.6
			c0.8-0.6,2.1-1.1,2.8-1.7h0.6c0,1.2,0.5,0.9,1.2,0.9c0.4,0,0.5,0.1,0.9,0c-0.3-1.2-1-1.3-1.9-1.8c-0.3-0.1-0.6-1.3-0.9-1.5
			c-0.4-0.3-1.7-0.6-1.7-0.8c0,0,0.4-0.9,0.5-1.1h1.7c0.9-1.5,2.4-2.9,4-3.6c0.4-0.1,0.7,0.1,1.2-0.1s0.8-1.1,1.4-1.1
			c0.4,0,0.6,0.4,1,0.6c-0.2,0.2-0.2,0.3-0.3,0.5c0.3,0.1,0.6-0.2,0.8-0.5c0.3,0.2,0.4,0.3,0.7,0.4h1.6c0.4,0.3,0.5,0.5,0.9,0.8h2.4
			c0.6,0.8,2.6,0.9,3.6,0.9c0.6,0,0.9-0.3,1.5-0.3c0.9,0,1.2,0.5,2,0.8l0,0c0.3,0.1,0.2,0.2,0.4,0c0,0.1,0.4,0.5,0.4,0.5
			c1.3,0.9,2.7,1.1,3.5,1.1c0.3,0-1.1-0.9,0.9-1c0.3,0,0.2-1.2,1-0.3c0.3,0.3,1.1-0.4,1.4-0.5c0.9-0.4,1.2-0.5,2.2-0.8
			c0.1,0.3,0.3,0.5,0.6,0.5c0.7,0,0.4-1.1,1.1-1.1c0.2,0,1,1.7,1.6,1.7s0.6-0.8,1.2-1c0.1,0.3,0.4,1,0.8,1c0.5,0,0.8-0.5,1.4-0.5
			c1.9,0,2.9,1.9,4.8,1.7c1.8-0.2,1.6-0.4,2.5,1.1c-0.2,0.2-1.2,0.1-1.2,0.4c0,0.1,0,0.7,1.2,0.6c0.7,0,1.1-0.3,1.7-0.3h2l0.5,0.3
			c0.5,0.3,0.7,1.2,1.3,1.2c0.2,0-0.2-0.9-0.2-1.1c0-1.3,1.6-0.3,1.5-1.5c-0.4,0.3-1.2,0.6-1.7,0.6c-0.3,0-0.4-0.1-0.4-0.4
			c0-0.8,1.9-0.9,2.5-1.1c0.4,1.5,2.4,2.3,4.1,2.3c1.8,0,2.1-0.1,2.7,0c0-0.8,0.2-1.2,0.8-1.2c0.5,0,1.3,0.3,1.4,0.5
			c0.3,0.4-0.6,1.7,0.5,1.3c0-1.8,2.1-1.1,1.7-2.6c-0.3,0.2-0.4,0.2-0.7,0.4c0,0,0.3-0.9,0.3-1.1c0-1.3-2.1-0.5-2.1-1.8
			c0-0.5,0.4-0.5,0.4-0.9s-0.3-0.6-0.3-0.9c0-0.6,0.5-0.5,0.9-0.6c0-0.4-0.3-0.8,0.3-0.8c1.2,0,1.9,0.8,2,2c0,0.6,0.9,0.5,0.9,1.2
			c0,0.5-0.6,0.8-0.8,0.9c0.4,0.6,1.1,0.2,1.6,0.6c-0.2,0.2-0.2,0.3-0.3,0.5c0.7,0.4,0.7,0.8,0.7,1.5c1,0,0.3-1.6,1.3-1.6
			c0.3,0,1.2,1.1,1.2,1.3c0,0.6-0.5,0.5-0.5,0.9s0.9,2.2,1.6,1.1c0.5-0.7,0.4-1.2,0.6-1.8c0.2-0.4,0.9-0.4,0.9-0.8
			c0-0.3-0.5-0.5-0.5-1s0.4-0.8,0.8-0.8c0.3,0,0.5,0.2,0.8,0.3c1.3,0,1,0.9,2,0.9c0,0.6,0.1,0.6,0,0.9c-1,0.6-0.6,1.2-0.6,1.4
			c0,0.2,0.7,0.6,0.7,0.9c0,0.5-1.6,2.2-1.8,1.8c-0.4-0.7-0.5,0-0.4,0.2c-0.6,0-0.8,0.3-1,0.3c-0.4,0-0.7-0.8-1.4-0.8
			c-0.3,0,0.2,0.7,0.2,0.8c0,0.5-0.9,1.2-1.4,1.2c-0.6,0-1-0.6-1.4-0.9h-0.6c0.5,1.1,1.5,0.9,2.6,1.2v0.6c-0.5,0.5-0.9,1.4-1.7,1.4
			h-0.7c-0.4,0,0,1.1-0.6,0.8c-2.6-0.9-1.6-0.2-1.9-0.3c0.4,0.3,1.6,0.3,1.6,0.9c0,0.9-0.9,0.5-1.5,0.8c-0.3,0.1-0.8,1.6-1,1.9
			c-0.7,0.9-1.1,1.8-1.1,3.3c0,1.1,0.1,1.2,0,1.7c0.3-0.1,0.5-0.4,0.8-0.4c0.7,0,1.2,2.1,1.2,3c0.5,0,0.7-0.6,1.2-0.6
			c0.4,0,1.2,0.6,1.4,0.8c1.4,0.6,2.7,1.2,3.9,2.3h2c0.9,0.7,0.7,1.6,0.7,2.8c0,1.1,1.1,2.3,1.9,3c0.3,0.3,0.6-0.5,0.9-0.5
			c0-0.4,0.4-0.7,0.6-0.9c-0.4-0.6,0-2.7-1.1-3.4c0.6-0.2,2.5-1.9,2.5-2.5c0-2.5-1.1-3-1.8-4.5c0.4-0.2,1.3-0.5,1.2-1.6
			c-0.1-0.6-1-1.4-0.6-1.7c1-0.8-0.1-1.3-0.1-1.7c0-0.7,0.5-0.9,0.9-0.9c0.9,0,1.4,0.6,2.4,0.6c0.5,0,0.5-0.4,0.9-0.4
			c0.9,0,1.1,1.3,2,1.4c0,1.4,1.7,0.6,1.8,1.7c0.1,0.8,0.3,2.6,0.8,2.6c0.4,0,0.5,0.8,1,0.8c0.8,0,1.8-1.4,1.8-2
			c0-0.5,0.5-0.9,0.7-1.1c0.1,0.2,0.4,0.5,0.5,0.5c0.1,1,1.4,1.2,1.1,2.1c-0.3,0.7,0.8,1.5,1,1.6c-0.1,0.4,0.2,0.7,0.2,1.1
			c0,0.5-0.3,0.6-0.5,0.7c0.4,0.4,0.8,0.9,1.5,0.9v0.1c0,1.3,1.6,1.7,2.4,1.6c0,0.2,0.3,0.2,0.3,0.4c-0.2,0.7-1.9,1-2.6,1.4
			c0,0.1,0.2,0.1,0.3,0.1c0.8,0,2.3-0.6,3-1.1v0.5c0.4,0.2,0,0.6,0.3,0.6c0.3,0.6,0.5,0.9,0.5,1.8c0,1.2-2.5,1.4-3,2.1
			c-0.9,1.4-1.8,0.8-3.4,0.8c-1.2,0-1.9-0.3-3.1,0.2c-0.7,0.3-0.3,0.6-0.8,1.1c-0.7,0.8-1.4,0.5-1.8,1.5c0.9-0.2,1.6-1.3,3-1.3
			c0.7,0,1.6-0.2,1.6,0.6c0,0.8-1.1,0.9-1.3,1.2c0.3,0,0.6,0.1,0.8,0.1c-0.1,0.4-0.3,0.7-0.3,0.9c0,0.9,1.4,2,2.4,2c0.2,0,1,0,1,0.4
			c0,0.3-2.2,1.3-2.3,1.3c-0.6,0.2-1.2,1.2-1.5,1.2c-0.2,0-0.6-0.6-0.6-0.9c0-0.8,1.1-1.4,1.9-1.5c-0.5,0-0.5,0-0.5-0.6
			c-0.5,0-0.5,0.5-0.8,0.8c-0.3,0.2-1.1,0.1-1.3,0.1c-0.1,0-0.3,0-0.3,0v0.1V90c0,0.1,0.1,0.2,0.1,0.3c-0.2,0.4-0.6,0.6-1,0.6
			s-0.4-0.2-0.7,0c-0.5,0.6-1.6,1-1.6,2.5c0,0.1,0,0.3,0.1,0.3c0,0.2,0.1,0.7,0.3,0.7c0.1,0,0.3-0.3,0.3-0.3v0.3
			c-0.4,0.1-0.9,0.3-1,0.1c-0.6,0.6-1.7,0.3-2.3,0.8h0.3c0.3,0,0.6-0.2,0.8,0c-0.4,0.2-0.8,0.2-1.2,0.2c-0.1,0-0.2,0-0.3,0
			s-0.2,0.2-0.2,0.3c0,0.2,0.3,0.5,0.3,0.5c-0.1,0.3-0.7,1.6-0.9,1.6c-0.1,0-0.2-0.2-0.2-0.3l-0.2,0.2c0.1,0.3,0.3,0.4,0.3,0.7
			c0,0.2-0.6,1.5-0.7,1.5c-0.1,0-0.1-0.1-0.1-0.2v-0.4c0-0.3-0.3-0.9-0.3-1.3c-0.1,0.2,0,0.5,0,0.5c0,0.3,0.2,0.9,0.2,1.3
			s-0.2,0.3,0,0.6h0.2v0.4c0,0.3-0.3,0.5-0.4,0.5c0.1,0.3,0.3,0.3,0.4,0.3c-0.1,0.4-0.2,0.4-0.5,0.4v0.3l0.4,0.3
			c-0.1,0.1-0.2,0.4-0.4,0.4c-0.4,0.1-0.5,0.4-0.8,0.5c-0.4,0.1-0.3,0.3-0.5,0.5l0.1,0.1c-1.5,1-3.4,1.7-3.4,4.5
			c0,1.2,0.9,1.6,0.9,2.8v0.2c0.1,0.4,0.4,0.8,0.4,1.5c0,0.8-0.2,1.5-0.7,1.5s-0.4-0.6-0.6-0.9c-0.4-0.6-0.7-0.8-0.9-1.4
			c-0.5-1.2-0.1-3.5-1.5-3.5c-0.3,0-0.4,0.5-0.7,0.5c-0.6,0-0.9-0.9-1.7-0.9c-0.4,0-0.5,0.3-0.8,0.3c-0.1,0-0.2-0.2-0.2-0.3
			c-0.5,0.2-1.2,0.1-1.7,0.3c0.3,0.1,0.3,0.1,0.4,0c0,0.6-0.3,0.9,0.1,1.2c-0.9,0.5-1.6-0.8-2.3-0.8c-0.2,0-0.3,0.3-0.5,0.3
			c-0.3,0-0.5-0.4-0.9-0.4c-0.9,0-1.4,0.9-1.7,1.4c-0.3,0.3-0.5,0-0.9,0.2c-0.7,0.3-1.1,1.3-1.1,2.5c0,0.1,0.2,0.3,0.2,0.4h-0.1v0.1
			c0.1,0.2,0.1,0.4,0.1,0.6c0,0.7-0.2,0.9-0.3,1.5v2.1c-0.1,0.3,0.2,0.6,0.3,0.8c0.1,0.3,0,0.6,0.1,0.9c0.1,0.3,0.5,0.8,0.8,1.1
			c0.6,0.7,0.6,1.3,1.4,1.6c0.3,0.1,0.3,0.5,0.5,0.5c0.6,0,1.1-0.5,1.7-0.5c0.3,0,0.5,0.2,0.6,0.2c0.3,0,0.4-0.4,0.4-0.6
			c0.1-0.5,0.7-0.9,0.7-1.5c0-1.1,1-1.5,1.9-1.5c0.3,0,0.5,0,0.6,0.1c0.1,0,0.5,0.1,0.7,0.1v0.3c0,0.5-0.5,1.2-0.5,1.9
			c0,0.6-0.2,0.9-0.4,1.2v-0.3H175v1.8c0,0.4-0.4,0.5-0.6,0.8v0.2c0,0.3,0.2,0.4,0.4,0.4c1,0,1.9-0.2,3-0.2c0.8,0,0.9,0.6,1.5,0.8
			v0.6c0,0.3,0,1.3-0.2,1.7v2.3c0,0.8,0.7,1.2,1.2,1.5c0.3,0.2,0.3,0.9,0.9,0.9c0.8,0,1.2-0.8,2-0.8c0.9,0,1.3,0.8,1.8,1.2
			c0,0-0.1,0.2-0.2,0.3c0.1-0.1,0.2-0.2,0.2-0.3c0.3,0.1,0.2,0.1,0.4,0v-0.2c0-0.1,0.1-0.2,0.2-0.2c0-0.4,0.3-0.5,0.5-0.6
			c0.2-0.2,0.2-0.6,0.3-0.9c0.2-0.6,0.4-0.7,0.8-0.9c0.8-0.3,1.3-0.5,2.1-0.8c0.4-0.2,0.5-0.7,0.9-0.7c0.2,0,0.3,0.4,0.3,0.5
			c0,0.3-0.2,0.5-0.3,0.5c-0.1,0.6-0.3,1.2-0.3,1.5c0,0.4,0.2,1.1,0.5,1.1c0.1,0,0.3-0.5,0.3-0.6c0-0.5-0.4-0.7-0.4-1.2
			c0-0.6,0.5-0.5,0.8-0.7h0.8c-0.1-0.4-0.6-0.3-0.6-0.7h0.6c0.1,0.6,0.8,0.8,1.3,0.9c0,0.4,0.2,0.6,0.4,0.7h1.7
			c0,0.3,0.4,0.4,0.6,0.4c0.5-0.1,0.8-0.1,1-0.5c0-0.1,0.7-0.1,0.8-0.2c0.3,0,0.9,0.1,0.9,0.1c-0.1,0.1-0.4,0.2-0.5,0.1v0.3
			c0.2,0.5,0.9,0.6,1.4,0.8c0.4,0.1,0.3,0.7,0.4,1.2h0.9c0.6,0.7,0.9,0.6,1.3,1.5c0.1,0.2,0.3,0.2,0.5,0.2c0.2,1.1,1.5,0.9,2.4,1.1
			h0.8c0.2,0.1,0.7,0.4,1,0.4v0.1h0.2c0.5,0,1.2,1.2,1.7,1.4c0,0.4,0.4,1.7,0.6,2.1c0.2,0.4,0.6,0.4,0.6,0.8
			c-0.5,0.8-1.4,1.1-1.4,2.3c0,0.4,0.3,0.3,0.4,0.4c0.3,0.2,0.5,0.5,0.5,0.9h0.8c0,0.1,0.1,0.4,0.2,0.4c0.1,0,0.3-0.3,0.3-0.4
			c0.3-0.6,0.7-1.4,1.2-1.4c0.6,0,1.7,0.7,2.1,1c0.3,0.2,0.5,0.1,0.6,0.4c0.1,0.3,0.1,0.6,0.1,0.9h0.2c0.3-0.1,0.4-0.4,0.7-0.4
			c0.7,0,0.8,0.6,1.4,0.6l1.2-0.2c0.6,0.2,1.1,0.4,1.5,0.6c0.3,0.6,1.3,1.6,1.8,1.8c0.4,0.1,0.7-0.1,1.2,0.1
			C223,149.1,223.1,149.9,223.1,150.7 M143.6,85.7L143.6,85.7L143.6,85.7z M188.1,194h0.3v-1.1c0-0.1,0.1-0.2,0.1-0.4
			c0-0.3-0.1-0.6-0.4-0.6c-0.2,0-0.4,1.1-0.4,1.1v0.5C187.7,193.6,187.9,194,188.1,194 M209.3,143.3c-0.4,0-0.6,0.4-0.6,0.9
			c0,0.3,0.8,1,1.3,1c0.4,0,0.9-0.9,0.9-1.2c0-0.1-0.1-0.3-0.2-0.3c-0.2,0-0.4,0.4-0.5-0.1c-0.2,0-0.5-0.2-0.7-0.3
			C209.5,143.3,209.4,143.3,209.3,143.3 M198.9,132.6c0,0.1,0.2,0,0.3,0c0.2,0,0.3-0.3,0.4-0.5v-0.3h-0.3
			C199.1,131.9,198.9,132.2,198.9,132.6 M187.5,123.2c0,0.2,0.2,0.6,0.4,0.6c0-0.1,0-0.2,0-0.3c0.2,0.1,0.2,0,0.4,0
			c0.4,0,1.1-0.1,1.4,0.1c0.2,0.1,0.1,0.5,0.4,0.5c0.3,0,0.3-0.7,0.7-0.7c0.2,0,0.1,0.2,0.3,0.2s0.3-0.2,0.6-0.3h1.2
			c-0.2-0.4-0.5-0.5-0.8-0.8l0.2,0.2c-0.6-0.3-0.8-1-1.8-1c-0.3,0-0.5,0.2-0.9,0.2c-0.3,0-0.5-0.3-0.8-0.3c-0.1,0-0.3,0.1-0.3,0.3
			s0.2,0.4,0.4,0.4c0,0.3,0,0.6,0.2,0.8c-0.4,0.2-0.7,0-1.4,0C187.6,123.1,187.6,123.2,187.5,123.2 M194,123.4
			c0,0.4,0.4,0.4,0.8,0.4c0.2,0,0.4,0,0.5-0.2c-0.1-0.2-0.9-0.4-0.9-0.4C194.3,123.1,194,123.2,194,123.4 M184.1,123.4
			c0,0.3,0.3,0.6,0.5,0.6c0.4,0,0.7-0.1,1-0.2c0-0.1-0.1-0.3-0.3-0.3l0.1,0.1c-0.2-0.1-0.6-0.3-1-0.3
			C184.3,123.2,184.1,123.3,184.1,123.4 M179.7,119.4v0.3c-0.1,0-0.3,0.1-0.3,0.3c0,0.1,0.4,0,0.4,0
			C179.9,119.8,179.8,119.6,179.7,119.4L179.7,119.4L179.7,119.4z M187.5,121.4c-0.2-0.1-0.4-0.6-0.7-0.8h-0.5c0-0.1,0-0.2,0-0.3
			c-0.7,0-1.5-0.4-2-0.9c-0.1-0.1-0.3-0.5-0.5-0.5c-1,0-1.7-0.9-3.1-0.9c-1.4,0-2.1,0.6-2.6,1.7h0.3c0.3-0.4,1.2-0.9,1.8-0.9
			c0.2,0,0.3,0,0.4,0.1c-0.1,0.1-0.1,0.3,0.1,0.4h0.9c0.4,0,0.7,0.6,1.1,0.6c0.3,0,0.4-0.1,0.7,0c0.1,0.1,0.1,0.3,0.3,0.3
			c0.1,0.6,0.6,0.5,1.1,0.8c0,0.2-0.2,0.3-0.3,0.3v0.2c0.6,0,1.1,0.3,1.8,0.3C186.6,121.8,187.2,121.8,187.5,121.4 M241.8,60.5
			L241.8,60.5c0.1-1.1-1.1-0.9-1.1-2c0-0.1,0.1-0.3,0.2-0.3c-0.3,0-0.5,0.2-0.8,0.2s-0.6,0-0.6-0.5c-0.1,0.1-0.1,0.1-0.3,0
			c-0.1,0.2-0.1,0.3-0.1,0.6c-0.3-0.3-0.7,0.1-1.1,0.1c-0.3,0-0.5-0.1-1-0.1c0,0.1,0,0.3,0,0.4c-0.1-0.1-0.2-0.2-0.4-0.3l-0.8,0.2
			c-0.2,0-0.3-0.2-0.4-0.3c-0.1,0.2-0.1,0.2,0,0.5c-0.2,0-0.3,0.2-0.6,0.2c-0.2,0-0.5-0.5-0.5-0.8c0-0.2-0.2-0.3-0.2-0.6h-0.3
			c-0.3,0-0.3,0.4-0.6,0.4v0.3c-0.2-0.1-0.4-0.2-0.6-0.1c0.1,0.4,1.2,0.8,1.6,0.8c0,0.1,0,0.2,0.1,0.3c-0.3,0.2-1.2,0.3-1.6,0.3
			c0.3,0.4,0.9,0,1.4,0.2c-0.1,0.4-0.2,0.6-0.2,1.1c-0.1,0-0.2,0.1-0.3,0.2c0.7,0,0.9,0.5,1.4,0.7c0.9,0.3,1.7,0.7,2.8,0.7
			s1.7-0.6,2.4-0.9C240.8,61.7,241.6,61.1,241.8,60.5"/>
	</g>
	<g>
		<defs>
			<rect id="SVGID_3_" x="4.7" y="3" width="548.4" height="209.5"/>
		</defs>
		<clipPath id="SVGID_4_">
			<use xlink:href="#SVGID_3_"  style="overflow:visible;"/>
		</clipPath>
		<path class="st1" d="M380.4,42.1c0-0.5-0.8-0.6-0.8,0c0,0.3,0,0.5,0.4,0.5C380.1,42.6,380.4,42.4,380.4,42.1 M387.9,40.8
			c0.5,0,1.4-0.1,1.4-0.6c0-0.2-0.1-0.4-0.3-0.4c-0.1,0-3.4-0.5-3.7-0.8l0.3,0.3C385.6,40.3,387.1,40.8,387.9,40.8 M381.7,44.1h0.9
			c0-0.9-0.7-1.5-1.5-1.5c-0.7,0-1.1,0.5-1.5,1.1l0.2-0.2C380.4,43.8,381.1,43.7,381.7,44.1 M317.8,44.4c-0.3-0.3-0.4-0.7-0.8-0.7
			c-0.3,0-0.5,0.4-0.5,0.8c0,0.1-0.1,0.4,0,0.4C316.9,44.8,317.6,44.6,317.8,44.4 M306.2,50.5c0,0.5,0.7,0.9,1.1,0.9
			c0,0,0.4,0.1,0.4-0.2C307.7,50.5,306.2,49.8,306.2,50.5 M297.1,52.1c-0.1,0-0.4,0.7-0.4,0.9c0,0.4,0.2,0.5,0.6,0.5
			c0.5,0,0.9-0.4,1.3-0.6v-0.5c-0.4-0.1-0.7-0.6-1.1-0.6C297.4,51.7,297.3,52.1,297.1,52.1 M301.9,129.6c0.3,0,0.5-0.3,0.6-0.5
			c-0.4,0-0.6,0.1-0.9,0.2C301.6,129.5,301.8,129.6,301.9,129.6 M284.7,102.5c-0.5,0.1-1.4,0.5-1.8,0.8c0,0.1,0.1,0.2,0.2,0.2
			c0,0.1,0.1,0.2,0.2,0.2c0.3,0,0.9-0.2,1-0.4c0-0.1,0-0.3,0.1-0.4C284.5,102.7,284.7,102.9,284.7,102.5 M277.3,103.2
			c-0.5-0.2-1.3-0.4-2-0.2c0.3,0.2,0.9,0.3,1.2,0.3C276.7,103.3,276.9,103.4,277.3,103.2 M273.7,71.5c0.1,0,0.5-0.3,0.5-0.4v-0.5
			c0.1,0,0.2-0.3,0.3-0.5c-0.1-0.1-0.2-0.2-0.3-0.4c0,0-0.3,0.2-0.3,0.4c0,0.2,0.1,0.3,0.2,0.5c-0.3,0-0.4,0.3-0.7,0.3
			C273.4,71.2,273.4,71.5,273.7,71.5 M270.8,71.7c-0.6,0-0.7,0.7-0.7,0.9c0,0.2-0.1,0.3,0,0.5c0.2-0.3,0.5-0.5,0.5-0.9
			C270.6,72,270.8,71.9,270.8,71.7 M264.1,76.7l-0.1-0.2c0,0-0.1,0.1-0.2,0.2c0,0,0.2,0.2,0.4,0.2c0.7,0,0.4-1.3,1-1.5
			c-0.2-0.6-0.2-1-0.8-1c-0.2,0-0.6,1-0.6,1.1c0,0.2,0.3,0.5,0.7,0.6C264.5,76.4,264.3,76.7,264.1,76.7 M263.7,76.3
			c0-0.4-0.2-0.3-0.2-0.8h-0.6v0.4c0,0.4,0.3,0.5,0.7,0.5v0.3C263.6,76.6,263.7,76.6,263.7,76.3 M257,97.7c0-0.1-0.2-0.3-0.2-0.4
			c-0.2,0-0.3,0.1-0.5,0.3c0,0,0.3,0.3,0.4,0.3S257,97.8,257,97.7 M261.7,96.9c0,0.3-0.2,0.4-0.2,0.8c0,0.3,0,0.8,0.3,0.8
			s0.8-0.5,0.8-1.1s0.1-0.9-0.2-1.5c-0.1,0-0.2-0.2-0.4-0.2c-0.3,0-0.3,0.4-0.7,0.5C261.4,96.4,261.7,96.6,261.7,96.9 M262.2,95.3
			c0.1-0.2,0.2-1.1,0.3-1.5c-0.1,0-0.1-0.2-0.1-0.4c-0.2,0-0.3,0.4-0.5,0.4c-0.1,0-0.2,0.1-0.2,0.1
			C261.8,94.2,261.9,95.3,262.2,95.3 M267.5,99.5c-0.5-0.1-0.7,0.3-1.1,0.3s-0.7-0.5-1.4-0.1v0.3c0.1,0.2,0.3,0.1,0.4,0.2
			c0.5,0.2,0.9,0.8,1.4,1c0,0.1,0.2,0.2,0.3,0.2s0.2-0.2,0.2-0.3c0-0.3-0.2-0.3-0.2-0.6c0-0.2,0.2-0.4,0.2-0.4L267.5,99.5z
			 M378.4,40.9c0.3,0,0.5-0.3,0.7-0.6c0.2,0.2,0.3,0.4,0.6,0.4c0.3,0,0.5-0.3,0.7-0.3c0.3,0,0.4-0.3,0.6-0.3s0.3,0.4,0.6,0.4
			c0.4,0,0.5-0.4,0.8-0.4h0.9c0-0.3,0.4-0.7,0.6-1.2c-0.7-0.2-2.5-1-3.1-1c-0.4,0-0.5,0.5-0.5,1c-0.9,0-0.9-1.2-1.9-1.2
			c-0.7,0-1.4,0.6-1.4,1.5C376.9,40.1,377.6,40.9,378.4,40.9 M249.9,77.5c-0.2,0.1-0.2,0.3-0.2,0.5h0.3c0-0.2,0-0.3,0-0.5H249.9z
			 M248.9,73.2v0.3c0,0-0.2,0.3-0.2,0.5s0.3,0.3,0.5,0.3v0.3c-0.1,0.1-0.1,0.2-0.1,0.3v0.6h0.3c-0.1-0.2-0.2-0.3,0-0.6
			c0.1,0.1,0.3,0.2,0.5,0.2c-0.1,0.3,0,0.4,0,0.7c0,0.3-0.3,0.5-0.3,0.8s0.2,0.3,0.5,0.3s0.4-0.2,0.7-0.2c0.1,0,0.2,0,0.3,0
			c-0.1,0.2-0.2,0.2-0.2,0.5c0,0.4,0.4,0.5,0.8,0.4v0.6c-0.2,0.4-0.9,0.7-1.4,0.7c0,0.4,0.3,0.6,0.3,1.1c0,0.6-0.9,0.6-0.9,1.2
			c0,0.1,0.1,0.2,0.2,0.2c0.2,0,0.1-0.2,0.3-0.2c0.3,0,0.5,0.5,0.9,0.5c0.2,0,0.4-0.2,0.6-0.4c0,0.1,0.1,0.2,0.1,0.3
			c0,0.5-0.6,0.3-1.1,0.5c-0.1,0-1,1.2-1.1,1.4v0.2h0.2c0.1-0.2,0.2-0.3,0.4-0.3h0.4c0-0.3,0.2-0.6,0.5-0.6c0.2,0,0.3,0.2,0.6,0.2
			c0.5,0,1.3-0.3,1.6-0.3h1.3c0.4,0,0.6-0.2,0.9-0.6v-0.3c-0.2,0-0.3,0-0.6-0.2c0.3-0.5,1-0.8,1-1.5c0-0.4-0.3-0.7-0.7-0.7
			c-0.3,0-0.2,0-0.4,0.1l0.2-0.1c-0.1,0.1-0.2,0.2-0.4,0.3v-0.3c0.1,0,0.2-0.2,0.2-0.3c0-0.3-0.3-0.5-0.3-0.8c0-0.9-0.8-1.2-1.3-1.8
			c-0.4-0.5-0.3-1.4-0.9-1.6c-0.3-0.1-0.4,0.1-0.7,0c0-0.1,0.1-0.3,0.3-0.3c0-0.8,1-1.2,0.8-2.3h-1.9c-0.1-0.1-0.1-0.2-0.1-0.3
			c0.1-0.5,0.8-0.5,0.8-1c0-0.1-0.2-0.3-0.3-0.3h-0.9c-0.2,0-0.5,0.3-0.5,0.5s-0.1,0.3-0.1,0.6c-0.2,0-0.4,0.2-0.4,0.5
			c0,0.1,0.1,0.2,0.2,0.2c0,0.1-0.1,0.2-0.1,0.2c-0.1,0-0.2-0.1-0.2-0.3h-0.5C248.1,73,248.4,73.1,248.9,73.2 M247.9,72.1
			c0.3,0,0.6-0.5,0.6-0.9c-0.3,0-0.8,0.2-0.8,0.4S247.8,72.1,247.9,72.1 M245,80.8c0,0.5,0.4,0.9,0.8,0.9c0.2,0,0.4,0,0.6-0.1
			c0.3-0.2,0.6-0.8,1.1-0.8c0.3,0,0.6,0,0.8-0.2c0.3-0.3,0-0.8,0-1.1v-1.3c0-0.3,0.6-0.3,0.6-0.6c0-0.6-0.3-1.5-1.1-1.5h-0.5
			c-0.3,0-0.9,0.5-0.9,0.7s0.1,0.3,0.2,0.5c-0.2,0.2-0.7,0.4-0.9,0.4c-0.1,0-0.3-0.1-0.3,0.4c0,0.4,0.3,0.6,0.6,0.8
			C245.8,79.8,245,79.8,245,80.8 M263.3,31.7C263.3,31.7,263.4,31.7,263.3,31.7C263.4,31.8,263.4,31.8,263.3,31.7L263.3,31.7z
			 M263.4,31.7L263.4,31.7L263.4,31.7L263.4,31.7z M264.4,33.3c-0.2-0.8-0.6-1-1-1.6C262.9,32.1,263.8,33.2,264.4,33.3 M270.4,29.2
			c-0.1,0.9,0.6,0.4,1.1,0.4c0.1,0,1.4,0.1,1.5,0.1c-0.2,0.1-0.5,0.1-0.8,0.2c-0.1,0-0.4,0-0.6,0c0,0.3,0.1,0.5,0.4,0.6h1.8
			c0.2,0.5,0.5,0.7,1.1,0.7c0.9,0,2.5-1.3,3.2-1.9c-0.2-0.5-0.8-1-1.4-1h-1c-0.5,0-0.7,0.4-0.9,0.4c-0.1-0.3,0-0.5,0-0.9h-0.4
			c-0.2,0.2-0.4,0.9-0.8,0.9c-0.2,0-1.1-0.5-1.3-0.8h-0.9l0.2,0.4H271v0.2c-0.2,0.1-0.4,0-0.6-0.1h-0.5
			C269.9,28.7,270.1,29,270.4,29.2 M264.1,31.3c0.1,0,0.2,0.1,0.3,0.1c-0.1,0.6,0.3,0.9,0.9,1.2c-0.1,0-0.2,0-0.3,0.1
			c0.2,0.4,0.5,0.6,1,0.6c0.7,0,0.7-0.8,0.9-1h0.3c0.1,0.1,0.4,0.3,0.5,0.3h0.8c-0.3,0.3-1.2,0.8-1.6,0.9c-0.2,0-0.9,0-0.9,0.4
			c0,0.9,0.8,0.5,1.2,0.5c0.2,0,1.2,0,1.4,0.2c-0.4,0.1-0.7,0-1,0.3c0,0-0.7-0.1-1.2,0c0,1.3,1.7,1.8,2.5,2.4
			c0.4-0.5,0.4-1.6,0.9-2.1c0.2-0.1,0.4-0.1,0.5-0.3c0.3-1,0.7-2.6,1.7-2.6c0,0,0.3,0.5,0.8,0.6c-0.2,0-0.3,0-0.4,0.1
			c0.1,0.3,0.4,1,0.6,1.1c-0.1,0.6-0.4,0.4-0.5,1.1c0.4,0,1.1,0,1.4,0.1c-0.1,0.2-0.1,0.4,0,0.7c0.8-0.3,1.1-0.9,2-1.3
			c-0.3-0.5-1.2-0.2-1.2-1.4h-1c0.1-0.2,0.1-0.4,0-0.6c-0.2,0-0.3,0.1-0.6,0c0.1,0,0.2,0,0.3,0c-0.3-0.5-2-1.6-2.5-1.6
			c-0.1,0-0.2,0-0.3,0c0.1-0.3,0.1-0.9-0.4-0.9c-0.3,0-0.3,0.3-0.6,0.5c0-0.3,0.1-0.5,0.1-0.8c0-0.4-0.9-0.8-1.3-0.8s-0.6,0-0.6,0.6
			c0,0.7,0.2,1.1,0.4,1.7c-0.8-0.3-0.6-1.7-1.4-1.7c-0.3,0-0.5,0.3-0.5,0.6c0,0.2,0.1,0.4,0.2,0.5c-0.2-0.3-0.5-0.3-0.9-0.6
			c0.1-0.2,0.2-0.3,0.4-0.5c-0.7-0.1-1.1-0.1-1.6-0.1c-0.3,0-1,0.7-1.1,0.9C263.6,30.6,263.9,31.3,264.1,31.3 M305.2,27.1
			c0.3,0,0.7,0.1,0.9-0.1c-0.7-0.3-0.9-0.4-1.8-0.6c0.3-0.4,0.9-0.6,1.5-1c0-0.2,0.2-0.4,0.3-0.5c0-0.1,0-0.5-0.1-0.5
			c-0.3,0-0.5,0.3-0.5,0.6c-0.9,0-0.9,0.8-1.9,0.8v0.5c0.3-0.2,0.2-0.1,0.5,0.1h-1.3c-0.2,0.1-0.2,0.2-0.4,0.4
			c0.1,0,1.4,0.7,1.6,0.7C304.4,27.6,304.9,27.1,305.2,27.1 M305.4,27.9c-0.3,0-1.6,0.2-1.6,0.8c0,0.1,0.2,0.3,0.3,0.3
			c0.3,0,0.4,0,0.5-0.4c0.2,0,0.4,0.4,0.6,0.4c0.4,0,0.4-0.6,1-0.6C306.1,28,305.8,27.9,305.4,27.9 M308.7,27.9l-0.2-0.5
			c0.3,0,0.6,0.1,0.8-0.2c0-0.2,0-0.2,0-0.6c-0.3,0.1-0.8,0-1,0c0.1,0,0.3-0.1,0.3-0.3h-1c0,0.1,0,0.2,0,0.5c-0.4,0.2-0.6,0.5-0.6,1
			C307,28.1,308.5,28,308.7,27.9 M310.4,27c0.2,0,1.4-0.3,1.7-0.5l-0.4-1.2c-0.5,0-1.8,0.6-1.8,1.1C309.9,26.8,310.1,27,310.4,27
			 M295.5,27.2c0.3,0,0.4,0.2,0.7,0.3c-0.2,0.1-0.3,0.2-0.5,0.3c0.1,0,0.3,0.1,0.6,0.1c-0.3,0.1-0.4,0.2-0.7,0.3
			c0.1,0.3,0.4,0.5,0.9,0.5l0,0c0.1,0.1,0.2,0.3,0.3,0.4c0.3,0,0.3-0.6,0.6-0.8c0.4-0.3,0.7,0,1.1-0.2v-0.2c0.1,0,0.2,0,0.3,0
			c0.4-0.3,0.8,0,0.8-0.7c-0.2-0.1-0.6-0.4-0.9-0.4c-0.5,0-0.7,0.5-1.2,0.5c-0.6,0-1-0.5-1.8-0.5c-0.7,0-2.1,0.1-2.4,0.7
			c0.3,0,0.4,0.1,0.7,0.1C294.5,27.7,295.1,27.2,295.5,27.2 M298.8,27.9c-0.1,0.1-0.2,0.1-0.2,0.2v0.2L298.8,27.9z M350,33.7
			c0.2,0,0.4-0.3,0.4-0.6c-0.3,0.2-0.4,0-1,0.1C349.4,33.4,349.6,33.7,350,33.7 M335.7,26.2l-0.1-0.3h-1.2
			C334.7,26.3,335.3,26.2,335.7,26.2 M339.5,36.4c0.4,0,0.6-0.2,0.6-0.8h-0.5c-0.1,0.1-0.3,0.3-0.5,0.4
			C339.2,36.2,339.4,36.4,339.5,36.4 M339.6,28.8c-1,0.4-1.3,0.8-2.4,1.2c0.5,0.3,1.3,1.4,1.7,1.4c1.1,0,2.1,0.7,3.5,0.7
			c0.3,0,0.6-0.2,0.6-0.6c0-0.3-0.3-0.4-0.5-0.5c0.2-0.1,0.6-0.1,0.6-0.5s-0.1-0.5,0.3-0.8c-0.4-0.5-0.4-0.8-1-0.8h-0.6
			c-0.4,0-0.6-0.4-0.9-0.4s-0.3-0.1-0.7,0c0.3-0.2,0.6-0.5,0.6-0.7s0-0.3,0-0.8c0.1,0,0.1,0.1,0.4,0c-0.5-0.5-1-1.5-1.9-1.5
			c-1.5,0-2,1.8-3.3,2.2c0.8,0.5,1.4,0.8,2.3,0.8C338.5,28.7,339.3,28.8,339.6,28.8 M335.3,28.9c0,0.3,0.4,0.9,0.6,0.9
			c0.4,0,1.4-0.1,1.5-0.8c-0.2-0.1-1.1-0.6-1.3-0.6C335.9,28.5,335.3,28.5,335.3,28.9 M342.9,33.4c0,0.4,0.1,0.6,0.5,0.6l1.7-0.6
			c0,0,1-0.2,1.1-0.2c0.6,0.1,2.2,0,2.2-0.9c0-0.5-1.3-1.5-1.7-1.5c-0.2,0-0.3,0.3-0.6,0.4c0.3-0.3,0.1-0.3,0.1-0.8h-0.4
			c-1.3,0-1.5,1.4-2.3,2.3C343.3,32.8,342.9,32.8,342.9,33.4 M355.4,42L355.4,42c-0.1,0.1-0.2,0.2-0.3,0.3L355.4,42z M354.7,41.3
			c-0.3,0-0.7,0.2-0.7,0.6c0,0.3,0.3,0.5,0.7,0.5c0.3,0,0.5-0.1,0.7-0.2c0-0.1,0.1-0.1,0.1-0.2C355.4,41.4,355.2,41.3,354.7,41.3
			 M375.4,39.4c0.2,0,0.3-0.3,0.3-0.5l0,0l0,0c0,0,0,0,0-0.1h-0.1l-0.3-0.3c-0.1,0.2-0.3,0.3-0.3,0.6
			C375.2,39.3,375.3,39.4,375.4,39.4 M405.4,51.3c0.2,0,0.3-0.2,0.3-0.4c0-0.2-0.2-0.3-0.2-0.5h-1C404.7,51,405,51.3,405.4,51.3
			 M414.4,49c0.3,0,2.8-0.2,2.8-0.7c0-0.6-1.2-0.9-1.7-0.9s-1.5,0.7-1.5,1.2C414,48.8,414.2,49,414.4,49 M343.2,129.4
			c0-0.1-0.1-0.5-0.2-0.9C343.1,128.9,343.2,129.3,343.2,129.4c0,0.1,0,0.1-0.1,0.2C343.1,129.5,343.2,129.5,343.2,129.4
			 M342.9,129.8c-0.2,0.5-0.3,0.8-0.4,1.2C342.6,130.6,342.7,130.3,342.9,129.8 M342.4,131.2c0,0.1-0.1,0.2-0.1,0.4l0,0
			C342.3,131.4,342.4,131.3,342.4,131.2 M297.2,98.2c-0.1,0.2,0.3,0.3,0.4,0.6c0.3,0.4,0,0.8,0.2,1.2c0.2,0.4,0.6,0.2,0.9,0.3
			c0.3,0.1,0.3,0.5,0.5,0.7c0.3,0.3,1,0.2,1.4,0.2c0.5,0,1.1-0.1,1.5-0.2v-0.7c0,0-0.3-0.5-0.3-0.8s0.2-0.5,0.2-0.9
			c0-0.7-0.4-1.5-1.1-1.6c0.1-0.6,0.3-0.9,0.6-0.9h0.9c0-0.6-0.5-0.9-0.5-1.4c-0.2,0-0.8,0.4-1.1,0.6c0-1.5-0.8-2-1.4-3.2
			c-0.2-0.4-0.7-0.4-0.7-1.1c0.1,0,1.4-0.9,2.2-0.9c0.6,0,1.2,0.4,1.7,0C302,89,301.7,88,300,88c-1,0-1.5,0.3-2.4,0.6
			c-0.1,0-1,0.7-1.2,0.6c-0.2,0.2-0.8,1.6-0.8,1.8c0,0.6,0.7,1.1,0.7,1.5c0,1.3,1.3,3.6,2.1,4.1c-0.5,0.3-0.5,1.2-0.9,1.8
			C297.7,98.2,297.4,97.9,297.2,98.2 M285.2,109.5L285.2,109.5C285.1,109.5,285.2,109.5,285.2,109.5
			C285.2,109.6,285.2,109.5,285.2,109.5 M424.3,58.2c-0.8,0.3-1.4,0.3-1.9,1c-0.3,0.5-0.5,1.9-1.1,1.9c-1.4,0-3.1-3.2-5-3.2
			c-0.6,0-0.3,0.9-0.5,1.3c-0.4,0.9-2.2,0.6-2.2,2.3c0,0.6,3.7,2.7-0.9,2.8c-2.5,0.1-4.4,4.3-7.2,4.3c-0.9,0-3.3-3.5-5.8,3
			c-0.3,0.8,0,1.2,0,1.7c0,0.7-1.1,1-1.1,2.3c0,0.8-1.4,1-1.3,2.1c-1.3,0.4-1.7,2.5-2.4,3.6c-0.9-0.8-1.3-5.4-1.3-6.8
			c0-1.6,1.1-2.5,1.9-3c0.9-0.6,1.5-2.1,2.2-3.2c0.6-1,1.3-0.7,2.2-1.3c2.5-1.9,0.8-2.7,0.5-2.6c-3.4,5.1-3.2,1.8-2.7,1.3
			c-1.1-0.2-1.3,0-1.9,0c-2.2,0-3.1,1.5-3.6,4h-1.7c-0.8,0-1.4-0.8-2.7-0.8c-1,0-4.8,0.4-6,0.8c-1.4,0.5-2.6,2.4-3.6,3.6
			c-0.7,0.8-2.4,2-2.4,3c0,0.2,1,2.8,2.8,1.1c0.6-0.6,2,1.4,2,2.4c0,0.8-0.4,1.7-0.6,2.1c-0.5,1-0.1,1.8-0.3,2.8
			c-0.2,1-0.9,2.2-1.4,2.8c-1.3,1.5-3,6.1-4.8,6.1c-1,0-2.2-0.4-2.2-0.4l0,0c-0.8,0.7-1,1.3-1.4,2.3c-0.1,0.3-0.7,0.7-0.9,0.9
			c-0.3,0.3-0.6,0.6-0.9,0.6c-0.1,0.6,0.3,1,0.5,1.3c0.7,0.8,1.2,1.7,1.2,3.2c0,0.9-0.2,1.3-0.6,1.4c-0.2,0.1-1,0.1-1,0.5
			c-0.4,0.1-0.4,0.1-0.6,0.3h-0.5c0-0.2,0.2-0.3,0.2-0.5c-0.2,0-0.2-0.2-0.2-0.4c0-0.3,0.3-0.8,0.3-0.9c0-0.2-0.2-0.4-0.2-0.6
			c-0.2,0-0.3-0.2-0.3-0.3v-0.4c0.3,0,0.5-0.2,0.5-0.5c0-0.5-0.5-0.7-0.9-0.7c-0.2,0-0.3,0.2-0.4,0.2c-0.2,0-0.3-0.5-0.3-0.6
			c0-0.5,0.3-0.4,0.3-0.8c0-0.5-0.2-0.5,0-0.8c-0.5,0-0.6-0.4-1-0.4c-1,0-1.7,1.1-2.6,1.1c0-0.7,0.6-0.9,0.6-1.6
			c0-0.2-0.3-0.7-0.6-0.7c-0.3,0-0.4,0.4-0.5,0.5c-0.3,0.5-1,1.1-1.4,1.4c-0.4,0.4-1.4,0.1-1.4,0.9c0,0.4,0.5,0.5,0.7,0.6
			c0.4,0.3,0.3,0.7,0.6,1c0.3,0.2,0.6,0.1,0.8,0.1c0.2,0,0.2-0.8,0.4-0.8c0.4,0,0.5,0.3,0.7,0.5c0.4,0.3,0.9-0.1,1.2,0.3
			c-0.6,0.8-2,0.8-2.3,1.8c-0.1,0.5-0.7,0.5-0.7,0.9c0,0.5,0.6,0.9,0.9,0.9c0,0.1,0,0.7,0,0.7h0.1l0,0c0.3,0.2,0.3,0.6,0.4,0.8
			c0.6,1,0.9,1.6,0.9,3.2c0,1.1-0.5,1.5-0.5,2.3c-0.5,0.1-1.3,1.6-1.5,2.1c-0.3,0.7-0.5,2.1-1.3,2.1c-0.1,0.4-0.2,0.5-0.5,0.7
			c-0.9,0.6-1.2,1.7-2.7,1.7c-0.3,0-0.5-0.3-0.8-0.3c-0.1,0-0.4,0.7-0.4,0.7c-0.4,0.5-1,0.3-1.6,0.6c-0.3,0.2-0.9,0.3-1.1,0.5
			c-0.3,0.3-0.1,0.8-0.4,0.8s-0.2-0.8-0.2-0.9c-0.6-0.3-1-0.1-1.5-0.4c-0.6,1.2-2.2,1.4-2.2,3.1c0,0.3,0.2,0.4,0.3,0.6
			c0.7,0.9,1,1.9,1.8,2.5s1.3,2.3,1.3,3.5c0,0.9-0.4,1.2-0.4,1.9c-1,0.3-1.1,0.7-1.9,1.2c-0.4,0.2-0.3,0.8-0.7,0.8
			c-0.1,0-0.1-0.2-0.1-0.3v0.4c0,0.4-0.6,0.9-0.8,0.9c-0.1,0-0.3-0.5-0.3-0.8s0-0.5,0.1-0.5c-0.1-0.1-0.2-0.4-0.2-0.6
			c-0.5,0-1.1-0.2-1.1-0.8c-0.7,0-0.3-0.6-0.7-1c-0.4-0.5-0.9-0.6-1.4-0.8c-0.1,0-0.2-0.5-0.2-0.5c-0.1-0.4-0.5-0.5-0.8-0.5
			s-0.2,0.2-0.2,0.4c0,0.3,0.1,0.4,0.1,0.7c0,1.1-0.9,1.4-0.9,2.5c0,1.2,1.1,0.7,1.1,1.8h-0.1c0.1,0.3,0.2,0.9,0.4,1.2
			c0.9,1,2.7,1.2,2.7,3.1c0,0.4-0.1,0.4-0.1,0.7c0,0.7,0.5,0.9,0.6,1.4s0.1,0.7,0.3,1.1c-0.3,0-0.3,0-0.4,0s-0.1,0.2-0.2,0.2
			c-0.3,0-0.3-0.3-0.5-0.3c-1-0.4-1.9-1.5-2.2-2.8c-0.3-1.1-0.3-1.9-0.7-2.8c-0.2-0.5-0.4-1.9-0.9-1.9c-0.3,0-0.1,0.2-0.4,0
			c-0.1,0,0-0.1,0-0.2c0-0.5,0.1-0.9,0.2-1.4h0.1h0.1c-0.3-0.2,0-1,0-1.4c0-1.7-0.8-2.6-0.8-3.9c-0.4,0,0.1-1.1-0.2-1.7
			c-0.1-0.2-0.3-0.1-0.4-0.2c-0.2-0.2-0.1-0.4-0.3-0.6c-0.5,0.6-0.8,1.7-1.6,1.7c-0.5,0-0.5-0.5-0.5-0.9c0-0.5,0.2-0.7,0.2-1.1
			c0-0.2-0.2-0.3-0.2-0.5c-0.2-0.8-0.6-1.4-0.9-2c-0.4-0.4-0.8-0.7-1-1.2c-0.3-0.5-0.2-1.1-0.3-1.5c-0.1-0.5-0.7-0.8-1.1-0.9
			c0,1.1-0.9,1.4-1.7,1.4c-0.5,0-0.5-0.2-0.8-0.4c-0.2,0.6-0.9,0.6-1,0.9c-0.1,0.5-0.1,0.9-0.4,1.3c-0.6,0.7-1.5,0.9-2,1.5
			c-0.6,0.8-1.2,1.5-1.8,2.2c-0.3,0.3-0.6,0.8-0.8,0.8c-0.6,0.2-1.2,0.3-1.2,1.1c0,0.7,0.2,1.1,0.2,1.7c0,0.9-0.4,1.5-0.4,2.3l0.2,1
			h-0.2c0,0.1-0.2,0.1-0.3,0.1c-0.4,0.1-0.3,1.1-0.6,1.3c-0.4,0.2-0.4,0.1-0.6,0.5c-0.1,0.3-0.2,0.8-0.4,0.8c-0.3,0-0.4-0.1-0.5-0.4
			c-0.2,0-0.2-0.3-0.3-0.4c-0.3-0.9-0.6-1.7-0.8-2.5c-0.1-0.5-0.6-0.9-0.7-1.2c-0.3-0.6-0.1-1.1-0.3-1.5c-0.3-0.5-0.3-0.7-0.4-1.2
			c-0.2-0.6-0.7-1.8-0.9-2.6c-0.2-0.8-0.5-1.5-0.5-2.2c0-0.1,0-0.4,0-0.5l0,0c0-0.5,0.2-0.6,0.2-1.1c0-0.6-0.3-1.1-0.3-1.6
			c0-0.1,0.2-0.4,0.2-0.5h-0.2c-0.4,0.5-0.4,1.8-1.3,1.8c-1,0-1.4-1.2-1.8-1.7c0.3-0.2,0.5,0,0.8-0.2c0.3-0.1,0.3-0.4,0.4-0.6
			c-0.3-0.1-0.5-0.1-0.7-0.1c-0.6,0-1.5-0.8-1.9-1.3c-0.3-0.5-0.4-1.4-0.8-1.5c-0.3-0.1-0.6,0-0.9,0c-0.4,0-0.5,0.3-0.8,0.3
			l-0.8-0.3c-0.1,0.1-0.2,0.2-0.3,0.3l-1.1,0.1c0,0-0.1,0-0.2,0c-0.6,0-2-0.5-2.8-0.5c-0.2,0-1.1-0.3-1.1-0.3
			c-0.3-0.4-0.3-1.5-1-1.5c-0.3,0-0.5,0.3-0.7,0.6H302c-0.5-0.2-0.8-0.7-1.1-1.1c-0.4-0.5-0.9-0.2-1.2-0.6c-0.2-0.2-0.1-0.5-0.2-0.7
			c-0.3-0.8-1-2-1.9-2c-0.4,0-0.6,0.7-0.6,1.2c0,0.4,0,0.6,0.1,0.9c0.2,0.9,1.1,2.5,1.8,2.7c0,0.4,0.2,0.5,0.2,0.9
			c0.4-0.1,0.3-0.6,0.6-0.7c0,0.1,0,0.3,0,0.4c0,0.5-0.2,0.8-0.2,1.2c0,0.5,0.8,0.8,1.3,0.8c2.1,0,2.3-1.5,3.4-2.6v1.4
			c0.4,1.1,1,1.3,2,1.6c0.3,0.1,0.4,0.8,0.6,0.9l0,0c0.2,0.3,0.6,0.3,0.6,0.6c0,0.9-0.9,1.2-0.9,2.1c-0.5,0-0.8,0.2-0.9,0.6
			c-0.1,0.5-0.1,1.1-0.5,1.1c-0.5,0-0.4,1.1-0.9,1.1c-0.3,0-0.9,0.6-0.9,1.1c-0.9,0.2-2.8,0.6-2.8,1.4c0,0.1,0.1,0.3,0.1,0.3
			c-0.7,0.4-1.7,0.7-2.5,0.9c-0.4,0.1-1.6,1.2-2,1.4h-1c-0.5,0.5-0.6,0.8-1.3,0.8l-0.2,0.1c-0.1,0-0.9-0.5-1-0.5s0.2,0,0-0.4
			c-0.3-0.6-0.6-1.2-0.6-1.9c-0.3,0-0.1-0.8,0-1.1c0.2-0.8-0.4-1.2-0.7-1.6c-0.4-0.5-1.3-1.8-1.3-2.7c-1.1-0.3-1.4-1.1-1.4-2.5
			c0-0.9-0.4-1.1-0.5-1.8c-0.2-0.1-0.3-0.4-0.4-0.5c-0.1-0.2-0.5-0.1-0.6-0.2c-0.2-0.2-0.1-0.8-0.2-1c-0.1-0.4-0.3-0.7-0.4-0.9
			c-0.4-0.7-0.7-1.2-1-1.9c-0.1-0.2-0.5-0.8-0.5-0.9c0-0.3,0.1-0.7,0.2-1.2c-0.1,0.5-0.5,1.5-0.6,1.9c-0.7-0.1-1.2-1.8-1.7-2.5v0.6
			l3,6.3c-0.2,0.8,0.8,2.5,1.3,2.9v2c0.3,1,0.9,1,1.4,1.8c0.6,0.9,0.2,1.9,0.8,2.6c0.5,0.6,0.8,0.6,1.4,1.1c0.5,0.5,0.8,2,1.8,2
			c0,0.6,0.3,0.7,0,1.2c0.4,0.4,0.8,1.6,1.4,1.6c0.5,0,0.5-0.5,0.9-0.6c0.5-0.2,0.8,0.1,1.3,0c1.2-0.2,2.3-0.8,3.5-1.1
			c0.1,0.2,0.2,0.3,0.2,0.6c0,2.2-1.4,4.9-2.2,6.2c-0.9,1.5-1.4,2.9-2.5,4c-2.1,2-4.3,2.6-5.1,5.9c-0.2,0.9-1,1.2-1,2.3
			c0,1.2,0.2,1.7,0.2,2.8c0,1.3,1.2,1.9,1.2,2.6c0,0.2-0.2,0.5-0.2,0.6v0.9c0,0.6-0.1,1.3-0.1,2.4c0.2,0.2,0.3,0.4,0.3,0.8
			c0,2.9-4.2,2.6-4.5,5.1c-0.4,0.1-0.9,0.7-0.9,1.1c0,0.8,0.9,1.4,0.9,2.5c0,0.6-0.1,1.8-0.3,2.2c-0.2,0.3-0.7,0.2-0.9,0.3
			c-0.8,0.5-1.2,0.8-1.6,1.8c0.3,0.2,0.5,0.5,0.5,0.8c0,1.1-0.9,1.9-1.3,2.3c-0.7,0.8-0.8,1.7-1.3,2.5c-0.8,1.2-1.1,2.3-2.4,3
			c-0.5,0.3-1.3,0-1.4,0.7c-0.4,0-0.7,0.3-0.9,0.3c-0.3,0-0.5-0.4-0.9-0.4c-1.3,0-2.1,1.1-3.3,1.1c-0.5,0-0.8-0.3-1-0.8
			c-0.2,0-0.2,0.2-0.3,0.2c0-0.8-0.3-1.6-0.6-1.9c0.3-0.3,0.4-0.6,0.4-1c0-0.6-0.9-1.7-1-2.1c-1.1-2.3-2.6-4.5-2.6-7.9v-1
			c0-0.5-0.4-0.7-0.6-1.2c-0.9-1.8-1.8-3.2-1.8-5.7c0-2.6,2-3.3,2-5.3c0-0.9-0.3-1.3-0.4-2.1c-0.2-1.6-0.5-2.2-0.8-3.1
			c-0.3-0.8-0.1-1.6-0.5-2.3c-0.8-1.3-2.6-2.6-2.6-4.3c0-0.4,0.5-1.4,0.7-1.5c-0.1-0.3,0-0.4,0-0.6c0-0.5,0-1.6,0.3-1.9
			c-0.3-0.8-0.9-1.6-2-1.6h-1.3c-0.9,0-1.2-2.2-2.5-2.2c-1.6,0-2.7,0.9-3.9,1.3c-0.5,0.2-0.6,0.7-1.1,0.7s-1.3-0.6-1.9-0.6
			c-1.2,0-1.8,0.8-3,0.8c-0.4,0-0.8-0.2-0.9-0.3c-0.9-0.8-2.7-2.1-3.4-3.3c-0.6-1.1-0.8-2-1.6-2.8c-0.2-0.2-1.9-2-1.9-2.1
			c-0.2-0.2-0.3-0.3-0.4-0.5h0.1c0-0.6-0.2-0.9-0.2-1.2c0-0.5-0.3-0.7-0.5-1.2c0.7-0.4,1.3-2.5,1.3-3.4c0-1.7-0.6-2.7-0.6-4.2
			c0-0.8,0.7-1.2,0.9-1.8c0.4-1.5,1.4-3.5,2.1-4.7c0.4-0.7,1.3-0.6,1.8-1c0.5-0.3,1.3-1.1,1.4-1.7c0.4-1.4-0.1-2,0.5-2.9
			c0.8-1.2,1.9-2.4,2.7-3.6h-0.1c0.3-0.4,0.3-0.7,0.6-1c0.8,0.7,1.6,0.9,2.7,0.9c0.7,0,0.8-0.5,1.2-0.7c1.2-0.7,3.6-1.8,5-1.8
			c0.4,0,0.9,0.4,1.1,0.4c0.3,0,0.9-0.6,1.3-0.6s0.6,0.3,0.9,0.3c0.6,0,0.7-0.6,1.3-0.6c0.6,0,0.4,0.7,0.9,0.7
			c0.2,0,0.3-0.2,0.5-0.2c0,0.6-0.5,0.5-0.5,1c0,0.3,0.4,0.5,0.4,0.8c0,0.6-0.4,0.9-0.4,1.4c0,0.9,0.8,1.8,1.4,1.8h0.9
			c2,0,2.8,3,5.1,3c0.3,0,0.6-0.4,0.6-0.6v-0.8c0-1.2,0.8-1.2,1.7-1.6l0.1,0.1h0.7c0,0.5,0.3,0.6,0.5,0.9c0.3,0.5,1,0.2,1.5,0.4
			c1,0.5,2.4,1,3.5,1c1,0,1.3-0.6,2.3-0.6c0.6,0,0.9,0.5,1.6,0.5c0.5,0,0.5-0.2,0.9-0.3c0,0.1,0.1,0.2,0.1,0.3l-0.2-0.5
			c0-0.3,0.2-0.3,0.3-0.4c0.2-0.8,0.3-1.2,0.5-2s0.8-0.9,0.8-1.8c0-0.6-0.2-1.2-0.2-1.6c0-0.2,0.2-0.3,0.2-0.4V101
			c-0.3,0.1-0.3,0.3-0.6,0.3c-0.3,0-0.5-0.1-0.6-0.3c-0.5,0.5-0.7,0.9-1.6,0.9c-0.7,0-0.9-0.9-1.6-0.9s-0.5,0.9-1.1,0.9
			s-0.9-1-1.5-0.7h-0.3c0.1,0,0.2-0.1,0.3-0.2c-0.2-0.2-1.1-0.8-0.8-1.2c-0.3-0.5-0.6-0.5-1.1-0.7c0.3-0.4,0.7-0.3,0.7-1
			c0-0.3-0.1-0.3,0-0.5c-0.2,0-0.5,0-0.5-0.2c0-1.2,2.3-0.9,2.8-1.3c-0.1-0.3-0.3-0.2-0.3-0.5s0.6-0.2,0.8-0.2h1
			c0.4,0,0.9-0.5,1.3-0.8s1.3-0.3,1.8-0.3c0.9,0,0.8,0.6,1.5,0.6c0,0.5,1.2,0.7,1.6,0.7h1.8c0.6,0,1-0.6,1.6-0.9l0,0h-0.1
			c0-3-3.6-2.6-4.4-4.8c1.8-0.6,1-1.6,0.9-1.8c0.2-0.1,0.6-0.6,0.6-0.6c-0.9,0.4-3.2,1.4-3.2,1.7c0,0.5,0.4,0.6,0.5,0.6
			c0,0,0.8,0.2,0.9,0.2c-0.3,0.4-1.8,1.2-2.2,1.2c-0.4,0-1.9-2.8-2.5-2.8c-0.7,0-0.8,1-1.5,1.2c0,0.2,0,0.4,0,0.6
			c-0.3,0.1-0.7,0.3-0.7,0.6c-0.1,0.6-0.1,0.3-0.2,0.5v1c-0.3,0.4-0.9,1.1-0.9,1.7c0,0.8,0.9,1.3,1,1.6c-0.1,0.2-0.3,0.1-0.4,0.2
			c-0.3,0.1-0.5,0-0.8,0.1c-0.4,0.2-0.5,0.7-0.9,0.7c-0.5,0-0.8-0.8-1.3-0.8s-0.6,0.3-1,0.5c0.1,0.3,0.1,0.5,0,0.8
			c-0.5,0-0.5-0.6-0.8-0.6c-0.2,0-0.3,0.2-0.3,0.4l0.6,0.8c0,0.2-0.1,0.3-0.1,0.5c0,0.1,0.9,1.1,1.1,1.1c0,0.1,0.1,0.3,0.1,0.3
			c-0.2,0.1-0.5,0-0.5,0.2h-0.1c-0.3-0.1-0.7-0.4-0.8-0.6v0.3c0.1,0.2,0.2,0.3,0.2,0.6c0,0.2-0.3,0.7,0,0.9H274
			c-0.5,0-0.9-0.6-0.9-1.2c0-0.3,0.3-0.4,0.4-0.6H273c-0.1,0-0.2-0.3-0.2-0.4c-0.1-0.5-0.4-0.9-0.7-1.2c-0.4-0.5-0.9-0.8-0.9-1.6v-1
			c0-0.5-0.7-1.3-1.1-1.6c-0.4-0.3-0.9-0.3-0.9-0.8h-0.4c-0.7,0-1.5-1.3-1.5-2.2h-0.9c-0.4,0-0.2-0.8-0.4-1c-0.3,0.3-1,0.3-1,0.7
			c0,0.1,0.1,0.2,0.2,0.2c-0.1,0.2-0.1,0.5-0.1,0.7c0,0.6,0.3,0.8,0.7,0.9c0.5,0.2,0.7,0.8,0.8,1.2c0.1,0.5,0.3,1.1,0.6,1.3
			c0.5,0.3,0.8,0.1,1.3,0.1c0,0.1,0,0.2-0.1,0.3c-0.1,0.5,0.6,0.6,0.8,0.8c0.6,0.4,1.4,0.7,1.3,1.5c-0.3-0.1-0.5-0.6-1-0.6
			c-0.4,0-0.7,0.2-0.7,0.6c0,0.5,0.6,0.6,0.6,1.1c0,0.2-0.4,0.2-0.4,0.2c-0.3,0.3-0.2,1.1-0.7,1.1c-0.2,0-0.3-0.1-0.3-0.3
			c0.4,0,0.5-0.6,0.5-1c0-0.6-0.3-0.7-0.3-1.1c-0.1,0-0.8-0.9-0.9-1.1c-0.1,0-0.6-0.2-0.6-0.4c-1-0.3-1.2-0.6-1.7-1.2
			c-0.2-0.3-0.7-0.4-0.8-0.7c-0.6-0.9-0.8-2.4-2-2.4c-0.6,0-0.6,0.5-0.9,0.6c-0.6,0.3-1,1-1.7,1s-1.1-0.4-1.8-0.4
			c-0.5,0-1,0.4-1,0.9l0.2,0.8c-0.2,0.8-0.9,1-1.5,1.2s-1.5,1.7-1.5,2.5c0,0.3,0.2,0.4,0.3,0.5c-0.4,0.8-0.6,1.2-1.3,1.6
			c-0.4,0.2-0.4,1.2-1.1,0.9l0,0c-0.3-0.1-0.8,0.1-1,0.1c-0.8,0-1.2,0.8-1.9,0.8c-0.5,0-0.5-1.4-1.2-1.4c-0.5,0-0.9,0.3-1.4,0.3
			c-0.2,0-0.2-0.2-0.2-0.3v-1.5c-0.3,0-0.5-0.2-0.5-0.5c0-0.5,0.3-0.6,0.3-0.9c0-0.9,0.3-1.9,0.3-2.9c0-0.6-0.3-1.1-0.3-1.4
			c0-0.2,1.1-1,1.3-1c0.1,0,0.3,0.2,0.5,0.2h1.4c0.1,0.2,0.4,0.2,0.5,0.2h1.5c0.4-0.1,0.6,0.1,0.9,0.1c0.2,0,0.7-0.2,0.8-0.2
			c0-0.8,0.4-1,0.4-1.7c0-0.2,0-0.8,0-1l-0.1,0.1c0.1-0.1,0.1-0.4,0.1-0.6c0-0.3-0.2-0.3-0.2-0.6c-0.6,0-0.8-0.7-0.8-1.3
			c-0.2,0-0.2-0.2-0.4-0.3c-0.5-0.2-1.9-0.5-1.9-1.1c0,0,0-0.1,0-0.2c0-0.3,0.9-0.6,1.2-0.7c0.1,0.2,0.6,0.4,0.9,0.4
			c0.2,0,0.6-0.2,0.7-0.2V85c-0.2-0.1-0.1-0.6-0.2-0.8v-0.3h0.3c0.3,0.3,0.6,0.5,0.9,0.5c0.3,0,0.5-0.3,0.5-0.6
			c0.9,0,1.2-0.8,1.4-1.7c0.2,0,0.3,0,0.4-0.1c0.2-0.1,1.4-0.7,1.6-0.8c0.3-0.3,0.2-0.8,0.2-1.2c0-0.2,0.3-0.4,0.3-0.4
			c0.4-0.5,0.9-1.1,1.6-1.1c0.4,0,0.2,0.1,0.4,0c0.1,0.1,0.2-0.2,0.3-0.3c0.2-0.3,0.5,0,0.8,0c0.2,0,0.7-0.3,0.7-0.6
			c0-0.2-0.2-0.9-0.2-0.9c-0.1-1-0.6-1.3-0.6-2.2c0-1.6,1.2-1.7,2-2.4v0.5c-0.2,0.4-0.2,0.6-0.2,1s0.3,0.4,0.6,0.4v0.3
			c0,0.2-0.3,0.3-0.4,0.4c-0.3,0.4-0.7,0.7-0.7,1.4c0,0.4,0.2,0.6,0.3,0.7c0,0.2,0,0.3,0,0.4c0.4,0,0.5,0.2,0.8,0.2
			c0.1,0.2,0.1,0.5,0.2,0.5c0.9,0,1.5-0.9,2.2-0.8c0,0.2-0.2,0.3-0.2,0.4s0.5,0.5,0.5,0.5c0.3,0,0.4-0.3,0.5-0.3
			c0.5-0.3,0.9-0.2,1.4-0.5c0.3-0.1,0.8-0.7,1.2-0.7c0.4,0,0.9,0,1.1,0.2c-0.1,0.1-0.1,0.3-0.1,0.4c0.4,0,0.8,0,1.1-0.1
			c0.1-1.3,1.1-1.1,1.1-2.6c0-0.9,0.7-2.6,1.3-2.6c0.5,0,0.6,0.9,1.3,0.9c0.4,0,1.2-0.7-0.4-2.5c-0.5-0.5,1.1-1.3,1.8-1.3
			c0.7,0,1,0.3,1.6,0.3c0.4,0,1.4-0.5,1.7-0.8c-0.2-0.7-0.5-0.9-0.8-1.3c-0.3,0.8-1.8,0.9-2.4,0.8c-0.6,0.2-1.4,0.6-1.9,0.6
			c-0.4,0-0.7-0.1-0.7-0.5c-0.7,0-1.4-0.5-1.4-1.3c0-0.4,0.3-0.6,0.4-0.8c-0.3-0.2-0.6-1-0.6-1.4c0-0.3,0.1-0.5,0-0.8
			c1.3,0,2-2.1,2.8-2.6c0.4-0.3,1.2-0.5,1.2-1.1c0-0.9-1-1.1-1.8-1.1c-1,0-1.9,0.5-1.9,1.5c0,0.5,0.1,0.6,0,0.9
			c0,0.9-1.5,1.6-2.1,2.1c-0.5,0.4-1.1,0.5-1.4,1.2c-0.3,0.5,0.1,1.2-0.4,1.5v0.8c0.2,0.1,0.2,0.4,0.2,0.7c0.6,0.1,1.4,0.8,1.4,1.5
			c0,0.6-0.9,1.5-1.3,1.5c-0.6,0-0.9,1.1-0.9,1.9c0,0.4,0.3,0.6,0.5,0.6c-0.1,1-0.9,1.1-0.9,1.8h-0.8c-0.5,0-0.7,1.2-1.5,1.2
			c-0.3,0-0.7-1.6-0.7-1.8c0-0.1,0.1-0.3,0.1-0.4c-0.5-0.6-0.5-1.2-0.7-2c-0.2-0.6-0.6-0.7-0.6-1.4c0-0.2,0.1-0.4,0.2-0.5
			c-0.3-0.2-0.4-0.5-0.6-0.9c-0.7,1.1-1.7,2.6-3,2.6c-0.2,0-1.4-0.9-1.4-1.1c0-0.3,0.4-0.5,0.5-0.6v-0.6c-0.4,0-0.4,0-0.8,0.2
			c0-0.3,0.3-0.7,0.5-1c-0.5-0.7-0.5-1.6-0.5-2.7c0-0.6,0.5-0.5,0.7-0.9c0.4-0.6,0.7-1.1,1.4-1.3c0.6-0.2,0.7-1.1,1.8-0.9
			c-0.3-0.1-0.5-0.2-0.8-0.3c1.4-0.4,1.9-1.7,2.9-2.6c0.4-0.3,0.3-1.5,0.6-1.5c0,0,0.3-0.8,0.3-0.9c0.4-0.8,0.8-1.3,1.5-1.6
			c0.7-0.3,1.5-1.6,1.7-2.4c-0.8,0.2-1.1,0.7-1.9,0.7c0.2-0.3,0.5-0.5,0.6-0.5c-0.2,0-0.5-0.1-0.5-0.1c0.1-0.4,0.2-0.6,0.5-0.6
			c0.1,0,0.2,0.1,0.3,0.1c0.1-0.2,0.2-0.4,0.3-0.5c0.2,0.2,0.2,0.4,0.1,0.7c0.5,0,0.6,0.4,1,0.4c0.2,0,0.5-0.9,0.6-0.9
			c-0.2-0.1-0.2-0.1-0.5-0.1c0.2-0.3,0.4-0.6,0.7-0.6c0.2,0,0.4,0.1,0.6-0.1c-0.2-0.2-0.1-0.1-0.2-0.3c0.3-0.4,0.9-0.3,1.4-0.4v0.4
			c0.4-0.1,0.5-1,1.2-1v0.6c0.4-0.9,0.9-0.7,1.5-1.1c-0.3-0.1-0.5-0.2-0.5-0.5c0-0.2,0.6-0.3,0.7-0.6c0.2,0.3,0.4,0.6,0.7,0.6
			c0.5,0,1.7-0.9,1.7-0.4s-0.5,0.7-0.7,1.2c0.6,0.1,0.8-0.8,1.4-1.1c0.1,0.3,0.1,0.5,0.2,0.7c0.4-0.5,0.7-0.7,1.2-1.1
			c0,0.5,0,0.8,0.3,0.9c0.1-0.3,0.2-0.6,0.5-0.6c0.2,0,0.9,0.4,1.1,0.6c-0.3,0.9-0.5,0.6-1.3,0.9c0.3,0.3,0.5,0.3,0.5,0.6
			c0.3,0,0.9,0.2,1,0.2c0.7-0.1,0.8,0,0.9,0c1,0,4.4,2.1,6,2.6c5.4,2.1,1.8,4.7,0.1,4.1c-1.3-0.4-2.1-0.4-3.4-0.4
			c0.6,1.1,0.4,3.4,2.2,3.6V60c3.6,1.9,3.2-1.7,4.1-2.1c0.9-0.3,2.5,0.6,2.5-0.8c0-0.7-0.6-0.8-0.5-1.1c1.4-5,2.1-1.7,1.6-0.2
			c-0.1,0.4,0.4,0.8,0.8,0.8c1.2,0,5.9-5.1,6.6-2.8c1.4,0.8,3.4-0.8,4.4-0.8c0.6,0,1.6,2.3,1.7-0.6c0-0.3-1.4-2,2.9-0.7
			c1.6,0.5,5.7,4.2,4,0.9c-0.8-0.9-1.4-2-1.4-3.8c0-1.4,2.6-4.1,3.9-3.8c2.7,0.6,0.9,1.2,0.9,2.5c0,1.2,0.4,6.9,1.7,6.9
			c1,0-0.9-2.8-0.3-3.7c1-1.2-0.4-2.3-0.6-3.4c0.8-0.5,1.5-1.1,1.6-2.3c0.4,0.7,0.3,4.1,2.1,1.1c2.2,0,2.5,0.5,3.1,0
			c-0.1-0.6-0.5-1.1-0.5-1.5c0-2.2,3.9-1.7,4.9-1.7c0.7,0,0.9-1.6,1.4-2.1c2.3-2.5,6.7-2.8,7.8-3.2c-0.4,1.8,3.7-0.2,4.3-0.8
			c0.8-0.8,1.5-2.3,3.2-2.3c1.4,0,2,1,2.4,2.1h3.3c7.8,2.2-1.7,5.3-2.7,6.8c0,0-0.9,2.5,3.2-1.5c0.7,1.4,6.1,2.1,7.2,2.5h3.5
			c0-1.2,0.4-1.6,1.3-1.5c6.5,0.6,3.9,2.6,3.9,2.8c0,1.1,0.6,3,1.9,3c0.5,0,0.7-1.2,0.8-1.7c1,0.1,1.2,0.9,2,0.9h5
			c0.2-1.5,0.5-3,3-3s4.5,0.6,6.5,1.3c0.9,0.3,0.9,1.2,1.6,1.9c0.7,0.7,2.5,0.2,3.6,0.2c2.1,0,3.2,0.7,3.6,2.6l7.2,0.2
			c0.6,0,3,3.7,2.1,0c-0.1-0.5,0.6-0.8,1.6-0.8c3.7,0,7,1.8,9.5,3.6C419.5,55.3,423.2,56.4,424.3,58.2 M305.2,49.6L305.2,49.6
			c0.1,0.1,0.1,0.1,0.1,0.2L305.2,49.6z M300.5,48.2c0,0,0.8,0,0.9,0c0.5,0.2,0.3,0.8,0.5,1.3c0.1,0.2,0.6,0,0.8,0
			c0.1,0,0.2,0.2,0.2,0.3h2.5c0-0.1-0.1-0.1-0.1-0.2c-0.7-0.7-1.7-1.1-1.7-2.5c0-2.4,2.2-4.9,3.8-5.5c0.6-0.2,0.7-1,1.5-1
			c0.4,0,0.5-0.8,0.7-0.9c1-0.6,1.8-0.3,2.9-0.9c0.8-0.5,3.2-0.7,3.2-2c0-0.4-0.9-0.9-1.3-0.9c-1.6,0-3.1,2.2-4.7,2.2
			c-0.4,0-0.6-0.5-0.9-0.5c-0.6,0-0.6,0.5-1,0.5c-1.2,0-2,1.8-2.8,1.8c-0.5,0-0.8,0.3-1.3,0.3c-0.2,0-0.3,0.2-0.3,0.4
			c0,0.2,0.2,0.4,0.2,0.7c0,1.1-1.6,1.6-1.6,2.3c0,0.3,0.4,0.4,0.5,0.8c-0.5,0.2-1.5,0.4-1.5,1.1V46c0,0.7-0.9,0.6-0.9,1.5
			C299.9,47.9,300.5,48.2,300.5,48.2 M382.4,78.7c-0.1-0.5-0.4-1-0.4-1.7h-0.2v0.8c0,0.2-0.1,0.3-0.1,0.5c-0.5,0.1-0.7,1.1-0.7,1.9
			c0,0.6,0.5,0.8,0.5,1.4v2.2c0,0.5-0.2,0.6-0.2,1.2c0,0.5,0.2,0.5,0.2,1.1s-0.1,1-0.1,1.7c0,0.2-0.1,1.1,0,1.1
			c0.4,0,0.4-0.8,0.8-0.8h0.3c0,0.2,0.2,0.4,0.3,0.4h0.1c-0.3-0.6-0.9-1.1-0.9-1.9c0-1,0.1-2.2,0.9-2.2c0.3,0,0.5,0.2,0.7,0.5
			c-0.2-0.9-0.6-1.7-0.9-2.6c-0.1-0.2-0.3-0.6-0.2-1v-0.9C382.3,79.6,382.5,79.2,382.4,78.7 M388.4,89.2c0.3,0,0.5-0.5,0.5-0.8
			c-0.1,0-0.4,0-0.5,0.2c0,0.1,0.1,0.3,0,0.3C388.3,89,388.3,89.2,388.4,89.2 M386.9,89.6c-0.4,0-0.7,0.8-0.7,0.8v0.2
			c0.4,0,0.4-0.8,1.2-0.8v-0.3C387.2,89.6,387.1,89.6,386.9,89.6 M385.1,90.9L385.1,90.9C385.2,91,385.2,91,385.1,90.9L385.1,90.9z
			 M384.5,91.6c-0.1,0.1-0.1,0.3,0,0.3c0.3,0,0.7-0.6,0.8-0.8l-0.1-0.1C384.9,91,384.6,91.3,384.5,91.6 M380,92.7
			c-0.1,0.3-0.6,0.5-0.6,0.9c0,0.2,0.2,0.2,0.2,0.4v0.9h0.2c0.3-0.3,0.5-0.1,0.8-0.6c-0.1-0.2-0.6-0.2-0.6-0.5
			c0-0.6,0.5-0.3,0.9-0.3c0-0.1,0.1-0.3,0.2-0.3c0.5,0.4,0.9,0.5,1.4,0.9c0.3-0.5,0.5-1.3,1.1-1.3c0.5,0,0.7-0.1,1-0.3
			c-0.1,0-0.4-0.3-0.4-0.5s0.1-0.3,0.2-0.5c-0.2-0.1-0.4,0.1-0.7,0.1c-1.2,0-1.6-1.2-2.5-1.9c-0.1,0.1-0.2,0.2-0.2,0.5
			c0,0.2,0.2,0.2,0.2,0.4c0,0.5-0.2,2-0.8,2c-0.1,0-0.2,0-0.3,0l0.1,0.1c-0.1-0.1-0.2-0.1-0.2-0.2L380,92.7L380,92.7z M376.4,101.1
			c-0.3,0-0.5,1.2-1,1.2h-2c-0.8,0-1.1,0.9-1.8,1.5c-0.1,0.1-0.4,0.1-0.4,0.3c0,0.1,0.2,0.1,0.4,0.1c0.7,0,1.2-0.3,1.6-0.5
			c0.2-0.2,0.4,0,0.7-0.1c0.1,0,0.1-0.3,0.3-0.3c0.4,0,0.6,0.2,0.9,0.3c0,0.2-0.1,0.4-0.1,0.6c0,0.1-0.1,0.3,0,0.3
			c0.2,0,0.2,0.3,0.4,0.4c0.2-0.4,0.5-1,0.8-1c0.1,0,0.2,0,0.3,0c0,0-0.3-0.5-0.3-0.6s0.1-0.3,0.2-0.3c0.3,0,0.3,0.6,0.9,0.6
			c0.3,0,0.4-0.2,0.6-0.5h0.3c0,0.1,0.1,0.2,0.2,0.2c0.1-0.5,0.4-0.6,0.9-0.9c0,0.3-0.2,0.3,0,0.6c0.4-0.1,0.4-0.5,0.8-0.8
			c-0.1-0.2-0.2-0.4-0.2-0.7c0-0.5,0.3-0.7,0.3-1.1c0-0.4-0.1-1.6,0.2-1.7c0.1,0,0.2,0,0.3-0.1v-0.2c0-0.5,0.4-0.6,0.4-1.2
			c0-0.5-0.4-0.8-0.4-1.3c0-0.3,0-0.5-0.1-0.8c0-0.1-0.2-0.2-0.4-0.2c-0.1,0,0,0.3,0.1,0.3h0.1c-0.4,0.4-0.3-0.1-0.4-0.1
			c-0.4,0-0.7,0.9-0.7,1.4c0,0.2,0.1,0.2,0.1,0.5c0,1.2-1.1,2.8-1.7,3.1c-0.4,0.2-0.4,0.5-0.9,0.5c-0.1,0-0.2-0.1-0.2-0.2
			c0-0.2,0.1-0.3,0.2-0.4C376.8,100.2,376.4,101.1,376.4,101.1 M373,105.7c0.4,0,0.5-0.6,0.8-0.9c0.1,0,0.2,0.3,0.5,0.3
			s0.7-1.3,0-1.3c-0.4,0-0.5,0.6-1.1,0.4l-0.6,0.6c0,0.2,0.1,0.3,0.3,0.4C372.8,105.3,372.8,105.7,373,105.7 M370.1,105.4
			c0,0.2,0.2,0.4,0.3,0.4c0.1,0,0.2-0.2,0.4-0.2c-0.1-0.1,0-0.2,0-0.3c0,0.2,0.1,0.4,0.3,0.5l-0.1,0.5c0,0-0.3,0.5-0.3,0.6
			s0.2,0.6,0.4,0.6v-0.2c0,0.1,0,0.3,0.1,0.3c0.4,0,0.7-1.2,0.8-1.8c0.1,0.1,0.2,0,0.3,0c-0.1-0.1,0-0.3,0-0.4l-0.3-0.3
			c-0.1,0,0-0.3,0-0.4c-0.4,0-0.6-0.3-0.8-0.3C371,104.5,370.1,105.2,370.1,105.4 M341.5,141.3l-0.2,0.1l0,0c0,0.2,0.4,0.8,0.6,0.8
			C342.2,142.2,341.7,141.5,341.5,141.3 M342.7,143.6h-0.3v0.1c0,0.3,0.4,0.9,0.6,0.9c0-0.4-0.1-0.6-0.3-0.9L342.7,143.6
			L342.7,143.6z M350.7,145.9c0.2,0,0.3-0.2,0.4-0.5c-0.1,0-0.2-0.2-0.3-0.2h-0.3v0.2C350.5,145.7,350.5,145.9,350.7,145.9
			 M348.8,144.9c0,0.1,0.2,0.5,0.2,0.5c0.1,0,0.2,0.2,0.4,0.2h0.2c0-0.1,0-0.3,0-0.4c-0.4,0-0.6-0.7-0.8-1.3c-0.2,0-0.7,0.3-0.7,0.5
			C348.2,144.8,348.7,144.6,348.8,144.9 M353.3,121c0-0.2-0.2-0.6-0.4-0.6c-0.4,0-1.5,0.9-1.7,0.9s0,0.3,0,0.6
			c0,0.5,0.2,0.8,0.7,0.8C352.3,122.7,353.3,121.5,353.3,121 M362.6,114.6c-0.4,0-1.1,1.5-1.1,2.3c0,0.6-0.1,1.1,0.5,1.1
			C362.7,117.9,363.4,114.6,362.6,114.6 M363,128.2c0.1,0.1,0.2,0,0.3,0C363.2,128.2,363.1,128.2,363,128.2 M362.7,129.3
			c0.1,0,0.3-0.4,0.2-0.7c-0.1-0.4-0.4-0.3-0.7-0.6h-0.3C361.9,128,362.5,129.3,362.7,129.3 M365,129.9c0-0.4-0.4-0.5-0.5-0.8h-0.3
			c0,0.1,0,0.3,0,0.5c0.1,0,0.3,0,0.4,0C364.7,129.7,365,130.1,365,129.9 M365.6,131.7c-0.1,0.1-0.2,0.1-0.4,0
			c-0.1,0.2-0.3,0.3-0.3,0.5c0,0.1,0.1,0.2,0.2,0.2C365.4,132.4,365.6,132.1,365.6,131.7 M364.7,132.1h0.1c0-0.5,0.4-0.6,0.4-1.2
			c-0.1,0-0.2,0-0.3,0C365,131.5,364.8,131.7,364.7,132.1 M364.4,130.8c-0.1,0-0.3,0.8-0.3,0.9c-0.1,0-0.3,0.1-0.3,0.2
			c0,0.2,0.5,0.9,0.6,0.9s0.2-0.1,0.2-0.2c0-0.2-0.1-0.1-0.1-0.4c0-0.4,0.3-0.6,0.3-1C364.9,131,364.7,130.7,364.4,130.8
			 M363.6,129.9c0-0.1-0.1-0.1-0.1-0.1c-0.1,0-0.2,0.1-0.2,0.2c0,0.3,0.1,0.9,0.1,1.5c0.3-0.2,0.9-0.5,0.9-1
			C364.3,130.1,363.8,130,363.6,129.9 M366,129.2c-0.2,0-0.4-0.1-0.6-0.1c-0.1,0-0.2,0.1-0.3,0.1c0,0.3,0.7,0.5,0.7,1
			c0,0.1-0.1,0.2-0.1,0.2s-0.2,0-0.4,0v0.2c0,0.1,0.2,0.4,0.4,0.4v0.2c-0.1,0.2-0.1,0.5,0.1,0.5c0.1,0,0.2,0,0.3,0v-0.2
			c-0.1-0.1-0.2-0.4-0.2-0.7h0.4c0-0.1,0.1-0.2,0.1-0.4l-0.2-0.3c0,0,0-0.3,0-0.5c-0.1,0-0.1,0-0.2,0
			C366.1,129.5,366,129.3,366,129.2 M361.2,126.3c0,0.2,0.5,0.6,0.6,0.6s0.1-0.1,0.2-0.2h0.2v0.3c-0.1,0.1-0.2,0.2-0.2,0.4
			s0.2,0.5,0.4,0.5c0.2,0,0.3-0.2,0.5-0.2c0.4,0,0.4,0.7,0.8,0.7c-0.1-0.3-0.2-0.4,0-0.6c0.2,0.3,0.9,0.6,1,1c0,0.1,0.1,0.3,0.1,0.3
			c0.1,0,0.1-0.1,0.1-0.2c0-0.1,0-0.2,0-0.3c-0.2,0-0.4-0.1-0.4-0.4c-0.1,0-0.2,0.1-0.2,0c0-0.2,0.1-0.2,0.2-0.4
			c-0.1,0-0.1-0.1-0.2-0.1s-0.1,0.2-0.3,0.2c-0.2,0-0.3-0.8-0.6-0.8c-0.2,0-0.3,0.1-0.3,0.3c0,0,0,0.1,0,0.2c-0.3-0.2-0.7-1-0.7-1.5
			c0-0.7,0.5-0.7,0.5-1.5c0-0.6-0.4-1.1-0.4-1.5c0-0.1-0.1-0.2-0.1-0.2s-0.1-0.1-0.1-0.2c-0.1,0.1-0.2,0.3-0.4,0.3
			c-0.3,0-0.2-0.6-0.5-0.6c-0.2,0-0.3,0.3-0.3,0.7s0.1,0.7,0.1,1.1c0,0.3-0.1,0.8-0.2,1C361.1,125,361.2,125.7,361.2,126.3
			 M359.6,133.2h0.2c0.3-0.3,0.9-0.7,1-1.4c0.2,0,0.4-0.1,0.5-0.3c0.1,0,0.2-0.1,0.3-0.2c-0.1-0.1-0.3-0.2-0.3-0.5
			c-0.1,0.1-0.1,0.3-0.1,0.4C360.9,131.8,359.9,132.2,359.6,133.2 M366.3,131.9c0,0.1,0,0.6-0.1,0.8s-0.6,0.1-0.6,0.5
			c-0.2,0-0.3,0.2-0.3,0.4c-0.1,0-0.1,0-0.2,0c-0.2,0-0.1-0.5-0.5-0.5c-0.5,0-0.4,0.7-1,0.7c-0.1,0.3-0.2,0.5-0.2,0.8
			c0,0.1,0.1,0.2,0.1,0.3s-0.2,0.8,0,0.8c0.3,0,0.3-1.1,0.6-1.4c0,0,0.2,0.3,0.3,0.3l0.1-0.2c0.1,0.1,0.1,0.2,0.3,0.2
			c0-0.1,0-0.2,0-0.3h0.4c0,0.1,0.1,0.2,0.1,0.3c-0.1,0.1-0.1,0.2-0.1,0.4c0,0.6,0.3,1.2,0.7,1.2c0.1,0,0.2,0,0.3,0
			c0,0.1,0.1,0.3,0.1,0.3c0.2,0,0.3-0.2,0.3-0.5c0-0.4-0.3-0.5-0.3-0.7s0.1-0.3,0.3-0.5c0.1,0.1,0.1,0.2,0.2,0.3V135
			c0,0.2,0.3,0.7,0.4,0.8c0-0.6,0.4-0.7,0.4-1.1c0-0.3-0.5-2.2-0.7-2.5C366.7,132.1,366.5,131.9,366.3,131.9 M413.9,160.8
			c0,0.1,0.1,0.3,0.2,0.3c0.3,0,0.4-0.4,0.8-0.5v-0.3C414.7,160.3,413.9,160.3,413.9,160.8 M413.7,162.2v-0.4
			c-0.2,0-0.3-0.2-0.4-0.3c-0.3,0.1-0.7,0.2-0.7,0.7c0,0.2,0.4,0.2,0.7,0.2C413.5,162.3,413.5,162.4,413.7,162.2 M413.6,185.1
			c-0.5,0-0.5,0.4-1.1,0.4c-0.8,0-1.2-0.6-1.2-1.5h-0.2c-0.2,0-0.3,0.2-0.3,0.4h-0.2c-0.2-0.2-0.5-1-0.5-1.2c0-0.1,0.1-0.2,0.1-0.3
			c-0.2-0.1-0.2-0.4-0.4-0.6c-0.3-0.4-0.9-0.4-1.2-1.1c0.2,0.9,0.6,2.2,1.4,2.3c0,0.1-0.1,0.3-0.1,0.4c0,0.3,0.3,0.4,0.3,0.7l0,0
			c0,0.2,0.1,0.5,0.1,0.7c0,0.6-0.1,1.1-0.4,1.5c-0.2,0.2-0.4,0.2-0.4,0.6c0,0.7,1.2,0.4,1.2,1.1c0,0.5-0.4,0.6-0.4,1.1
			c0,0.3,0.2,0.5,0.5,0.5c0.7,0,0.8-0.8,1.2-1.3c0.1-0.1,0.4-0.5,0.4-0.8c0-0.1-0.1-0.3-0.1-0.4c0-0.3,0.3-0.4,0.6-0.5l0.1-0.1
			l0.1,0.2c0.3-0.6,0.2-1.4,0.6-1.9C413.8,185.2,413.7,185.1,413.6,185.1 M409.6,189.5c-0.2,0.1-0.3,0.3-0.5,0.3s-0.2-0.3-0.2-0.5
			c-0.1,0-0.2-0.1-0.2-0.4c-0.3,0.1-0.8,0.7-0.8,1.2c0,0.1,0,0.2,0,0.2c-0.2,0-0.4,0.1-0.6,0.4c0,0.1,0,0.4,0,0.4s-0.4,0.8-0.6,0.9
			c-0.5,0.3-1,1.2-1.8,1.2c-0.2,0-0.4,0.2-0.5,0.5c-0.3,0.6-1.3,1.1-1.3,2.1c0,0.1,0.1,0.2,0.2,0.2c0,0.2,1.2,0.8,1.4,0.8
			c0.2,0,0.6,0.2,0.7,0.2c0.3,0,0.9-0.6,1.2-0.9c0,0,0.9-2.2,1-2.6c0.3,0,1-0.2,1.2-0.2c0.1-0.5-0.1-0.6,0-1.2
			c0.5,0,1.1-1.4,1.2-1.9c-0.1-0.1-0.2-0.3-0.2-0.6C409.7,189.7,409.6,189.6,409.6,189.5 M390.8,170c-0.6-0.7-1.8-1.4-1.8-2.9
			c-0.4,0-0.9,0-1-0.5s-0.2-1.2-0.6-1.7c-0.5-0.6-1.9-1-2.1-1.9c-0.3-0.9-0.5-1.4-0.8-2.5c-0.2-0.6-0.2-1.8-0.5-2.1
			c-0.1-0.1-0.7-0.3-1-0.4c-0.3-0.3-0.2-1-0.3-1.5c-0.2-0.7-0.6-1.4-0.7-2.4c-0.5,0.3-0.4,0.8-0.9,1.3v3.4c-0.2,0.9-0.3,3.1-1.3,3.1
			c-0.6,0-0.8-0.8-1.2-1c-0.8-0.4-1.3-0.6-2.1-0.9c-0.1,0-0.1-0.6-0.3-0.8c-0.2-0.2-0.6-0.1-0.6-0.4l0.4-1.9
			c0.3-0.2,0.7-0.3,0.7-0.8c0-0.3-0.4-0.7-0.6-0.7c-0.3,0-0.5,0.3-0.9,0.3c-1.1,0-1.8-0.5-2.8-1.1c0.1,0.4,0.4,0.5,0.6,0.9
			c-0.1,0-0.3,0.3-0.6,0.3c-0.5,0-1.8,0.3-1.8,0.9c0,0.5-0.5,0.8-0.5,1.3c0,0.3,0.1,0.6-0.1,0.9c-0.1,0-0.3-0.3-0.5-0.3
			c-0.3,0-0.5,0.1-0.7,0.4c-0.1-0.7-0.4-1.4-0.9-1.4c-0.7,0-0.8,0.8-1.7,0.8c-0.1,0.9-0.7,1-0.7,2.1c-0.3,0-0.4-0.2-0.7-0.3
			c-0.2,0.4,0,1-0.3,1.2c-0.1-0.3-0.3-0.4-0.5-0.8c-0.3,0.2-0.4,0.6-0.4,0.9v0.6c0,1.3-2.6,2.3-3.7,2.6c-0.6,0.1-1.7,0.2-2.1,0.6
			c-0.3,0.4-1.1,1.4-1.7,1.4c0-0.1,0-0.3,0-0.4c-0.1,0.1-0.3,0.2-0.3,0.5v2.2c0,0.9,0.4,1.4,0.4,2c0,0.2,0.1,0.3,0,0.5
			c-0.1-0.1-0.2-0.3-0.3-0.5c-0.1,0.2-0.1,0.3-0.2,0.5c-0.2,0.6,0.5,0.8,0.6,1.3c0.4,1.5,0.5,2,0.9,3.7c0.2,0.7,0.6,1.3,0.6,2.4
			c0,0.9-0.7,1.1-0.7,1.7c0,0.5,1.5,1.3,2,1.3c1.4,0,1.9-1.2,3-1.2c0.4,0,0.4-0.3,0.9,0c0.7,0,1.2-0.2,1.9-0.3
			c0.3-1.9,2.2-1.2,3.8-1.9c0.7-0.3,0.9-0.9,2-0.9c1,0,2.9,0.4,3.4,1.1c0.3,0.4,0.9,2.3,1.2,2.3c0,0-0.1,0.7,0.3,0.7
			c0.7,0,1.5-2,2-2.6c0,0.6-0.1,2.5-0.9,2.7c0,0.2,0.2,0.4,0.3,0.4c0.5,0,0.5-0.7,0.8-0.8c0-0.1,0.1-0.3,0.1-0.4
			c0.1,0.1,0.3,0.3,0.3,0.8c0,0.4-0.1,0.6-0.2,0.8h0.4c0.3-0.1,0.4-0.1,0.6-0.3v0.2c0,0.5,0.4,0.9,0.4,1.5c0,1.5,2,2.5,3.2,2.5
			c0.8,0,0.5-0.8,1.3-0.8c0,0.2,1.3,1.1,1.6,1.1c0.3-1.8,2.8-1,3.2-2.8v0.1c0-1.3,0.7-2.5,0.9-3.4c0.3-1.2,0.9-1.6,1.5-2.6
			c0.2-0.3,0.1-0.4,0.2-0.8v-1.1c0.3-0.3,0.5-1.5,0.5-2.3c0-1.1-0.3-3.2-0.8-4L390.8,170z M371.3,155.4h0.3v-0.6
			c-0.5,0-0.7,0-1.3,0.2C370.5,155.1,371,155.4,371.3,155.4 M376.3,183c0.3,0.3,0.8,0.3,1.1,0C377,182.8,376.9,182.7,376.3,183
			 M386.9,188.6c0-0.2,0.1-0.3,0.1-0.6c-0.1,0-0.3,0-0.4,0C386.5,188.2,386.6,188.5,386.9,188.6 M385.3,189.3c0,0-1.7-0.6-1.7,0
			c0,0.8,1,3.6,2,3.6c0.6,0,1.5-2,1.5-2.8c0-0.5-0.3-0.7-0.3-1.1C386.2,189.1,385.7,189.3,385.3,189.3 M394.4,149.5l0.2,0.1
			c0,0-0.1,0-0.2,0l0.5,0.4h0.3C394.9,149.7,394.7,149.8,394.4,149.5 M395.9,150.6L395.9,150.6c-0.1,0.4,0.7,0.7,0.9,0.7
			c0.1,0,0.2,0,0.3-0.1c-0.2-0.3-0.8-0.6-1.1-0.8L395.9,150.6z M397.7,151.4c0,0.3,0.6,1.2,0.9,1.2
			C398.5,152,398.2,151.7,397.7,151.4 M397.6,152.8c0,0.5,0.5,0.6,0.9,0.6c0,0,0.1-0.1,0.2-0.1C398.4,153,398.1,152.8,397.6,152.8
			 M399,153.4c0,0.2,0.2,0.8,0.5,0.8c0-0.1,0-0.1,0-0.2C399.5,153.7,399.2,153.6,399,153.4 M392.9,148.4c-0.1,0.4,0.1,0.8,0.4,0.8
			v0.3c0,0.1,0.1,0.3,0.2,0.3s0.2-0.2,0.2-0.3S393.1,148.5,392.9,148.4 M390.8,146.4c-0.3-0.4-0.6-0.9-1.2-1.1
			c0.1,0.3,0.3,0.3,0.6,0.5c0.4,0.3,0.3,0.7,0.8,0.9c-0.1,0.4-0.1,0.6,0.3,0.7c0.1,0.1,0.1,0,0.2,0c0-0.1,0-0.2,0-0.3
			C391.4,146.6,391.1,146.7,390.8,146.4 M385.6,148.8c-0.8-0.5-0.7-1.5-1.7-1.8c-0.2,0-0.4-0.1-0.4-0.4c-0.4,0-0.6-0.5-0.9-0.5
			c-0.7,0-1.7-0.4-2.1-0.8l0,0c0,0,0,0-0.1,0l-0.1-0.1l0.1,0.1c-0.2-0.1-0.4-0.2-0.5-0.3H379c-0.2-0.1-0.4-0.6-0.8-0.7
			c-0.1,0-0.3,0-0.4-0.2c-0.4,0.1-0.8,0.8-1,0.9c-0.4,0.2-0.5,0.2-0.8,0.5c-0.1,0.1-0.3,0.6-0.6,0.6c-0.2,0-0.6-0.6-0.6-0.8
			c-0.3,0-0.5-0.1-0.5-0.3v-1.4c-0.6-0.2-1-0.8-1.5-0.8c-0.6,0-0.8,0.6-1.2,0.6c-0.2,0-0.4,0.1-0.4,0.3c0,0.5,0.8,0.3,1,0.8
			c0,0.1,0.1,0.3,0.2,0.3c0.2,0,0.3,0.1,0.4,0.1c0.3,0,0.6,0,0.9-0.2h0.2c-0.2,0.5-1.2,0.4-1.6,0.6c0.1,0.3,0.4,0.1,0.6,0.4
			c0.2,0.3,0,0.5,0.2,0.8c0,0.1,0.2,0.1,0.3,0.1c0.3,0,0.4-0.4,0.5-0.7v0.3c0.5-0.2,0.7,0.8,1.2,0.8s1.4,0.2,1.7,0.4
			c0.3,0.2,1.2,0.6,1.3,1.1c0.2,0.6,0,1.1,0.4,1.6c-0.2,0.1-0.8,0.3-0.8,0.8c0,0.3,0.3,0.3,0.5,0.3h0.7c0-0.2,0.3-0.2,0.5-0.2
			c0.8,0,1,1.2,1.9,1.2h1.2c0-0.3,0.3-0.4,0.2-0.9c0.4-0.3,0.4-0.9,1.2-0.9c1,0,1.6,1.1,2.2,1.8c0.1,0.1,0.3,0.1,0.3,0.3
			c0,0.4,0.7,0.8,1.2,0.9h0.8c0.1,0.1,0.5,0.5,0.6,0.5h0.2c0-0.3,0.2-0.5,0.4-0.6c-0.1,0-0.6,0-0.6-0.1c-0.1-0.2-0.1-0.4-0.3-0.5
			c-0.1,0-0.3,0.1-0.4-0.1c-0.1-0.2-0.2-0.4-0.3-0.4c-0.2,0-0.6-0.2-0.7-0.4c-0.3-0.5-0.2-0.7-0.5-1.1c-0.1-0.1-0.6-0.7-0.6-0.9
			c0-0.3,0.6-0.2,0.6-0.6C386.5,148.6,385.9,149,385.6,148.8 M387.1,148.5c0.1,0.4,0.5,0.4,0.8,0.7l0,0c0,0,0.1,0,0.1,0.1l-0.1-0.1
			c0.1,0.1,0.4,0.3,0.5,0.3c0.7,0,0.9-0.4,1.5-0.6c0-0.7,0.7-0.5,0.7-1.3c0-0.2-0.1-0.6-0.3-0.6c-0.4,0-0.3,0.8-0.7,1.1
			c-0.3,0.1-0.8,0.1-1.2,0.3l-0.3,0.1H387.1z M368.4,140c-0.3,0.2-0.3,0.5-0.3,0.8c0,0.5,0.3,0.6,0.3,1.1v0.5c0,0.2,0.1,0.7,0.4,0.7
			c-0.2-0.3-0.2-0.4-0.3-0.6v-0.3c0.2,0,0.6,0,0.7-0.1c0-0.3-0.3-0.4-0.3-0.6c0-0.2,0.3-0.3,0.3-0.5
			C368.7,140.9,368.4,140.6,368.4,140 M368.5,146c0,0,0.4,0.2,0.6,0.2h0.7c0.4,0,0.7,0.4,1.1,0.4c0.1,0,0.2,0,0.2-0.1
			c0-0.3-0.3-0.4-0.4-0.7h-0.1c-0.2,0-0.4,0.1-0.5-0.2h-1.4C368.7,145.8,368.5,145.8,368.5,146 M366.9,146c0,0.3,0.4,0.7,0.6,0.7
			c0.1,0,0.3-0.4,0.3-0.5C367.8,145.9,366.9,145.6,366.9,146 M374.7,148.9c0-0.3-0.1-0.1-0.1-0.4c-0.2,0-0.2,0.4-0.2,0.6
			c0,0.2-0.3,0.3-0.3,0.6c0,0.1,0.1,0.3,0.2,0.3c0.3,0,0.2-0.4,0.2-0.8C374.6,149.3,374.7,149.1,374.7,148.9 M366,152.7
			c0.5,0,1.5-0.3,1.9-0.9c-0.3-0.2-1.7-0.1-2,0.3c-0.1,0.1-0.1,0.3-0.2,0.3c-0.5,0.2-1.1,0.2-1.1,1c0,0.2,0.1,0.3,0.2,0.3
			c0.3,0,0.9-0.5,1-0.6C366,153.1,365.8,152.7,366,152.7 M358.2,151.5h-0.3v0.4c0,0.1,0.2,0.3,0.3,0.3c0.2,0,0.3-0.2,0.3-0.4
			C358.3,151.7,358.3,151.5,358.2,151.5 M361.6,152.6h-0.3c-0.2,0-0.6-0.1-0.6,0.2c0,0.4,0.5,0.4,0.8,0.4c0,0.1,0,0.5,0.2,0.5h0.1
			c0.1,0,0.3-0.1,0.3-0.3C362.1,153,361.6,153.1,361.6,152.6 M359.8,151.5c0,0.1,0,0.2,0,0.3c-0.2-0.1-0.3-0.1-0.6-0.1
			c-0.3,0-0.5,0-0.5,0.4c0,0.2,0.4,0.3,0.6,0.3c0.3,0,0.4-0.2,0.8-0.4l0.3,0.1h0.3c-0.1-0.1,0-0.3,0-0.6H359.8z M363.2,152.2
			c0.4-0.2,0.7-0.3,0.9-0.8c-0.3,0.1-0.4,0.4-0.9,0.4s-0.7-0.3-1.3-0.3c-0.2,0-0.6,0-0.6,0.3c0,0.4,0.5,0.4,0.7,0.4L363.2,152.2
			L363.2,152.2z M356.6,151.7c0.4,0,0.3,0.3,0.7,0.3c0.1,0,0.3-0.3,0.3-0.4c-0.2-0.1-0.2-0.2-0.5-0.3s-0.5,0.2-0.8-0.1
			c-0.1-0.1-0.1-0.3-0.3-0.3c-0.6,0-1-0.1-1.3-0.5c0.1,0,1.1-0.1,1.2-0.3h-0.3l-0.9,0.1c-0.6,0-0.8-0.7-1.4-0.7
			c-0.4,0-0.5,0.6-0.9,0.6c-1,0-1.5-1.2-2.4-1.2c-0.2,0-0.3,0.2-0.5,0.2c-0.1,0-0.2-0.2-0.3-0.2c-0.2,0-0.8,0.7-0.8,0.8
			c0.5,0,0.7,0.5,1,0.8c0.3,0.4,0.8,0,1.3,0.2c0.6,0.2,1.1,0.3,1.7,0.3c0.3,0,0.4,0.5,0.8,0.5c1.2,0,2.3,0.1,3.3,0.6
			C356.5,151.9,356.5,151.7,356.6,151.7 M362.6,142.1c0.5,0,0.8-0.1,1.2-0.1c0.4,0,0.7,0.3,1.1,0.3c0.6,0,0.9-0.6,0.9-1.2
			c0.1,0,0.1-0.2,0.2-0.3h-0.2c-0.4,0.3-0.8,0.6-1,0.9h-0.3l-2.2-0.5c-0.8,0-1.2,1.3-1.2,2.2c0,0.2-0.3,0.4-0.3,0.6
			c-0.2,0.9-0.6,1.2-0.6,2c0,0.5,0.4,0.5,0.6,0.5v1.8c0,0.2,0.3,0.5,0.5,0.5c0.4,0,0.5-1.3,0.5-1.5c0-0.5-0.3-0.8-0.3-1.2
			c0-0.3,0.3-0.5,0.5-0.5c0.1,0,0.2,0,0.3,0l-0.1,0.8c0,0.5,0.5,0.7,0.5,1.2c0,0.1,0,0.2,0,0.3h0.4c0-0.4,0.7-0.4,0.7-0.8
			c-0.1,0-0.4-0.5-0.4-0.7c0-0.1,0.1-0.1,0.1-0.2c-0.2-0.1-0.8-1.5-0.8-1.6c0.9,0,0.9-0.8,1.7-1.1v-0.3c-0.2,0-1.9,0.6-1.9,0.7
			l0.1-0.1c-0.1,0.2-0.2,0.4-0.4,0.4c-0.5,0-0.7-0.7-0.7-1.3C361.6,142,362.1,142.1,362.6,142.1 M351.5,141.7c0,0.2,0.3,1.5,0.5,1.6
			c0.2,0,0.3,0,0.4,0.2c0,0,0,0.1,0,0.2c0.4,0.8-0.1,2.1,1.1,2.1c0.3,0,0.4-0.2,0.7-0.2c0,0.1,0,0.6,0.1,0.6s0.2,0.2,0.2,0.2
			c0.4,0,0.5-0.4,0.8-0.4c0.5,0,0.9,0.4,1.4,0.6c0,0.2,0.1,0.5,0.4,0.5c0.4,0,0.5-0.5,1-0.6c0-0.4,0.4-1,0.4-1.3
			c0-0.2-0.2-0.3-0.2-0.5s0.3-0.8,0.7-0.9c0-0.6,0.3-0.9,0.4-1.7l0.2-0.4c0.1,0,0.2-0.1,0.3-0.1c0.3,0,0.6,0.2,0.7-0.4
			c-0.6,0-1.4-1.9-1.4-2.5c0-0.1,0.1-0.2,0.2-0.3c0-0.1-0.1-0.2-0.1-0.3c0,0,0.9-0.4,0.9-0.5c-0.1,0-0.1-0.1-0.1-0.2
			c0-0.3,0.7-0.1,0.7-0.5c0-0.8-1.3-0.3-1.3-1.1c0-0.6,0.1-0.9-0.5-0.9c-0.5,0-1.2,1.4-1.4,2c-0.1,0.3-0.8,0.1-1.1,0.5
			c-0.1,0.1-0.1,0.3-0.2,0.3c-0.2,0.1-0.1,0.2-0.3,0.3c0,0-0.3,0.3-0.2,0.5c-0.3,0.3-0.3,0.7-0.7,0.8c-0.3,0.1-0.7,0.1-0.9,0.3
			c-0.4,0.5-0.3,1.7-1.3,1.7C352.2,141.3,351.5,141,351.5,141.7 M348.6,148.3c0-0.4-0.2-0.9,0.2-1.1v-1.6c0-0.4-0.4-0.5-0.6-0.7
			c-0.3-0.4-0.7-0.6-0.7-1.4c-0.3,0-0.6-0.1-0.6-0.6l0.1-0.4c-0.1-0.2-0.2-0.3-0.3-0.3h-0.2l0.1-0.2c0-0.6-0.5-0.8-1-0.9
			c-0.9-0.3-1.2-0.8-1.8-1.5c-0.3-0.4-0.5-0.8-1-1c-0.1,0-0.3,0-0.3-0.2c-0.3-0.6-0.5-1.2-1.2-1.4h-1c-0.3-0.2-0.3-0.3-0.6-0.3h-0.2
			v0.3c0.1,0.4,0.6,1.4,0.9,1.5s0.6,0,0.7,0.3c0.2,0.5,0.3,0.7,0.5,1.1c0.2,0.5,0.9,0.4,1.2,1.2c0.1,0.3,0.3,1.2,0.4,1.3
			s0.5,0.1,0.5,0.2c0.1,0.1,0,0.3,0.1,0.3s0.5,0.8,0.5,0.9c0.3,0.9,0.6,1.5,1.2,2.3c0.6,0.7,1.1,1,1.7,1.7c0,0,0.6,1,0.8,1
			C348,148.8,348.6,148.7,348.6,148.3 M325.2,135.2c0,0.5,0.3,1.1,0.8,1.1c0.6,0,1-0.9,1-1.5c0-1.2-0.9-1.7-1.4-2.6
			C325.7,133.2,325.2,134.1,325.2,135.2 M298.9,159.6v0.6c-0.2-0.1-0.5-0.2-0.5-0.2c0,2.8-0.7,4.6-1.4,6.8c-0.6,1.7-0.9,4.2-2.8,4.2
			c-0.8,0-1.5-1.1-1.5-2.1c0-0.5,0.1-0.7,0.1-0.9c-0.4-0.3-0.4-0.9-0.4-1.5c0-0.1,0.6-0.8,0.6-0.8s0.6-1.6,0.6-1.7
			c0-0.4-0.5-1.4-0.5-2c0-1.8,1.1-1.7,2-2.4c0.7-0.5,1.7-1.9,2.2-2.5c0.2-0.2,0.1-0.8,0.2-1.1C298.7,156.2,298.6,158.6,298.9,159.6"
			/>
	</g>
	<g>
		<defs>
			<rect id="SVGID_5_" x="4.7" y="3" width="548.4" height="209.5"/>
		</defs>
		<clipPath id="SVGID_6_">
			<use xlink:href="#SVGID_5_"  style="overflow:visible;"/>
		</clipPath>
		<path class="st2" d="M268.8,3.9C211.5,3.9,165,50.5,165,107.7s46.6,103.8,103.8,103.8c57.3,0,103.9-46.6,103.9-103.8
			C372.6,50.5,326,3.9,268.8,3.9 M268.8,212.5c-57.8,0-104.7-47-104.7-104.7C164,50,211,3,268.8,3s104.8,47,104.8,104.7
			C373.6,165.5,326.6,212.5,268.8,212.5"/>
	</g>
</g>
<path class="st3" d="M263.3,210l-5.9-2.5l-5.9-3.1l-8.5-5.3l-7.6-5.6l-4.2-3.8l0.4-0.3l4.3-2.6l4.4-2.1l5.6-2.3l1.9-0.6l1.4,3.7
	l3.1,6.8l3.2,5.7l2.9,4.3l2.6,3.4l4.2,4.4l1.2,1L263.3,210z M270.1,210.1l4.2-4.4l2.6-3.4l2.9-4.3l3.1-5.7l3.2-6.8l1.7-4.6l2.3,0.5
	l4.8,1.6l3.3,1.6l2.6,1.3l4.5,2.7l-5.4,4.9l-7.6,5.6l-8.4,5.3l-5.9,3.1l-5.9,2.5l-3.3,1.2L270.1,210.1z M265.5,209.8l-4.1-4.4
	l-2.6-3.4l-2.9-4.3l-3.1-5.7l-3.1-6.7l-1.4-3.7l2.2-0.7l7-1.2l5.6-0.6l4.3-0.1v32.2L265.5,209.8z M267.8,179l2.2-0.1l7.1,0.2l7.1,1
	l3,0.7l-1.6,4.5l-3.2,6.7l-3.1,5.6l-2.9,4.3l-2.6,3.4l-4.1,4.4l-1.9,1.7V179z M301.1,185.5l-2.7-1.3l-3.4-1.6l-4.8-1.6l-2.2-0.5
	l2.9-8.5l4-16.1l2.1-11.7v-0.1l5.1,0.7l6.1,1l7.9,1.6l7.4,1.9l6.9,2.1l-1.7,3.8l-3.1,6.7l-7.5,11.9l-4.8,6.3l-6.1,6.6l-1.6,1.4
	L301.1,185.5z M228,186.8l-5.9-6.6l-5-6.3l-7.4-11.9l-3.2-6.7l-1.6-3.9l7.2-2.2l9.5-2.4l9.3-1.7l7.4-0.9l2.1,11.8l4,16.1l2.4,7.2
	l0.8,2.1l-1.9,0.6l-5.7,2.3l-4.4,2.1l-4.3,2.6l-0.5,0.4L228,186.8z M247.2,179.1l-2.4-7.2l-4-16.1l-2.1-11.7V144l1.2-0.1l9.3-0.7
	l10.2-0.4h7.9v35.8l-4.4,0.1l-5.7,0.6l-7.1,1.2l-2.3,0.7L247.2,179.1z M267.8,142.8h11.6l8.2,0.5l8.7,0.8h0.2l-2.1,11.8l-4,16.1
	l-2.5,7.2l-0.5,1.3l-3.1-0.7l-7.2-1l-7.2-0.2l-2.2,0.1v-35.9H267.8z M204.2,149.6l-3-8.2l-2.4-8.3l-1.4-7.7l-1-7.8v-10.3h39.2v2.2
	l0.2,10.6l0.8,11.3l1.6,12.2l-7.4,0.9l-9.4,1.7l-9.5,2.4l-7.3,2.2L204.2,149.6z M237.1,131.3l-0.8-11.3l-0.2-10.6v-2.2h31.3v35h-7.9
	l-10.2,0.4l-9.4,0.7l-1.2,0.2L237.1,131.3z M267.8,107.3h31.3v2.1l-0.2,10.6l-0.8,11.3l-1.5,12.2l-8.9-0.8l-8.2-0.5h-11.6
	L267.8,107.3L267.8,107.3z M323.7,148.9l-7.5-1.9l-7.9-1.6l-6.1-1l-5.1-0.7l1.5-12.3l0.8-11.3l0.2-10.6v-2.2h39.3l-0.1,10.3
	l-0.9,7.8l-1.4,7.7l-2.4,8.3l-2.9,8.2l-0.6,1.3L323.7,148.9z M236.1,99.1l0.7-13.2l1.4-11.3l0.4-2.4l1.3,0.2l9.4,0.7l10.3,0.4h7.9
	v33.4h-31.3L236.1,99.1L236.1,99.1z M267.8,73.4h11.7l8.2-0.5l8.7-0.8h0.3l0.4,2.4l1.4,11.2l0.7,13.2v7.7h-31.3V73.4H267.8z
	 M196.4,103l0.6-9.5l1.2-7.6l1.7-7.7l3.8-11.6l0.8-1.8l7.4,2.2l9.5,2.4l9.4,1.7l7.3,0.9l-0.4,2.4l-1.4,11.3L235.5,99v7.7h-39.2
	L196.4,103z M299.6,99l-0.8-13.3l-1.4-11.3L297,72l5.1-0.7l6.1-1l7.9-1.6l7.4-2l7-2.1l0.9,1.9l3.8,11.6l1.8,7.7l1.2,7.6l0.6,9.5v3.9
	h-39.3L299.6,99z M277.3,37l7.2-1l3.2-0.8l3.1,9.1l3.1,11.5l1.6,8.2l1.1,7.6l-8.9,0.8l-8.2,0.5h-11.6V37.2l2.2,0.1L277.3,37z
	 M249.3,72.5l-9.3-0.7l-1.3-0.2l1.1-7.6l1.7-8.2l3-11.5l2.9-8.5l0.5-1.4l2.4,0.8l7.1,1.2L263,37l4.3,0.2v35.7h-7.9L249.3,72.5z
	 M295.9,64l-1.6-8.2l-3.1-11.6l-2.9-8.5l-0.2-0.5l2.2-0.5l4.8-1.5l3.4-1.5l2.7-1.4l4.6-2.7l0.2-0.1l2.3,2.3l6,6.7l6.7,8.8l4.8,8.7
	l4.8,10.4l-7,2.1l-7.4,2l-7.9,1.6l-6.1,1l-5.1,0.7L295.9,64z M230.9,70.7l-9.3-1.7l-9.5-2.4l-7.3-2.2l4.8-10.5l4.8-8.6l6.8-8.9
	l5.9-6.7l3.5-3.4l0.7,0.5l4.3,2.5l4.4,2.2l5.7,2.3l1.7,0.5l-0.5,1.3l-2.9,8.6l-3,11.5l-1.7,8.2l-1.1,7.6L230.9,70.7z M245.9,33.4
	l-5.7-2.3l-4.4-2.2l-4.3-2.5l-0.6-0.5l1.9-1.9l5.6-4.6l8.2-5.7l11.3-5.9l8-3.2l-1.3,1.1l-3,3.1l-3.4,4.5l-3.5,5.4l-2.7,4.7l-2.5,5.3
	l-2.1,5.5L245.9,33.4z M285.6,28.4l-2.6-5.3l-2.7-4.7l-3.5-5.4l-3.4-4.5l-2.9-3.1l-1.4-1.2l8.2,3.4l11.3,5.9l8.2,5.7l5.6,4.6l3.1,3
	l-4.7,2.8l-2.7,1.4l-3.3,1.5L290,34l-2.2,0.5L285.6,28.4z M263.1,36.5l-5.6-0.5l-7-1.2L248,34l2-5.4l2.5-5.2l2.7-4.6l3.5-5.4
	l3.4-4.4l2.9-3.1l2.3-2v32.8L263.1,36.5z M267.8,36.7V3.8l2.3,2.1L273,9l3.4,4.4l3.5,5.4l2.7,4.6l2.6,5.2l2.3,6.2l-3.1,0.8l-7.1,1
	l-7.1,0.3L267.8,36.7z M267.4,3.2v0.2h-0.1l0,0l-0.1,0.1l-9.3,3.8l-11.4,6l-8.3,5.7l-5.6,4.7l-2,2l-3.9-2.9l-4.5-3.8l-2.9-2.7
	l-0.3,0.3l2.9,2.7l4.5,3.8l3.9,2.8l-3.4,3.4l-5.9,6.8l-7,8.9l-4.9,8.7l-4.8,10.6l-0.5-0.2l-13.3-5.4l-10.8-5.1l-0.2,0.4l10.8,5.1
	l13.3,5.4l0.5,0.2l-0.8,1.7L199.5,78l-1.7,7.7l-1.2,7.7l-0.6,9.5v3.9h-31.7v0.5H196l0.1,10.4l1,7.9l1.4,7.7l2.4,8.3l3,8.2l0.5,1.2
	l-0.6,0.2l-13.3,5.4l-10.8,5.1l0.2,0.4l10.8-5.1l13.3-5.4l0.7-0.2l1.6,4l3.2,6.8l7.5,12l5,6.4l6,6.6l2.7,2.5l-4.1,3l-4.5,3.8
	l-2.9,2.7l0.3,0.4l2.9-2.7l4.5-3.8l4.1-3.1l4.3,3.9l7.7,5.6l8.5,5.3l6,3.1l6,2.5l4.3,1.5v0.3h0.5v-0.1l0,0V212l4.4-1.6l6-2.5l6-3.1
	l8.5-5.3l7.6-5.6l5.5-5l4.4,3.4l3.8,3.4l3.8,4l0.3-0.3l-3.8-4L311,192l-4.4-3.4l1.5-1.4l6.1-6.6l4.8-6.4l7.5-12l3.1-6.8l1.7-3.9
	l1.1,0.3l10,3.5l6.4,2.6l5.9,2.5l3.5,1.5l0.2-0.4l-9.4-4l-6.4-2.6l-10-3.6l-1-0.3l0.6-1.3l2.9-8.2l2.4-8.4l1.4-7.7l0.9-7.9l0.1-10.3
	h33.9v-0.5h-33.9v-3.9l-0.6-9.5l-1.2-7.7l-1.8-7.7L332,66.4l-0.8-1.8l1-0.3l10-3.6l6.4-2.6l5.9-2.5l3.5-1.5l-0.2-0.4l-3.5,1.5
	l-5.9,2.5l-6.4,2.6l-10,3.5l-1,0.3l-4.8-10.4l-4.8-8.7l-6.8-8.9l-6-6.8l-2.3-2.2l4.2-3.2l3.8-3.5l3.8-4l-0.4-0.3l-3.7,4l-3.8,3.5
	l-4.3,3.2l-3.1-3.1l-5.6-4.7l-8.3-5.8l-11.4-5.9l-9.7-4V3.2C267.8,3.2,267.4,3.2,267.4,3.2z"/>
<polygon class="st4" points="279.1,85.7 486.3,85.7 477.8,129.3 270.6,129.3 "/>
<g>
	<g>
		<defs>
			<rect id="SVGID_7_" x="4.7" y="3" width="548.4" height="209.5"/>
		</defs>
		<clipPath id="SVGID_8_">
			<use xlink:href="#SVGID_7_"  style="overflow:visible;"/>
		</clipPath>
		<path class="st5" d="M457.5,97.5c0.9,0,1.6,0,2,0c3.7,0,5,0.8,5,3.2c0,1.4-0.7,2.8-1.9,3.6c-1.2,0.8-2.7,1.1-5.2,1.1
			c-0.3,0-1,0-1.6,0L457.5,97.5z M455,109.5c4.2,0,4.6,0.1,5.2,3.1l1.9,8.8h5.9l-2.3-10c-0.7-3-1.3-3.6-3.3-3.9
			c2.2-0.1,3.4-0.4,4.8-1.2c2.3-1.4,3.5-3.6,3.5-6.5c0-4.4-2.9-6.6-8.9-6.6h-9l-6,28.2h5.7L455,109.5z M424.9,121.4h17l0.9-4.4
			h-11.2l1.7-7.9h10l0.9-4.4h-10l1.5-7h11l1-4.4H431L424.9,121.4z M407.1,97.5h1.4c2.2,0,3.9,0.3,5.1,0.9c2.5,1.2,3.9,3.6,3.9,6.9
			c0,4-1.8,8-4.5,9.9c-2.1,1.5-3.9,1.9-10.1,1.9L407.1,97.5z M396.3,121.4h7.9c6.7,0,10.1-0.7,12.9-2.7c3.9-2.7,6.4-8,6.4-13.5
			c0-4.1-1.4-7.3-3.8-9.3c-2.5-2-5.4-2.7-11.2-2.7h-6.2L396.3,121.4z M374.4,121.4l5-23.5h8l1-4.7h-22l-1,4.7h8.1l-5,23.5H374.4z
			 M363.2,121.4l1-4.7h-11.1l5-23.5h-5.8l-6,28.2H363.2z M324.6,121.4h17l0.9-4.4h-11.2l1.7-7.9h10l0.9-4.4h-10l1.5-7h11l1-4.4
			h-16.7L324.6,121.4z M313.9,121.4l13.7-28.2h-6l-7.6,16.5c-1.1,2.3-1.5,3.5-2.3,6h-0.4c0.2-2.2,0.3-3.9,0.3-5.7v-1.5v-0.3l-0.2-15
			h-7.7l-7,15.7c-0.2,0.5-0.2,0.6-1.6,3.9c-0.2,0.5-0.5,1.5-1,2.9h-0.3c0.2-2,0.3-2.5,0.2-4.9v-1.7l-0.7-15.9h-5.7l1.7,28.2h7.1
			l7.4-16.5c0.5-1.1,1-2.3,1.5-3.5c0.4-0.9,0.7-1.9,1.1-3.5h0.3c-0.2,2.3-0.3,2.4-0.2,3.6v1.8l0.3,18.1L313.9,121.4L313.9,121.4z"/>
	</g>
</g>
<polygon class="st4" points="290,179.8 298.5,136.2 553.1,136.2 544.6,179.8 "/>
<g>
	<g>
		<defs>
			<rect id="SVGID_9_" x="4.7" y="3" width="548.4" height="209.5"/>
		</defs>
		<clipPath id="SVGID_10_">
			<use xlink:href="#SVGID_9_"  style="overflow:visible;"/>
		</clipPath>
		<path class="st6" d="M533.7,171.9l6-28.2h-5.4l-3.8,17.8c-0.3,1.4-0.4,2-0.7,4.1h-0.2c-0.3-1.5-0.4-1.9-0.5-2.3
			c-0.1-0.5-0.4-1.4-0.8-2.9l-4.8-16.7h-7.2l-6,28.2h5.4l3.9-18.5c0.3-1.7,0.5-2.4,0.5-3.3h0.2c0,0.9,0.5,3.1,1.1,5.2l4.7,16.7h7.6
			V171.9z M488.5,171.9h17l0.9-4.4h-11.2l1.7-7.9h10l0.9-4.4h-10l1.5-7h11l1-4.4h-16.7L488.5,171.9z M482.4,171.9l6-28.2H483
			l-3.8,17.8c-0.3,1.4-0.4,2-0.7,4.1h-0.2c-0.3-1.5-0.4-1.9-0.5-2.3c-0.1-0.5-0.4-1.4-0.8-2.9l-4.8-16.7H465l-6,28.2h5.4l3.9-18.5
			c0.3-1.7,0.5-2.4,0.5-3.3h0.2c0,0.9,0.5,3.1,1.1,5.2l4.7,16.7h7.6V171.9z M451.8,171.9l6-28.2H452l-6,28.2H451.8z M438.6,171.9
			l6-28.2h-5.8l-2.4,11.3h-11.3l2.4-11.3h-5.8l-6,28.2h5.8l2.6-12.2h11.3l-2.6,12.2H438.6z M412.3,166.3c-1.9,0.8-3.8,1.3-5.7,1.3
			c-4.8,0-8.3-3.6-8.3-8.3c0-2.8,1.2-5.8,3.2-7.9c2.1-2.2,4.9-3.3,8.2-3.3c2.3,0,4.1,0.5,5.8,1.5l1.4-4.6c-2.9-1-5.2-1.4-8.1-1.4
			c-5,0-9.1,1.6-12.1,4.7c-2.8,2.9-4.5,7.2-4.5,11.4c0,7.6,5.1,12.6,12.7,12.6c2,0,3.9-0.3,6.5-0.8L412.3,166.3z M368.6,170.7
			c3.1,1.1,5.7,1.5,8.7,1.5c3.4,0,6.3-0.8,8.1-2.5c1.8-1.6,3-4.1,3-6.6c0-2.1-0.7-3.8-2.1-5.3c-0.9-0.9-1.9-1.6-4.2-3
			c-1.8-1-2.2-1.3-2.6-1.6c-0.6-0.5-1-1.3-1-2.2c0-2,1.9-3.4,4.9-3.4c2,0,3.7,0.4,6,1.5l1.4-4.6c-2.7-0.9-4.7-1.3-7.3-1.3
			c-3.4,0-5.9,0.7-7.8,2.3c-1.9,1.5-2.9,3.7-2.9,6.2c0,2,0.7,3.6,2.2,4.9c0.8,0.8,1,0.9,3.4,2.3c3.4,1.9,4.1,2.7,4.1,4.4
			c0,2.7-2.2,4.5-5.4,4.5c-2.3,0-4.1-0.5-6.9-2L368.6,170.7z M359.8,160.9h-8.6l4.9-8.5c0.7-1.1,1.5-2.8,1.8-3.7h0.2
			c0,1.6,0.1,2.3,0.5,4.4L359.8,160.9z M367.3,171.9l-5.2-28.2h-6.3l-17.2,28.2h6.3l3.8-6.6h11.8l1.1,6.6H367.3z M335.6,171.9
			l6-28.2h-9.5l-8,14.4c-1.7,3.1-2.8,5.6-3.2,7.1h-0.2c0-0.6,0-1.2,0-1.4c0-2-0.1-2.8-0.5-7.1l-1.4-12.9h-9.3l-6,28.2h5.4l5-23.7
			h0.3c0.1,2.7,0.3,5.5,0.6,8.2l1.9,15.4h5.1l11.6-21c0.7-1.2,0.8-1.6,1.4-2.7h0.4c-0.1,0.5-0.3,1.1-0.3,1.2
			c-0.8,2.7-0.9,2.8-1.6,6.2l-3.5,16.3H335.6z"/>
	</g>
	<g>
		<defs>
			<rect id="SVGID_11_" x="4.7" y="3" width="548.4" height="209.5"/>
		</defs>
		<clipPath id="SVGID_12_">
			<use xlink:href="#SVGID_11_"  style="overflow:visible;"/>
		</clipPath>
		<path class="st7" d="M72.6,32.5c-2.2,0.5-4,1.5-5.2,2.8c-1.1,1.2-2,2.9-2.6,5H50.9l21.7-21.8C72.6,18.5,72.6,32.5,72.6,32.5z
			 M40.6,32.2V9.5h22.6L40.6,32.2z M24.9,66.3l21.9-22v22H24.9z M14.9,35h22.9L14.9,57.9V35z M38.8,10.2v23h-23L38.8,10.2z
			 M177.1,31.7l-4.3,22c-0.3,1.3-0.9,2.1-1.9,2.3h-15.5c-0.9-0.2-1.3-0.9-1-2.3l4.3-22h-26l2-10.5h-15.5l-2,10.5H81.1
			c-2.7,0-5,0.1-6.7,0.4V7.8H38.6L13.1,33.3v26.4l-8.5,8.5h43.9v-26h15.7L64,43l-0.6,3.3c-0.9,4.8,3.3,7.2,12.8,7.2H93
			c1.1,0,1.6,0.6,1.4,1.9c-0.2,1.1-0.9,1.7-2.1,1.7h-31l-2.1,11h32.2c2.9,0,5.3-0.1,7-0.4c2.9-0.4,5.1-1.5,6.7-3.1
			c1.5-1.6,2.7-4.2,3.3-7.7l0.3-1.6c1.1-5.8-2.4-9.2-10.9-9.2H80.3c-1.3,0-1.9-0.1-1.7-1.4c0.2-1.3,1.1-2.2,2.4-2.2h34l-2.8,14.4
			c-0.6,3.3-0.5,5.8,0.4,7.5c0.9,1.6,2.8,2.7,5.6,3.2c1.8,0.3,4.3,0.5,7.4,0.5h6.9l2.3-11.9h-4.6c-0.9-0.1-1.5-0.2-1.8-0.5
			s-0.3-0.9-0.1-1.8l2.2-11.4h10.6l-2.8,14.3c-0.6,3.3-0.5,5.8,0.3,7.4c0.8,1.7,2.6,2.8,5.3,3.3c1.9,0.4,4.6,0.6,7.8,0.6h33.8
			l7-36.2h-15.4V31.7z"/>
	</g>
	<g>
		<defs>
			<rect id="SVGID_13_" x="4.7" y="3" width="548.4" height="209.5"/>
		</defs>
		<clipPath id="SVGID_14_">
			<use xlink:href="#SVGID_13_"  style="overflow:visible;"/>
		</clipPath>
		<path class="st8" d="M392.3,23.9c0,0.8-0.2,1.5-0.5,2.1s-0.8,1.1-1.4,1.4c-0.6,0.3-1.2,0.5-1.9,0.5l0,0c-0.7,0-1.3-0.2-1.9-0.5
			s-1-0.8-1.4-1.4c-0.3-0.6-0.5-1.3-0.5-2.1s0.2-1.5,0.5-2.1s0.8-1.1,1.4-1.4c0.6-0.3,1.2-0.5,1.9-0.5c0.7,0,1.3,0.2,1.9,0.5
			s1,0.8,1.4,1.4C392.1,22.3,392.3,23,392.3,23.9 M393.8,23.9c0-1.1-0.3-2.1-0.8-2.9c-0.5-0.8-1.1-1.4-1.9-1.8
			c-0.8-0.4-1.7-0.6-2.6-0.6c-1,0-1.8,0.2-2.6,0.6c-0.8,0.4-1.4,1-1.9,1.8s-0.7,1.7-0.8,2.9c0,1.1,0.3,2.1,0.8,2.9
			c0.5,0.8,1.1,1.4,1.9,1.8c0.8,0.4,1.7,0.6,2.6,0.6s1.8-0.2,2.6-0.6c0.8-0.4,1.4-1,1.9-1.8C393.6,25.9,393.8,25,393.8,23.9
			 M387.6,23.3V22h0.9c0.2,0,0.5,0,0.7,0.1s0.4,0.3,0.4,0.5c0,0.3-0.1,0.5-0.2,0.6s-0.4,0.1-0.6,0.1
			C388.8,23.3,387.6,23.3,387.6,23.3z M387.6,24.3h0.6l1.3,2.4h1.4l-1.5-2.5c0.4,0,0.7-0.1,1-0.4c0.3-0.2,0.4-0.6,0.4-1.1
			c0-0.6-0.2-1.1-0.6-1.3c-0.4-0.3-1-0.4-1.7-0.4h-2.1v5.7h1.2L387.6,24.3L387.6,24.3z"/>
	</g>
	<g>
		<defs>
			<rect id="SVGID_15_" x="4.7" y="3" width="548.4" height="209.5"/>
		</defs>
		<clipPath id="SVGID_16_">
			<use xlink:href="#SVGID_15_"  style="overflow:visible;"/>
		</clipPath>
		<path class="st9" d="M388.8,43.6h-15.7h-3c-1,0.3-1.7,1-1.9,2.4l-4.3,22h-15.5l7-36.2H371h5.9h14.3L388.8,43.6z"/>
	</g>
	<g>
		<defs>
			<rect id="SVGID_17_" x="4.7" y="3" width="548.4" height="209.5"/>
		</defs>
		<clipPath id="SVGID_18_">
			<use xlink:href="#SVGID_17_"  style="overflow:visible;"/>
		</clipPath>
		<path class="st10" d="M228.7,43.6H213h-3c-1,0.3-1.7,1-1.9,2.4l-4.3,22h-15.5l7-36.2h15.5h5.9H231L228.7,43.6z"/>
	</g>
	<g>
		<defs>
			<rect id="SVGID_19_" x="4.7" y="3" width="548.4" height="209.5"/>
		</defs>
		<clipPath id="SVGID_20_">
			<use xlink:href="#SVGID_19_"  style="overflow:visible;"/>
		</clipPath>
		<path class="st11" d="M295.3,68H280l4.3-22c0.3-1.3,0.3-2.4-1.5-2.4h-2.6H278h-2.8c-1.4,0-1.9,1-2.2,2.4l-4.3,22h-15.5l4.2-21.9
			c0.2-1.3,0.3-2.4-1.4-2.4h-1.4h-3.3c-2,0-2,0-2.8,0c-1.2,0-1.9,1-2.2,2.4L242,68h-15.5l7-36.2H249h32.7h7.2c3.5,0,5,0,6.8,0
			c4.5,0,6.3,2.3,5.3,7.1L295.3,68z"/>
	</g>
	<g>
		<defs>
			<rect id="SVGID_21_" x="4.7" y="3" width="548.4" height="209.5"/>
		</defs>
		<clipPath id="SVGID_22_">
			<use xlink:href="#SVGID_21_"  style="overflow:visible;"/>
		</clipPath>
		<path class="st12" d="M336.2,46.2c0.9,0,1.5-0.6,1.7-1.8c0.2-1.1-0.1-1.7-1.1-1.7h-18c-1.1,0-1.8,0.6-2,1.7
			c-0.2,1.2,0.2,1.8,1.3,1.8H336.2z M337.4,31.7h7.7c6.5,0,7.1,3.7,6.3,7.7l-0.8,4.2c-0.4,2.1-0.8,3.7-1.1,5.4
			c-0.6,3.2-4.4,4.3-8.5,4.3h-7.9H315c-0.3,1.6-0.2,2.6,0.2,3c0.5,0.4,1.7,0.6,3.6,0.6h28l-2.1,11h-31.4c-3,0-5.1-0.1-7.4-0.1
			c-4.3,0-7.7-2.1-6-11.2l1.9-9.7l1.3-6.5c1.2-6.1,5.7-8.7,12.2-8.7h7.8C323.1,31.7,337.4,31.7,337.4,31.7z"/>
	</g>
</g>
<polygon class="st4" points="162.1,21.3 177.7,21.3 175.7,31.6 160.1,31.6 "/>
</svg>
